<?xml version="1.0" encoding="UTF-8" standalone="no"?>
<svg
   xmlns:dc="http://purl.org/dc/elements/1.1/"
   xmlns:cc="http://creativecommons.org/ns#"
   xmlns:rdf="http://www.w3.org/1999/02/22-rdf-syntax-ns#"
   xmlns:svg="http://www.w3.org/2000/svg"
   xmlns="http://www.w3.org/2000/svg"
   xmlns:sodipodi="http://sodipodi.sourceforge.net/DTD/sodipodi-0.dtd"
   xmlns:inkscape="http://www.inkscape.org/namespaces/inkscape"
   sodipodi:docname="logo-eib.svg"
   inkscape:version="1.0 (4035a4fb49, 2020-05-01)"
   id="svg8"
   version="1.1"
   viewBox="0 0 523.875 523.875"
   height="1980"
   width="1980">
  <defs
     id="defs2" />
  <sodipodi:namedview
     inkscape:pagecheckerboard="true"
     inkscape:document-rotation="0"
     inkscape:window-maximized="1"
     inkscape:window-y="-8"
     inkscape:window-x="-8"
     inkscape:window-height="1377"
     inkscape:window-width="2560"
     fit-margin-bottom="0"
     fit-margin-right="0"
     fit-margin-left="0"
     fit-margin-top="0"
     showgrid="false"
     inkscape:current-layer="layer1"
     inkscape:document-units="mm"
     inkscape:cy="1553.3724"
     inkscape:cx="2216.743"
     inkscape:zoom="0.35"
     inkscape:pageshadow="2"
     inkscape:pageopacity="0.0"
     borderopacity="1.0"
     bordercolor="#666666"
     pagecolor="#ffffff"
     id="base"
     units="px" />
  <metadata
     id="metadata5">
    <rdf:RDF>
      <cc:Work
         rdf:about="">
        <dc:format>image/svg+xml</dc:format>
        <dc:type
           rdf:resource="http://purl.org/dc/dcmitype/StillImage" />
        <dc:title></dc:title>
      </cc:Work>
    </rdf:RDF>
  </metadata>
  <g
     transform="translate(-39.638008,-39.939266)"
     id="layer1"
     inkscape:groupmode="layer"
     inkscape:label="Layer 1">
    <rect
       style="fill:#000000;fill-opacity:1;fill-rule:evenodd;stroke:#ffffff;stroke-width:26.4043;stroke-miterlimit:4;stroke-dasharray:none;stroke-opacity:1;paint-order:fill markers stroke"
       id="rect837"
       width="497.16449"
       height="497.29419"
       x="53.109314"
       y="53.410606" />
    <path
       sodipodi:nodetypes="sccssccscsccsscccccccsscccccccscccccccccsscccc"
       style="fill:#ffffff;fill-opacity:1;stroke-width:3.57627"
       d="m 354.25342,525.45348 c 0,-1.95725 -4.47876,-4.70807 -9.95285,-6.11293 -5.47406,-1.40484 -11.62232,-6.19921 -13.66279,-10.65416 -2.62559,-5.73249 -3.53203,-65.80703 -3.10125,-205.53941 0.66073,-214.318384 0.70524,-214.835646 18.52205,-214.835646 4.50715,0 11.14881,-5.148047 11.14881,-7.274234 -19.99433,-0.577853 -78.33998,0.878124 -96.08208,0.552432 0,2.126188 3.98289,6.721823 8.24995,6.721823 4.26712,0 10.59451,3.660574 14.06091,8.134636 5.98765,7.728139 6.35288,17.627339 7.30981,198.122029 0.67749,127.77616 -0.16018,194.66312 -2.55831,204.26651 -2.9652,18.04547 -20.72096,15.75502 -26.84276,26.28177 2.32683,0.67196 92.90851,2.72778 92.90851,0.3372 z m -191.88987,-58.29412 0.29532,-145.5196 121.37251,-1.85163 c -2.17975,-18.30345 -3.3287,-32.31367 -0.23421,-46.6806 L 162.8066,271.97094 162.36357,126.96909 h 119.33156 l -0.90696,-9.74321 C 279.70354,105.57372 282.23093,96.545774 261.97609,93.817706 254.70165,92.83789 254.59333,84.746112 253.61557,81.680608 215.80428,81.383572 152.07715,82.211854 98.085107,80.994035 122.59458,264.02332 121.55113,317.35705 93.826069,519.81189 157.19482,507.92712 223.07151,551.45464 271.35694,504.3149 c 10.03425,-9.91173 12.22107,-28.56501 10.28007,-37.15547 z M 468.39483,303.7439 C 529.83156,228.82077 531.10515,132.54459 456.44704,91.704019 444.14315,84.154651 435.74209,82.565323 401.3988,81.289908 c -35.511,-1.318787 -36.50496,0.109665 -36.50496,0.109665 0.48204,4.658877 -10.75517,13.048086 -16.41756,14.14805 -10.9109,3.496209 -10.73129,19.576927 -11.1157,32.031277 38.24017,0.82653 90.20735,-5.01013 115.07522,19.83611 34.54228,35.43772 25.8539,95.87428 -17.12548,119.12531 -39.74634,11.13143 -56.72877,6.38274 -101.39929,6.46595 2.13066,15.7925 2.79418,27.16097 -0.19832,46.49066 34.63003,-0.2288 76.61858,-3.73948 104.84789,11.8956 26.49874,14.98883 41.32184,52.62918 31.68779,86.7383 -22.52541,51.05389 -57.90179,48.87145 -96.97137,49.00657 l -37.37417,0.022 c -0.36512,50.9919 43.01857,54.25734 62.2351,54.67342 137.52573,16.28116 149.80477,-176.01298 70.25694,-218.08948 z"
       id="path3753"
       inkscape:connector-curvature="0" />
  </g>
</svg>
