<?xml version="1.0" encoding="UTF-8" standalone="no"?>
<!-- Created with Inkscape (http://www.inkscape.org/) -->

<svg
   xmlns:dc="http://purl.org/dc/elements/1.1/"
   xmlns:cc="http://creativecommons.org/ns#"
   xmlns:rdf="http://www.w3.org/1999/02/22-rdf-syntax-ns#"
   xmlns:svg="http://www.w3.org/2000/svg"
   xmlns="http://www.w3.org/2000/svg"
   xmlns:sodipodi="http://sodipodi.sourceforge.net/DTD/sodipodi-0.dtd"
   xmlns:inkscape="http://www.inkscape.org/namespaces/inkscape"
   width="199.99838mm"
   height="238.17754mm"
   viewBox="0 0 199.99838 238.17754"
   version="1.1"
   id="svg8"
   inkscape:version="0.92.4 (5da689c313, 2019-01-14)"
   sodipodi:docname="baptysci-logo-2.svg">
  <defs
     id="defs2" />
  <sodipodi:namedview
     id="base"
     pagecolor="#ffffff"
     bordercolor="#666666"
     borderopacity="1.0"
     inkscape:pageopacity="0.0"
     inkscape:pageshadow="2"
     inkscape:zoom="0.49497475"
     inkscape:cx="1359.8582"
     inkscape:cy="535.14931"
     inkscape:document-units="mm"
     inkscape:current-layer="layer1"
     showgrid="false"
     fit-margin-top="1"
     fit-margin-right="1"
     fit-margin-bottom="1"
     fit-margin-left="1"
     inkscape:window-width="2560"
     inkscape:window-height="1377"
     inkscape:window-x="2552"
     inkscape:window-y="-8"
     inkscape:window-maximized="1" />
  <metadata
     id="metadata5">
    <rdf:RDF>
      <cc:Work
         rdf:about="">
        <dc:format>image/svg+xml</dc:format>
        <dc:type
           rdf:resource="http://purl.org/dc/dcmitype/StillImage" />
        <dc:title />
      </cc:Work>
    </rdf:RDF>
  </metadata>
  <g
     inkscape:label="Layer 1"
     inkscape:groupmode="layer"
     id="layer1"
     transform="translate(-2.8855713,-9.3420965)">
    <g
       id="g837">
      <path
         sodipodi:nodetypes="cccccccccc"
         inkscape:connector-curvature="0"
         id="path912"
         d="M 30.201456,72.760868 C 50.99396,64.159461 72.088374,59.28162 93.945239,63.807335 l 1.202712,-34.076864 7.483549,-8.285356 15.7689,9.755338 -0.8018,38.887717 c -9.95296,-0.865464 -21.080583,-0.902676 -27.79604,4.276308 -2.763783,6.32738 -0.979988,8.10718 -1.469982,12.16077 -21.800944,-2.30116 -41.608759,3.3702 -60.937452,10.95805 z"
         style="opacity:0.98999999;vector-effect:none;fill:#f1dc12;fill-opacity:1;stroke:#b70000;stroke-width:0.00093637;stroke-linecap:butt;stroke-linejoin:miter;stroke-miterlimit:4;stroke-dasharray:none;stroke-dashoffset:0;stroke-opacity:1" />
      <path
         sodipodi:nodetypes="ccccc"
         inkscape:connector-curvature="0"
         id="path914"
         d="m 120.94312,72.545638 c 46.69595,1.64759 20.44958,-0.965007 42.38059,2.50409 l 2.3151,17.29241 c -14.69275,-4.82645 -29.16479,-4.09383 -44.55394,-4.91368 z"
         style="opacity:0.98999999;vector-effect:none;fill:#e80807;fill-opacity:1;stroke:#b70000;stroke-width:0.00093637;stroke-linecap:butt;stroke-linejoin:miter;stroke-miterlimit:4;stroke-dasharray:none;stroke-dashoffset:0;stroke-opacity:1" />
      <path
         sodipodi:nodetypes="ccccc"
         inkscape:connector-curvature="0"
         id="path916"
         d="m 91.472995,90.400658 c 9.843855,0.32408 14.565615,5.38726 19.487335,11.001902 l 0.42425,89.29098 -20.446125,-7.41672 z"
         style="opacity:0.98999999;vector-effect:none;fill:#06f5f6;fill-opacity:1;stroke:#b70000;stroke-width:0.00093637;stroke-linecap:butt;stroke-linejoin:miter;stroke-miterlimit:4;stroke-dasharray:none;stroke-dashoffset:0;stroke-opacity:1" />
      <path
         sodipodi:nodetypes="cccccccc"
         inkscape:connector-curvature="0"
         id="path918"
         d="M 19.881739,24.16469 C 45.648734,12.87955 73.337373,12.575233 102.6315,21.445115 l -7.483549,8.285356 -1.202714,34.076864 c -21.003392,-4.596063 -42.23651,-2.07064 -63.743781,8.953533 l -2.80633,24.72243 -18.4746974,10.781092 z"
         style="opacity:0.98999999;vector-effect:none;fill:#ffffff;fill-opacity:1;stroke:#b70000;stroke-width:0.00093637;stroke-linecap:butt;stroke-linejoin:miter;stroke-miterlimit:4;stroke-dasharray:none;stroke-dashoffset:0;stroke-opacity:1" />
      <path
         sodipodi:nodetypes="cccccc"
         inkscape:connector-curvature="0"
         id="path920"
         d="m 102.6315,21.445115 c 12.67475,-5.395382 24.90865,-11.107273 56.72345,-2.761081 l 6.23661,52.72768 -47.99296,-1.323544 0.8018,-38.887717 z"
         style="opacity:0.98999999;vector-effect:none;fill:#ffffff;fill-opacity:1;stroke:#b70000;stroke-width:0.00093637;stroke-linecap:butt;stroke-linejoin:miter;stroke-miterlimit:4;stroke-dasharray:none;stroke-dashoffset:0;stroke-opacity:1" />
      <path
         sodipodi:nodetypes="ccccc"
         inkscape:connector-curvature="0"
         id="path922"
         d="m 27.395126,97.483298 c 19.295083,-12.8093 40.180217,-11.30813 60.937452,-10.95805 l -0.793102,98.657302 c -28.585876,-5.38185 -50.110871,6.8885 -72.949404,15.875 z"
         style="opacity:0.98999999;vector-effect:none;fill:#ffffff;fill-opacity:1;stroke:#b70000;stroke-width:0.00093637;stroke-linecap:butt;stroke-linejoin:miter;stroke-miterlimit:4;stroke-dasharray:none;stroke-dashoffset:0;stroke-opacity:1" />
      <path
         sodipodi:nodetypes="cccccccccccccc"
         inkscape:connector-curvature="0"
         id="path924"
         d="m 89.802558,74.364478 27.796042,-4.27631 1.31291,19.23017 49.32588,6.47284 -0.96915,13.083792 4.9379,-11.949862 12.66221,4.724702 11.90625,102.90402 c -63.82622,-18.02727 -84.71272,11.26786 -107.723218,31.46651 l 2.204591,-47.93728 20.128607,2.61048 5.4822,-91.137532 -28.534202,-13.03076 z"
         style="opacity:0.98999999;vector-effect:none;fill:#ffffff;fill-opacity:1;stroke:#b70000;stroke-width:0.00093637;stroke-linecap:butt;stroke-linejoin:miter;stroke-miterlimit:4;stroke-dasharray:none;stroke-dashoffset:0;stroke-opacity:1" />
      <g
         id="g840">
        <path
           style="opacity:1;fill:#000000;fill-opacity:1;stroke:#e05e55;stroke-width:0;stroke-linejoin:round;stroke-miterlimit:4;stroke-dasharray:none;paint-order:fill markers stroke"
           d="m 85.939919,246.26723 c -0.0094,-0.13882 -0.08886,-13.24541 -0.177329,-29.12578 -0.08845,-15.88038 -0.221896,-29.06875 -0.29659,-29.30747 -0.189111,-0.60447 -0.568198,-0.64792 -6.991021,-0.80105 -8.351511,-0.19911 -14.22096,0.31782 -22.050642,1.94213 -9.121686,1.8923 -19.33089,5.39367 -27.071116,9.28432 -6.133879,3.08324 -13.326513,7.56375 -17.614878,10.97286 -0.917136,0.72908 -1.690031,1.30255 -1.717523,1.27436 -0.0275,-0.0283 0.344417,-3.27164 0.826493,-7.20763 0.482066,-3.93599 1.677905,-13.92548 2.657423,-22.1988 0.979517,-8.27335 2.750754,-23.08357 3.936082,-32.91163 2.352853,-19.50848 4.815549,-40.16358 5.023694,-42.13475 0.248741,-2.35563 -0.136367,-2.55349 -2.451321,-1.25947 -3.828499,2.14008 -10.3711354,7.11635 -14.2856641,10.86555 -1.7094288,1.63722 -1.7741639,1.67773 -1.8354509,1.14879 -0.034899,-0.30157 0.074174,-0.76382 0.2424704,-1.02724 0.4504478,-0.70503 0.6381319,-1.77867 1.0941323,-6.259 0.5139017,-5.04911 1.4929609,-13.428752 1.8710479,-16.014062 0.157338,-1.07586 0.867924,-6.90799 1.579094,-12.9603 1.5871164,-13.507075 4.5816744,-38.662274 5.5283344,-46.439725 1.155825,-9.495841 1.445758,-11.369925 1.817564,-11.748368 0.678646,-0.690764 5.643521,-3.015877 9.587771,-4.490076 1.08284,-0.404726 2.163471,-0.819504 2.401378,-0.921727 0.902,-0.387567 6.372558,-2.025026 9.017708,-2.699198 9.780288,-2.050373 19.220142,-3.766109 27.169542,-3.906867 11.806343,0.24915 23.337405,2.167092 33.666269,5.60329 2.998403,1.008448 4.483863,1.415395 4.908593,1.344711 0.33496,-0.05577 1.98123,-0.738521 3.65838,-1.517276 5.52148,-2.563802 9.32508,-3.687678 15.10333,-4.462662 3.44684,-0.467132 6.93175,-0.570479 9.16974,-0.761116 3.77329,0.02718 9.47887,0.541062 12.56469,1.105655 7.87159,0.880819 14.45426,2.88634 17.89436,4.686204 1.1046,0.577921 0.8305,-1.029442 2.96096,17.363602 1.26984,10.962913 3.70412,30.848596 4.01228,32.776228 0.15674,0.980521 0.4204,1.994706 0.58589,2.253735 0.36001,0.563466 1.45606,0.569923 6.63813,1.714223 7.05011,1.556798 9.30647,2.395117 9.30647,2.395117 0.14958,0.54783 0.56519,5.2963 0.47193,5.39194 -0.0473,0.0485 -2.69287,-0.41706 -5.87907,-1.03456 -3.1862,-0.61749 -6.60244,-1.17469 -7.59163,-1.23819 -1.78431,-0.11457 -1.80126,-0.11122 -2.14241,0.42274 -0.3286,0.51434 -0.32538,0.67455 0.0727,3.61221 0.22909,1.69071 0.64642,4.92683 0.9274,7.1914 0.28097,2.26456 0.58907,4.32833 0.68464,4.58615 0.25739,0.69428 1.47394,1.23851 7.57201,3.38745 5.85397,2.06292 8.22391,3.13179 8.81579,3.97603 0.27022,0.38544 0.45951,1.377062 0.73229,3.836322 0.90624,8.16993 2.24412,19.57319 2.95939,25.22396 0.42873,3.38707 1.0913,8.88412 1.47237,12.21567 0.69511,6.0772 1.64112,14.0382 5.12257,43.10818 1.03073,8.60648 2.18305,18.2377 2.56072,21.40266 0.37765,3.16496 0.87009,6.69367 1.0943,7.84156 0.22421,1.14787 0.37459,2.12093 0.33419,2.16237 -0.0404,0.0414 -0.46784,-0.43148 -0.94982,-1.05097 -1.327,-1.70549 -4.05465,-4.2813 -5.80889,-5.48553 -4.97761,-3.41697 -12.1817,-5.82741 -19.47475,-6.51615 -2.87721,-0.27171 -13.38916,-0.13424 -16.84157,0.22024 -11.90441,1.22235 -27.55941,6.4544 -39.61651,13.24029 -8.78198,4.94259 -15.18519,9.72138 -21.486493,16.03564 -4.766218,4.77602 -7.718939,8.47255 -10.203533,12.77393 -0.753726,1.30486 -1.408422,2.37248 -1.454884,2.37248 -0.04646,0 -0.09188,-0.11358 -0.101051,-0.2524 z m 7.063142,-18.52827 c 0.356387,-0.22283 1.596731,-1.33855 2.756327,-2.47938 8.294792,-8.16059 20.752422,-16.00015 34.396822,-21.6459 4.80263,-1.98725 8.93804,-3.33632 14.58597,-4.75833 5.4435,-1.37053 7.87283,-1.82587 12.80309,-2.3997 12.05645,-1.40329 22.43482,-0.55763 31.28141,2.54887 1.40769,0.49432 2.96971,1.04324 3.47115,1.2198 1.08867,0.38339 1.48895,0.26688 1.68032,-0.48913 0.0857,-0.3388 -0.22552,-3.58658 -0.77973,-8.13561 -1.67668,-13.7622 -3.65567,-30.24256 -4.86134,-40.48331 -0.6537,-5.55259 -1.45092,-12.23082 -1.77159,-14.84053 -0.32066,-2.60971 -0.8931,-7.42531 -1.27208,-10.70133 -1.72044,-14.87202 -2.48928,-21.02256 -2.71744,-21.73931 -0.21651,-0.68009 -0.42094,-0.86258 -1.68717,-1.50606 -1.73694,-0.88269 -6.68982,-2.599342 -7.4996,-2.599342 -0.73626,0 -1.19895,0.470402 -1.19895,1.218942 0,0.32141 0.13744,1.5949 0.30541,2.82999 0.20896,1.37765 0.27408,2.74176 0.1868,4.12438 -1.93941,0.58317 -3.48416,0.79873 -5.41422,0.97196 l -0.001,-0.68583 c -0.003,-1.79066 -1.41786,-10.143312 -1.79803,-10.613092 -0.27224,-0.3363 -3.66303,-1.10982 -9.52163,-2.17209 -10.30796,-1.86903 -14.00608,-2.13545 -29.64149,-2.13545 h -11.18945 l -0.0601,-9.27805 c -0.0443,-6.83237 -0.12189,-9.34134 -0.29441,-9.51812 -0.18102,-0.18549 -1.05391,-0.16287 -3.83918,0.0995 -6.46028,0.60844 -16.065615,1.95019 -18.307739,2.55737 -1.03447,0.28015 -1.219675,0.99576 -1.104466,4.26766 0.06751,1.91743 0.167713,2.68304 0.379608,2.90035 0.158327,0.16238 1.990173,0.88676 4.07074,1.60973 9.027337,3.13693 13.145877,5.60016 18.297007,10.9432 l 2.60868,2.70586 -2.8e-4,53.038262 -2.7e-4,53.03824 -0.97292,-1.65894 c -1.50234,-2.56175 -2.47403,-3.8371 -4.44708,-5.83699 -2.19448,-2.2243 -5.39839,-4.4653 -8.65037,-6.05058 -2.68155,-1.30721 -8.373013,-3.2994 -9.885299,-3.46018 l -1.019823,-0.10845 -0.155483,0.78399 c -0.08553,0.43116 -0.158181,9.14309 -0.161484,19.35984 -0.0073,21.00284 -0.08032,20.02184 1.429518,19.07781 z M 20.661522,196.26937 c 9.690073,-5.62221 21.197396,-10.06213 33.258136,-12.83214 2.494637,-0.57295 10.698905,-1.80791 14.120638,-2.12553 1.245271,-0.11559 5.686327,-0.21045 9.869006,-0.21084 h 7.604869 l 0.150639,-35.48602 c 0.145961,-34.38267 0.0548,-53.714382 -0.260118,-55.172422 -0.283276,-1.3115 -0.294569,-1.31301 -9.784487,-1.30758 -10.520139,0.006 -14.000992,0.3452 -21.813599,2.12554 -10.411577,2.37258 -23.827848,7.41564 -24.681729,9.277652 -0.293829,0.6407 -0.57972,2.75308 -1.940231,14.33573 -0.606556,5.16389 -2.031313,17.11203 -3.166126,26.55141 -4.838656,40.24799 -6.379704,53.40665 -6.379704,54.47479 0,0.748 0.291589,1.75766 0.507599,1.75766 0.06792,0 1.199777,-0.6244 2.515107,-1.38758 z m 90.298808,-50.97976 v -43.88705 c -5.59734,-5.572569 -12.025485,-9.361559 -19.487335,-11.001902 0.465298,30.851852 0.365847,63.377302 -0.01884,91.313272 4.621838,0.40788 13.100006,4.12942 19.372546,7.96342 z M 17.575122,99.542288 c 2.687999,-1.65779 5.138142,-3.28327 5.444753,-3.61216 0.704201,-0.75539 0.79174,-1.17463 1.514484,-7.25232 1.127719,-9.48329 2.202329,-17.720941 2.329132,-17.854489 0.337667,-0.355654 8.36022,-3.89426 11.054042,-4.875752 10.244384,-3.732539 21.015057,-6.191051 29.924286,-6.8305 4.84625,-0.347834 15.666177,-0.117693 19.959115,0.424544 2.592188,0.327406 3.575872,0.384949 3.738012,0.218677 0.349918,-0.35887 0.488202,-5.234794 0.505141,-17.811031 l 0.01573,-11.64356 1.279765,-2.224535 c 0.703867,-1.223503 1.725565,-2.794231 2.270449,-3.490529 2.003446,-2.560126 1.774526,-2.942073 -2.5658,-4.2811 -6.555585,-2.02244 -12.928892,-2.992672 -22.296497,-3.394278 -10.41789,-0.446627 -20.022101,0.281541 -28.695631,2.175626 -8.606181,1.879383 -20.475788,6.00169 -20.952957,7.276956 -0.196102,0.524096 -0.876289,5.745898 -1.981392,15.211236 -0.602899,5.163895 -1.577364,13.29589 -2.16546,18.071107 -0.588106,4.775218 -1.384638,11.498879 -1.77008,14.941478 -0.889166,7.94169 -3.027165,25.1917 -3.250415,26.225282 -0.192174,0.88977 0.03761,1.73952 0.470387,1.73952 0.15715,0 2.48499,-1.35638 5.172999,-3.014172 z m 15.529123,-7.99929 c 5.688973,-2.54046 18.430672,-6.22587 24.759611,-7.16149 8.114301,-1.19954 12.726405,-1.49174 21.054101,-1.3339 l 6.644729,0.12594 0.01427,-1.36322 c 0.03011,-2.88361 0.334448,-8.84972 0.467845,-9.17292 0.313508,-0.759594 9.773351,-2.429692 20.387279,-3.599294 5.77057,-0.635892 7.93429,-0.982647 8.26828,-1.325053 0.258,-0.2645 0.30352,-2.556664 0.35431,-17.840988 l 0.0582,-17.537493 -2.02708,-1.672993 c -3.667,-3.026444 -8.18586,-5.841208 -9.37757,-5.841208 -0.9499,0 -4.082823,3.693425 -5.401893,6.368349 l -0.50184,1.017667 -0.0669,17.591949 c -0.0368,9.675563 -0.13267,17.659416 -0.21314,17.741906 -0.0804,0.08248 -0.92212,-0.09327 -1.87036,-0.390494 -5.492528,-1.721776 -16.251647,-2.96748 -22.088374,-2.557413 -7.205749,0.506233 -12.680036,1.197253 -16.914646,2.135112 -8.459668,1.873615 -16.881571,4.60214 -23.453032,7.598293 l -1.0771,0.49108 -0.635298,5.03617 c -0.349418,2.76989 -0.771113,6.03563 -0.937097,7.2572 -0.491587,3.61785 -0.384192,5.35067 0.331593,5.35067 0.09272,0 1.093497,-0.41305 2.223987,-0.91787 z m 131.213475,-1.40746 c 0.28411,-0.35108 0.20613,-1.75032 -0.41054,-7.36644 -0.5871,-5.34682 -0.89769,-7.11882 -1.30075,-7.42108 -0.19057,-0.14291 -0.66676,-0.34828 -1.05819,-0.45638 -4.47922,-1.23695 -37.0589,-1.68368 -39.35214,-0.53961 -0.26418,0.1318 -0.5654,0.51221 -0.66939,0.84536 -0.10397,0.33316 -0.19776,2.69553 -0.20836,5.24972 -0.0215,5.17363 0.0779,5.68798 1.1595,5.99941 0.32485,0.0935 4.53318,0.30254 9.35183,0.46447 4.81867,0.16192 10.04585,0.39168 11.61597,0.51055 4.0687,0.30807 12.35194,1.49826 16.04579,2.30558 3.5491,0.77567 4.46628,0.85328 4.82628,0.40842 z m -2.55784,-21.808466 c 0.42847,-0.52948 0.0949,-5.673664 -0.88352,-13.623734 -0.49884,-4.053375 -1.52439,-12.594251 -2.27902,-18.979715 -1.46427,-12.39051 -1.66482,-13.788202 -2.07585,-14.467951 -0.42957,-0.710379 -4.73866,-1.994747 -11.01257,-3.282396 -4.9133,-1.008394 -6.55669,-1.128417 -15.45116,-1.128417 -9.04444,0 -9.63573,0.05833 -14.52147,1.431539 -2.35266,0.661276 -5.18052,1.836862 -5.43522,2.259525 -0.25961,0.430773 0.17033,0.897935 2.21039,2.40176 2.90141,2.138766 5.55551,4.338344 7.35948,6.099159 l 1.52719,1.490652 v 18.448151 18.44814 l 8.02289,0.0032 c 11.17727,0.0043 23.23358,0.348271 27.71097,0.791491 4.79039,0.474212 4.53695,0.468486 4.82789,0.108975 z"
           id="path908"
           inkscape:connector-curvature="0"
           sodipodi:nodetypes="cccscccccssscccccscsccsccccsccccsccsccccccccsccsccccccscccscscccccccccccccscsssccccccsccscccccccccccccccccccscccsccccssssccccccccccccsscccccccsssscscsccccscccsccccsccscccccccsscccscccccccccccccccsccscccccccc" />
      </g>
    </g>
  </g>
</svg>
