<?xml version="1.0" encoding="UTF-8" standalone="no"?>
<!-- Created with Inkscape (http://www.inkscape.org/) -->

<svg
   xmlns:dc="http://purl.org/dc/elements/1.1/"
   xmlns:cc="http://creativecommons.org/ns#"
   xmlns:rdf="http://www.w3.org/1999/02/22-rdf-syntax-ns#"
   xmlns:svg="http://www.w3.org/2000/svg"
   xmlns="http://www.w3.org/2000/svg"
   xmlns:sodipodi="http://sodipodi.sourceforge.net/DTD/sodipodi-0.dtd"
   xmlns:inkscape="http://www.inkscape.org/namespaces/inkscape"
   width="512"
   height="512"
   viewBox="0 0 135.46666 135.46667"
   version="1.1"
   id="svg8"
   inkscape:version="0.92.4 (5da689c313, 2019-01-14)"
   sodipodi:docname="baptysci-logo.svg">
  <defs
     id="defs2" />
  <sodipodi:namedview
     id="base"
     pagecolor="#ffffff"
     bordercolor="#666666"
     borderopacity="1.0"
     inkscape:pageopacity="0.0"
     inkscape:pageshadow="2"
     inkscape:zoom="1.4"
     inkscape:cx="-49.645661"
     inkscape:cy="364.48951"
     inkscape:document-units="mm"
     inkscape:current-layer="layer1"
     showgrid="false"
     units="px"
     inkscape:window-width="2560"
     inkscape:window-height="1377"
     inkscape:window-x="2552"
     inkscape:window-y="-8"
     inkscape:window-maximized="1"
     inkscape:pagecheckerboard="true" />
  <metadata
     id="metadata5">
    <rdf:RDF>
      <cc:Work
         rdf:about="">
        <dc:format>image/svg+xml</dc:format>
        <dc:type
           rdf:resource="http://purl.org/dc/dcmitype/StillImage" />
        <dc:title></dc:title>
      </cc:Work>
    </rdf:RDF>
  </metadata>
  <g
     inkscape:label="Layer 1"
     inkscape:groupmode="layer"
     id="layer1"
     transform="translate(0,-161.53332)">
    <g
       id="g1639"
       transform="translate(9.3383163,-14.154541)">
      <g
         id="g1626">
        <path
           inkscape:connector-curvature="0"
           id="path1453"
           d="m 49.29746,290.80696 -0.169025,-15.05015 -4.685585,-0.2017 c -8.534403,-0.36722 -19.868464,3.08149 -28.453979,8.65793 -2.290115,1.48744 -4.413033,2.70444 -4.717562,2.70444 -0.304552,0 -0.45646,-0.83704 -0.337574,-1.86011 2.259586,-19.44565 5.847319,-51.65498 5.847319,-52.49526 0,-1.72181 -1.440648,-1.32662 -4.582793,1.25709 -3.0144988,2.47878 -4.2106793,2.9195 -4.2106793,1.55142 0,-1.08923 4.2704783,-38.93191 5.0157063,-44.44673 0.645117,-4.77368 0.702779,-4.84377 5.66208,-6.88091 9.672374,-3.97315 24.059439,-4.85106 34.01683,-2.07577 l 5.438076,1.51568 3.983492,-1.48786 c 6.840337,-2.55493 22.2881,-1.74531 25.640835,1.34382 0.983095,0.90584 1.433845,3.27248 2.528841,13.27774 0.732862,6.69647 1.584031,12.84382 1.891477,13.6608 0.386392,1.02681 1.295182,1.61446 2.943287,1.90322 3.740576,0.65541 5.210774,1.51774 5.210774,3.05635 0,1.31232 -0.2384,1.37188 -3.768624,0.94177 l -3.768638,-0.45917 0.06265,2.6239 c 0.121301,5.08182 0.625861,5.88858 4.649196,7.43283 2.044576,0.78481 3.937316,1.85017 4.206066,2.36747 0.65321,1.25732 6.89351,56.53737 6.6565,58.96697 l -0.18587,1.90492 -2.13885,-1.70602 c -3.94416,-3.14597 -7.552213,-3.96485 -15.988504,-3.62879 -6.468721,0.2577 -8.529754,0.63371 -13.591917,2.47973 -8.934531,3.25816 -14.52385,6.93658 -20.935431,13.77785 -3.050749,3.25522 -5.659826,5.91859 -5.797941,5.91859 -0.138163,0 -0.327178,-6.77257 -0.420164,-15.05017 z m 6.171669,4.14532 c 3.84457,-4.61097 15.623341,-11.10762 24.436422,-13.47804 6.800601,-1.82911 16.542998,-2.02519 21.237349,-0.42742 2.52561,0.85959 3.07631,0.87709 3.35098,0.10634 0.43901,-1.23205 -5.230288,-50.43195 -5.893589,-51.14626 -0.285441,-0.3074 -1.428728,-0.75483 -2.540684,-0.99433 -1.91962,-0.41344 -2.02172,-0.33232 -2.02172,1.60598 0,2.18763 -1.282751,3.23981 -2.435871,1.99801 -0.387549,-0.41735 -0.70464,-1.57384 -0.70464,-2.56995 0,-0.99612 -0.353308,-2.11723 -0.785128,-2.49135 -1.494085,-1.29448 -7.731891,-2.29962 -16.644772,-2.6821 l -8.950484,-0.38409 v -4.59561 c 0,-2.52758 -0.251589,-4.76305 -0.559086,-4.96773 -1.109863,-0.73868 -10.855546,1.16317 -11.22137,2.18983 -0.584985,1.64172 0.595218,2.83115 4.500822,4.53601 2.04173,0.89123 4.79754,2.76173 6.124025,4.15662 l 2.411803,2.53619 v 27.55569 c 0,15.1556 -0.237702,27.71388 -0.5282,27.90722 -0.290524,0.19328 -1.12228,-0.51371 -1.848325,-1.57129 -1.479819,-2.1555 -7.151847,-5.46455 -9.366731,-5.46455 -1.443996,0 -1.44694,0.0205 -1.44694,9.80797 0,10.46812 0.333206,11.43479 2.886139,8.37289 z M 19.785725,278.14356 c 6.341549,-3.38835 14.10993,-5.49342 22.119481,-5.99388 l 7.223206,-0.45133 v -24.35081 -24.3508 l -4.396725,-0.2191 c -2.418212,-0.12041 -6.51658,0.14188 -9.10752,0.58332 -5.040156,0.85847 -12.979888,3.63146 -14.317912,5.00062 -0.518182,0.53025 -1.828098,9.6557 -3.607056,25.1285 -1.536365,13.36277 -2.795431,24.82862 -2.797924,25.47966 -0.0071,1.59811 0.510824,1.51066 4.88445,-0.82621 z M 14.909299,227.7246 c 2.419114,-1.34719 2.890508,-2.47067 3.402755,-8.10994 0.609937,-6.71432 0.767874,-7.05184 3.997808,-8.54281 6.536164,-3.01722 11.603028,-4.1249 20.85156,-4.55846 l 9.10752,-0.42696 0.314048,-8.18579 c 0.210331,-5.47958 0.596856,-8.55151 1.169449,-9.29203 0.470467,-0.60844 0.705274,-1.52761 0.521769,-2.04261 -0.86428,-2.4255 -17.777215,-3.63677 -25.873247,-1.85303 -5.380129,1.18537 -9.89835,2.77952 -10.991834,3.87818 -0.671873,0.67507 -1.589043,6.42478 -3.197244,20.04354 -1.240287,10.50333 -2.142218,19.32521 -2.004268,19.60423 0.346831,0.70152 0.607609,0.65186 2.701684,-0.51432 z m 73.475654,-18.12782 c 0,-2.51747 -2.411857,-22.74202 -2.790828,-23.40237 -1.232362,-2.1474 -17.48185,-3.27398 -21.391181,-1.48305 l -1.884337,0.86322 2.512434,2.35461 2.51241,2.3546 0.314048,9.93055 0.314073,9.93055 7.537254,0.37127 c 4.14549,0.20427 8.738492,0.43248 10.206678,0.50731 2.406703,0.12272 2.669449,-0.0178 2.669449,-1.42669 z"
           style="fill:#dfc808;stroke-width:0.65181017" />
        <path
           inkscape:connector-curvature="0"
           id="path1451"
           d="m 49.318402,291.06092 -0.16783,-15.28325 -4.65256,-0.20484 c -8.47425,-0.37292 -19.728425,3.12923 -28.253428,8.79203 -2.273972,1.51049 -4.381928,2.74634 -4.68431,2.74634 -0.302406,0 -0.453243,-0.85 -0.335194,-1.8889 2.243659,-19.74687 5.806104,-52.45513 5.806104,-53.30844 0,-1.74848 -1.430494,-1.34716 -4.550492,1.27657 -2.993252,2.51719 -4.181,2.96472 -4.181,1.57548 0,-1.10613 4.240379,-39.53501 4.980353,-45.13525 0.640571,-4.84763 0.697827,-4.91879 5.622172,-6.9875 9.604201,-4.0347 23.889855,-4.9262 33.777065,-2.1079 l 5.39975,1.53914 3.95542,-1.5109 c 6.79212,-2.59452 22.131,-1.77234 25.46011,1.36466 0.97617,0.91983 1.423726,3.32314 2.51102,13.48338 0.72767,6.8002 1.57285,13.04278 1.87813,13.87242 0.38366,1.04272 1.28605,1.63946 2.92253,1.9327 3.7142,0.66557 5.17406,1.54124 5.17406,3.1037 0,1.33263 -0.23672,1.39313 -3.74208,0.95635 l -3.74206,-0.4663 0.0622,2.66455 c 0.12046,5.16055 0.62146,5.9798 4.61643,7.54798 2.03016,0.79697 3.909568,1.87881 4.176428,2.40414 0.64861,1.27681 6.84493,57.41313 6.60958,59.88038 l -0.18457,1.93442 -2.12377,-1.73245 c -3.91635,-3.19469 -7.498978,-4.02626 -15.875788,-3.685 -6.42313,0.2617 -8.46963,0.64351 -13.49612,2.51814 -8.87155,3.30865 -14.42148,7.04401 -20.78787,13.99127 -3.02924,3.30566 -5.61993,6.01026 -5.75707,6.01026 -0.13719,0 -0.32487,-6.87748 -0.4172,-15.28328 z m 6.12817,4.20956 c 3.81748,-4.68243 15.51322,-11.27967 24.26419,-13.68683 6.75266,-1.85744 16.4264,-2.05656 21.087638,-0.43406 2.50782,0.87292 3.05464,0.89068 3.32737,0.10806 0.43592,-1.25116 -5.193428,-51.21316 -5.852048,-51.93854 -0.28342,-0.31216 -1.41867,-0.76654 -2.52278,-1.00971 -1.90609,-0.41986 -2.00747,-0.33749 -2.00747,1.63084 0,2.22154 -1.27371,3.29 -2.41871,2.02896 -0.38481,-0.4238 -0.69965,-1.59821 -0.69965,-2.60976 0,-1.01156 -0.35082,-2.15003 -0.7796,-2.52995 -1.48354,-1.31453 -7.67739,-2.33522 -16.52745,-2.72363 l -8.88739,-0.39004 v -4.6668 c 0,-2.56675 -0.24982,-4.83682 -0.55515,-5.04469 -1.10204,-0.75012 -10.77903,1.18119 -11.14228,2.22377 -0.58086,1.66714 0.59102,2.87499 4.4691,4.60627 2.02734,0.90503 4.76373,2.80449 6.08086,4.221 l 2.3948,2.57547 v 27.98254 c 0,15.39036 -0.23602,28.14316 -0.52447,28.3395 -0.28848,0.19627 -1.11437,-0.52166 -1.8353,-1.59563 -1.46939,-2.18889 -7.10144,-5.5492 -9.30071,-5.5492 -1.43382,0 -1.43674,0.0208 -1.43674,9.9599 0,10.63028 0.33085,11.61191 2.86579,8.50259 z M 20.014677,278.20137 c 6.296852,-3.44083 14.010475,-5.57849 21.963575,-6.08672 l 7.1723,-0.45833 v -24.72799 -24.72802 l -4.36574,-0.22247 c -2.40117,-0.12229 -6.47065,0.14409 -9.04333,0.59235 -5.004628,0.87177 -12.888398,3.68775 -14.216991,5.0781 -0.51453,0.53843 -1.815214,9.80526 -3.581633,25.51771 -1.525538,13.56979 -2.775729,25.21325 -2.778203,25.87435 -0.007,1.62287 0.507223,1.53405 4.850022,-0.839 z m -4.842056,-51.19995 c 2.402064,-1.36805 2.870135,-2.50895 3.378774,-8.23556 0.605638,-6.81832 0.76246,-7.16107 3.969629,-8.67514 6.490095,-3.06394 11.521248,-4.18879 20.704598,-4.62907 l 9.04332,-0.43356 0.31184,-8.31259 c 0.20885,-5.56447 0.59264,-8.68399 1.1612,-9.43598 0.46715,-0.61788 0.70031,-1.5513 0.51809,-2.07424 -0.85819,-2.46306 -17.65191,-3.69311 -25.69088,-1.88174 -5.342207,1.20374 -9.828585,2.82257 -10.914361,3.93825 -0.667137,0.68552 -1.577844,6.52431 -3.17471,20.35402 -1.231545,10.666 -2.127119,19.62457 -1.990142,19.90788 0.344389,0.71238 0.603327,0.66197 2.682642,-0.52227 z m 15.267603,-6.95727 c 3.294148,-0.99507 8.254138,-1.86494 12.005798,-2.1056 6.36957,-0.40852 6.39274,-0.41646 6.40224,-2.19543 0.0141,-2.53906 0.78919,-3.57514 3.05913,-4.08646 2.53115,-0.57014 2.69384,-1.69462 0.32619,-2.25427 -6.07716,-1.43646 -16.56213,-0.22221 -25.099458,2.90684 -4.364698,1.59969 -5.113536,2.71436 -5.113536,7.61182 0,2.57091 0.107017,2.7462 1.403269,2.30083 0.771796,-0.26516 3.929157,-1.24513 7.016367,-2.17773 z m 32.587148,-10.24463 c 0.57504,-0.19444 0.7796,-2.78029 0.7796,-9.85477 v -9.59125 l -1.81137,-1.42055 c -2.25092,-1.76523 -3.90476,-1.80956 -4.857,-0.13031 -0.56689,0.9997 -1.22417,17.45041 -0.86045,21.53562 0.0412,0.46242 4.94572,0.0709 6.74922,-0.53881 z m 25.10302,-1.20672 c 0,-2.55647 -2.39485,-23.0943 -2.77115,-23.76488 -1.22367,-2.18066 -17.35863,-3.32468 -21.24041,-1.50603 l -1.87106,0.87661 2.49473,2.39108 2.4947,2.39106 0.31184,10.08439 0.31186,10.08438 7.48413,0.37699 c 4.11627,0.20745 8.6769,0.43921 10.13473,0.5152 2.38974,0.12459 2.65063,-0.0183 2.65063,-1.4488 z"
           style="fill:#038ed8;stroke-width:0.65452057" />
        <path
           inkscape:connector-curvature="0"
           id="path1445"
           d="m 49.607758,290.47017 c 0,-12.09457 -0.15432,-14.57459 -0.95295,-15.3015 -1.5465,-1.40793 -12.696955,-0.43589 -19.236017,1.67691 -5.32878,1.72176 -11.644588,4.89484 -16.022734,8.04985 l -2.134399,1.53813 0.406994,-4.42528 c 0.223799,-2.43391 1.587856,-15.00166 3.031106,-27.92836 1.927593,-17.26448 2.439351,-23.7058 1.927971,-24.26676 -0.511403,-0.56099 -1.654168,-0.0181 -4.305241,2.04487 -1.984973,1.54472 -3.7029704,2.70554 -3.8177524,2.57965 -0.114853,-0.126 0.772067,-8.98911 1.9707214,-19.69603 1.198679,-10.70689 2.375001,-21.44116 2.614041,-23.85388 0.263549,-2.65999 0.848565,-4.84086 1.486213,-5.54033 1.531398,-1.67991 10.711583,-4.65236 17.199552,-5.56909 6.715288,-0.94881 13.628595,-0.43559 21.138945,1.56931 5.14596,1.37374 5.62865,1.39694 7.60071,0.36532 3.34873,-1.75174 9.62413,-2.73857 14.41636,-2.26705 4.99225,0.49123 11.42958,2.01752 12.19798,2.89218 0.28517,0.32461 1.12552,6.30033 1.8674,13.27942 0.74191,6.97905 1.59015,13.35306 1.88497,14.16448 0.38652,1.06384 1.28875,1.60386 3.2351,1.93633 4.07141,0.69552 4.887478,1.04803 4.887478,2.11133 0,0.78134 -0.754978,0.88557 -3.847458,0.53097 l -3.84746,-0.44112 0.35664,4.31424 c 0.19615,2.37281 0.73662,4.73106 1.20108,5.24053 0.46443,0.50952 2.38705,1.49938 4.27242,2.19972 l 3.427962,1.27339 3.23553,28.06143 c 1.77955,15.43375 3.25674,29.08971 3.28268,30.34653 l 0.0473,2.28511 -2.10075,-1.42423 c -3.90999,-2.65082 -7.320252,-3.54048 -13.602752,-3.54869 -13.79049,-0.0182 -28.34795,6.80107 -37.91356,17.75952 l -3.90793,4.47702 z m 7.60883,3.24593 c 10.37806,-9.17365 26.56331,-14.66752 38.40584,-13.03632 2.40688,0.33152 5.183002,0.93931 6.169232,1.35062 1.22972,0.51288 1.99534,0.52597 2.43687,0.0417 0.94204,-1.03342 -4.836564,-52.02794 -6.046032,-53.35474 -0.49355,-0.54137 -1.84706,-1.03402 -3.00783,-1.09479 -1.86719,-0.0978 -2.13334,0.10703 -2.30839,1.77573 -0.26416,2.5184 -1.98737,2.5184 -2.00016,0 -0.004,-1.03741 -0.25055,-2.30336 -0.54508,-2.8132 -0.90426,-1.56536 -7.45689,-2.85628 -16.79664,-3.30909 l -8.91012,-0.43202 v -4.26954 c 0,-5.71743 -0.41683,-6.03403 -6.63957,-5.04285 -5.63999,0.89837 -6.62886,1.51138 -6.36642,3.9466 0.1562,1.4491 0.85745,2.02371 4.14794,3.39857 2.22215,0.92847 5.03479,2.77617 6.40904,4.21021 l 2.44901,2.5556 v 27.1994 c 0,14.95965 -0.23776,27.1994 -0.52837,27.1994 -0.29058,0 -1.06438,-0.65017 -1.71949,-1.44481 -2.38183,-2.88905 -9.00511,-5.82789 -10.19432,-4.52337 -0.43916,0.48177 -0.68852,4.43182 -0.68852,10.90669 0,8.55098 0.14746,10.15136 0.93475,10.15136 0.51412,0 2.67334,-1.53678 4.79826,-3.41514 z m -37.633166,-15.098 c 6.210243,-3.43892 13.897999,-5.57051 21.583159,-5.9845 3.782893,-0.20376 7.229717,-0.67741 7.659587,-1.05256 1.10509,-0.96444 1.13499,-48.55125 0.0312,-49.76202 -1.03266,-1.13279 -9.302436,-1.0523 -15.012289,0.14622 -2.539764,0.53305 -6.714768,1.85267 -9.277763,2.9325 -4.514646,1.90203 -4.674542,2.04833 -5.124999,4.6895 -0.623349,3.65465 -5.480191,47.58182 -5.477355,49.53914 0.0023,2.06899 1.152051,1.96509 5.618393,-0.50815 z m 42.391796,-25.78459 c 0.096,-12.41784 0.0213,-23.26897 -0.16661,-24.11367 -0.3897,-1.75424 -6.09757,-5.64969 -8.29301,-5.65975 l -1.40686,-0.005 v 24.30907 c 0,18.67775 0.18079,24.43765 0.78063,24.86403 1.3439,0.95529 7.62983,3.48103 8.28582,3.32927 0.39721,-0.0918 0.68898,-8.38024 0.79993,-22.72252 z M 15.453202,227.12819 c 2.312446,-1.49666 2.541255,-2.14439 3.256769,-9.21879 0.533878,-5.27862 1.048189,-6.28505 3.877331,-7.58717 6.18193,-2.84518 11.180212,-3.90288 20.455093,-4.32861 l 9.379073,-0.43049 0.34938,-8.23084 c 0.20253,-4.77203 0.72445,-9.18058 1.24193,-10.4909 0.76984,-1.94934 0.77072,-2.34265 0.007,-2.86088 -3.31376,-2.24662 -18.642819,-3.10967 -25.983229,-1.46293 -6.845289,1.53568 -11.611193,3.52957 -12.219584,5.11228 -0.683329,1.77757 -4.958438,39.66593 -4.558154,40.3966 0.482099,0.87996 1.924946,0.57099 4.195067,-0.89827 z m 8.355064,-4.50481 c 0.769894,-0.22633 1.218836,-0.73285 0.997615,-1.12548 -0.224034,-0.39779 -0.102327,-0.51053 0.275292,-0.25459 0.738604,0.50075 6.393698,-0.95213 6.393698,-1.64263 0,-0.23358 0.884087,-0.28253 1.96465,-0.10858 1.301266,0.20946 1.824343,0.0674 1.549145,-0.42112 -0.28068,-0.4982 0.298998,-0.61024 1.787006,-0.34535 1.432047,0.25483 2.202461,0.1208 2.202461,-0.38357 0,-0.50368 1.547656,-0.77568 4.413808,-0.77568 2.749217,0 4.269747,0.25562 4.031787,0.67808 -0.21481,0.38134 0.0213,0.508 0.54114,0.28943 0.67902,-0.28583 0.82956,-1.05471 0.56925,-2.90724 -0.19473,-1.38523 -0.13092,-2.29192 0.1418,-2.01485 0.27259,0.27707 0.80482,0.0466 1.18272,-0.51223 0.40778,-0.60296 2.26892,-1.19525 4.57801,-1.45689 2.14,-0.2424 3.78407,-0.62934 3.65353,-0.8596 -0.13045,-0.23021 1.02555,-0.41867 2.56911,-0.41867 h 2.80651 l 0.0189,-10.28855 0.0189,-10.28854 -2.58292,-2.02548 -2.58292,-2.02545 -1.35477,1.48613 c -1.28212,1.40641 -1.34612,2.02127 -1.19248,11.45665 0.12808,7.87278 -0.0118,9.98749 -0.66533,10.05134 -2.96823,0.28993 -4.89167,0.1908 -4.89179,-0.25224 -7e-5,-0.28293 -2.83046,-0.51441 -6.289741,-0.51441 -3.459297,0 -6.147189,0.25277 -5.973114,0.5618 0.17417,0.30899 -0.51275,0.42826 -1.526268,0.26509 -1.013544,-0.16332 -1.842803,0.005 -1.842803,0.37193 0,0.36776 -0.745243,0.51237 -1.656104,0.32136 -1.015481,-0.21284 -1.506537,-0.082 -1.26948,0.33901 0.236606,0.41991 -0.248731,0.55301 -1.250529,0.34294 -1.050527,-0.22034 -1.491553,-0.0847 -1.23077,0.37805 0.257782,0.45754 -0.08721,0.57981 -0.942741,0.33436 -0.86454,-0.24809 -1.201443,-0.12494 -0.937919,0.34296 0.263547,0.46777 -0.07326,0.59095 -0.937895,0.34295 -1.005131,-0.28833 -1.219901,-0.15762 -0.842162,0.5129 0.32329,0.57383 0.262413,0.73409 -0.168026,0.44229 -1.188895,-0.80606 -4.010545,1.05912 -3.682718,2.43433 0.162591,0.68246 0.0048,1.24087 -0.353257,1.24087 -0.396289,0 -0.518396,1.06846 -0.313576,2.74376 0.187641,1.53491 0.08933,2.57692 -0.223089,2.36504 -0.307243,-0.20816 -0.391044,0.10026 -0.186223,0.68574 0.402175,1.14962 1.027296,1.27346 3.201588,0.63421 z m 64.371682,-13.0348 c 0.53894,-1.54064 -2.08659,-24.17144 -2.93423,-25.29182 -2.61234,-3.45291 -23.7578,-3.61374 -23.7578,-0.18069 0,0.4061 1.11807,1.78818 2.48458,3.07131 l 2.48456,2.33292 0.17275,10.07913 0.17276,10.07915 7.50325,0.37647 c 4.1268,0.20713 8.8486,0.43852 10.49294,0.5144 2.26667,0.10472 3.0843,-0.13246 3.38103,-0.98085 z"
           style="fill:#bb311f;stroke-width:0.65488625" />
        <path
           style="fill:#000000;fill-opacity:0.9748744;stroke:#000000;stroke-width:3.75944376;stroke-linecap:butt;stroke-linejoin:round;stroke-miterlimit:4;stroke-dasharray:none;stroke-opacity:0.94472363;paint-order:fill markers stroke"
           d="m 49.0204,291.23876 c -0.009,-9.29296 -0.0533,-16.93762 -0.0998,-16.9881 -0.2985,-0.32463 -6.07545,-0.39228 -8.23648,-0.0965 -4.77923,0.65425 -11.61982,2.79599 -17.65482,5.52764 -2.12177,0.96037 -5.41595,2.74509 -9.04258,4.89902 -1.44329,0.85722 -2.98544,1.72757 -2.97492,1.60572 0.0366,-0.42441 -0.2863,1.54691 2.43962,-21.7644 0.56406,-4.82374 1.43363,-12.27861 1.93237,-16.56637 0.49873,-4.28776 1.16431,-9.98854 1.47906,-12.66839 0.31475,-2.67986 0.5336,-4.95676 0.48634,-5.0598 -3.21189,1.56798 -5.87834,3.93765 -8.8492006,5.89508 -0.21034,0 0.26738,-4.38131 3.9162006,-35.91699 1.67172,-14.4482 1.58445,-14.0647 3.46887,-15.24223 2.77886,-1.73644 10.08144,-4.2289 15.22512,-5.19654 4.05883,-0.76355 9.43268,-1.05376 13.32164,-0.71942 3.81909,0.32832 5.70765,0.77836 9.95883,2.37322 4.84637,1.81814 4.2636,1.77743 6.83606,0.47755 4.031792,-2.03726 5.422702,-2.34722 11.220792,-2.50063 5.80373,-0.15354 7.59705,0.0593 11.73043,1.39198 4.32094,1.39318 5.04305,2.31197 5.41277,6.8869 0.0928,1.1485 0.38793,4.2808 0.65579,6.96064 0.26788,2.67985 0.55195,5.68686 0.63126,6.68224 0.38079,4.77842 0.94021,9.08192 1.22017,9.38658 0.17069,0.18577 1.8965,0.67506 3.83514,1.08733 2.84425,0.80891 3.50452,0.70832 3.40737,1.07572 -0.28109,1.04279 -0.59032,2.65037 -0.67615,2.95767 -0.58527,-0.18934 -5.39769,-1.14083 -5.83931,-1.14195 -0.28564,-7.9e-4 -0.31888,0.50668 -0.17777,2.71376 0.0955,1.49307 0.17303,2.9525 0.17237,3.24317 -0.003,1.48861 0.66176,2.06699 4.97,4.32186 3.183968,1.66643 4.273458,2.36875 4.447678,2.86702 0.23156,0.66239 1.29404,9.22981 1.82252,14.69593 0.15544,1.6079 0.56198,5.11608 0.9034,7.79592 0.60775,4.77018 1.21029,10.59219 1.52723,14.7566 0.0874,1.1485 0.32281,3.52906 0.5231,5.29009 0.4335,3.81104 1.09414,10.38593 1.25897,12.52919 0.0648,0.84224 0.31003,3.50898 0.54503,5.9261 0.39247,4.03642 0.86286,5.73647 0.39532,4.99486 -0.16663,-0.26428 -3.50901,-3.41636 -6.52383,-6.11799 -3.416608,-3.06169 -7.658398,-4.52454 -13.119638,-4.52454 -7.36466,0 -11.91539,1.10251 -19.12509,4.63347 -7.767082,3.80397 -15.087722,10.50238 -19.787972,18.10612 -0.78834,1.27532 -1.47547,2.31876 -1.52697,2.31876 -0.0515,0 -0.10052,-7.60334 -0.10897,-16.89632 z m 6.31042,3.27947 c 6.74595,-6.88566 13.957462,-10.97897 24.602362,-13.96454 5.49668,-1.39557 12.71755,-1.59257 16.88343,-0.10761 2.78496,1.0349 6.281458,3.11408 7.674338,4.56354 0.45,0.46826 0.88201,0.85138 0.96007,0.85138 0.30913,0 0.10672,-2.95582 -0.62961,-9.19464 -1.10597,-9.37045 -2.44732,-21.29664 -3.31862,-29.50663 -1.583238,-14.91788 -1.826328,-16.85006 -2.197588,-17.46628 -0.35267,-0.58537 -4.77224,-3.13725 -5.43337,-3.13725 -0.22267,0 -0.26203,0.55193 -0.14591,2.04594 l 0.15902,2.04592 -0.83433,0.18147 c -0.45885,0.0999 -1.15045,0.18149 -1.53684,0.18149 -0.61293,0 -0.72277,-0.13318 -0.86122,-1.04411 -0.0873,-0.57425 -0.15995,-1.64492 -0.1615,-2.37927 -0.003,-1.98317 -0.59898,-2.49473 -3.59691,-3.09353 -6.33417,-1.26516 -13.32639,-1.29074 -18.62479,-0.0682 -1.58953,0.36679 -3.69926,0.55092 -3.76622,0.62375 0.68154,1.06668 1.92531,2.09253 1.9848,3.52006 l 0.12752,27.87564 0.1275,27.87564 c -3.8935,-4.23973 -9.244052,-7.95945 -13.440302,-9.1465 l -0.70403,-0.18281 v 11.00313 c 0,6.05173 0.0681,11.00315 0.15135,11.00315 0.0832,0 1.24463,-1.11591 2.58085,-2.47981 z m -38.77524,-15.6467 c 1.38151,-0.59773 6.09062,-2.55473 10.42429,-4.33211 7.20493,-2.95495 10.53708,-3.71242 17.23439,-3.91773 l 4.80021,-0.14717 v -24.63374 -24.63374 l -4.92821,0.1212 c -4.11708,0.10122 -5.47601,0.24762 -8.25636,0.88942 -5.49898,1.26934 -13.46426,4.44925 -14.60443,5.83044 -0.42907,0.51977 -0.63012,1.56273 -1.11153,5.76629 -0.32325,2.82248 -0.91684,7.88821 -1.31909,11.25715 -0.40226,3.36896 -0.79376,6.81449 -0.87002,7.65672 -0.15805,1.74578 -0.36638,3.55353 -1.26744,10.99784 -0.35217,2.90957 -0.71215,6.04185 -0.79995,6.96065 -0.0878,0.91882 -0.32242,2.92349 -0.52136,4.45484 -0.37384,2.87766 -0.458,4.31559 -0.25256,4.31559 0.0652,0 0.72762,-0.26354 1.47206,-0.58565 z m 46.869562,-26.21288 c -0.11245,-18.19814 -0.21464,-23.3328 -0.47554,-23.89481 -2.290232,-2.93274 -7.044322,-6.37527 -10.334742,-6.49458 -0.0793,0.0863 -0.1749,11.02977 -0.21237,24.31893 -0.0581,20.62365 -0.26325,24.16316 0.0478,24.44388 1.36665,-0.4959 10.540532,4.50483 10.817402,4.77172 0.22908,0.0257 0.26656,-5.48501 0.15743,-23.14514 z M 15.19051,227.24366 c 1.84938,-1.12345 2.60687,-1.74471 2.80061,-2.29702 0.14607,-0.41638 0.45291,-2.5738 0.68186,-4.79424 0.65481,-6.35047 0.84677,-7.54866 1.29581,-8.08828 0.65006,-0.78122 6.31101,-3.69081 9.6273,-4.94824 6.96411,-2.64053 12.76837,-3.32015 19.65154,-2.30096 2.16993,0.3213 4.0132,0.51063 4.09618,0.42071 0.083,-0.0898 0.21066,-3.75541 0.28377,-8.14561 0.0858,-5.15581 0.23841,-8.24232 0.43086,-8.7169 0.16388,-0.4041 0.6638,-1.18788 1.11093,-1.74173 l 0.81297,-1.00698 -1.37186,-0.6823 c -0.7545,-0.37524 -2.81189,-1.078 -4.57197,-1.56168 -2.85261,-0.78391 -3.71666,-0.89458 -7.95656,-1.01918 -6.637,-0.19506 -12.33321,0.71804 -18.90153,3.02986 -4.25118,1.49628 -5.88049,2.33788 -6.02166,3.11038 -0.34619,1.89444 -0.68037,4.37272 -1.03914,7.70624 -0.2225,2.06731 -0.51054,4.51051 -0.64008,5.42932 -0.29471,2.09017 -1.21555,9.78625 -1.41584,11.83311 -0.0824,0.84223 -0.42611,3.78659 -0.76375,6.54303 -0.7581,6.1888 -0.99229,8.77041 -0.79559,8.77041 0.0831,0 1.29189,-0.69297 2.68615,-1.53994 z m 49.333642,-13.70423 c -0.0646,-0.0703 -1.53593,0.13041 -3.269452,0.4461 -1.73351,0.3157 -3.72787,0.6483 -4.4319,0.73913 -4.00263,0.51632 -4.30272,0.40117 -4.43756,2.21703 0.1575,0.91311 -0.38101,1.34913 1.22285,1.86861 0.93504,0.30284 2.53514,0.76704 2.64326,0.76663 2.98812,1.35664 5.71785,3.25227 8.251782,5.47286 l 0.0693,-5.69124 c 0.0381,-3.13017 0.0164,-5.74877 -0.0483,-5.81912 z m -39.062712,8.36172 c 3.3849,-1.41639 8.31101,-2.92623 11.64851,-3.57023 1.26725,-0.24452 4.4642,-0.51703 7.10431,-0.60554 l 4.80021,-0.16094 v -1.99393 c 0,-1.16016 0.13381,-2.18942 0.32001,-2.46145 0.36441,-0.53239 4.09106,-1.41852 10.63123,-2.52788 2.29182,-0.38875 4.279112,-0.7822 4.416192,-0.87432 0.39753,-0.26722 0.32985,-18.01651 -0.0707,-18.56033 -0.35664,-0.48408 -2.964592,-2.41538 -4.174222,-3.0912 -0.72863,-0.40706 -0.83651,-0.39946 -1.57791,0.11106 -1.75893,1.21118 -1.72805,1.00952 -1.81225,11.83316 l -0.0761,9.77798 -1.07599,-0.22138 c -10.49907,-2.16005 -16.2475,-2.10973 -23.08548,0.20207 -2.62156,0.88631 -8.86592,3.85524 -9.53561,4.53376 -0.51019,0.51695 -0.76999,2.04099 -1.25605,7.36852 -0.16631,1.82274 -0.14962,1.91363 0.31204,1.69916 0.26826,-0.12461 1.8126,-0.78093 3.43187,-1.45851 z m 64.128382,-0.9093 c 0.18721,-0.32942 -0.29638,-4.5058 -0.66968,-5.78367 -0.14573,-0.49885 -0.46948,-1.02603 -0.71943,-1.17152 -0.91985,-0.53539 -6.45688,-0.96441 -12.57236,-0.97413 -8.1407,-0.013 -7.66908,-0.27892 -7.66908,4.32463 v 3.34732 l 0.83204,-0.16192 c 3.88852,-0.7567 12.04157,-0.76387 16.70471,-0.0146 1.54887,0.24884 2.93133,0.50009 3.07214,0.55833 0.47818,0.19782 0.86536,0.15065 1.02166,-0.12438 z m -1.04094,-12.18533 c -0.17614,-1.89128 -1.0743,-10.67963 -1.75898,-17.21146 -0.32211,-3.07293 -0.71223,-5.84433 -0.86691,-6.15868 -0.40386,-0.82071 -1.69629,-1.40368 -4.50556,-2.03231 -3.80619,-0.85174 -7.50156,-1.15007 -10.31503,-0.83279 -2.57276,0.29012 -8.775372,1.89081 -8.775372,2.26462 0,0.12049 1.028762,1.0057 2.286132,1.96711 1.25737,0.9614 2.46702,2.08056 2.68811,2.48702 0.34444,0.63322 0.40199,2.11581 0.40199,10.35496 0,7.38696 0.0742,9.66812 0.32002,9.84115 0.176,0.12389 4.40979,0.29104 9.4084,0.37141 4.99862,0.0804 9.57259,0.17435 10.16437,0.20883 l 1.076,0.0627 z"
           id="path826"
           inkscape:connector-curvature="0"
           sodipodi:nodetypes="cccccsscsccscscccccccccccccccccsscccccsscssccccccssscssccsccccccccccssccsssccccccccsccssscccsccsccsccccccccccsscsccsscccccccccccccccscccccscccscscccccccscscccccscssscsccsccc" />
        <path
           style="opacity:0.98999999;vector-effect:none;fill:#ffffff;fill-opacity:1;stroke:#ffffff;stroke-width:0.00093637;stroke-linecap:butt;stroke-linejoin:miter;stroke-miterlimit:4;stroke-dasharray:none;stroke-dashoffset:0;stroke-opacity:1"
           d="m 18.909319,189.25696 c 19.951067,-9.91934 34.125637,-2.81535 34.143681,-2.80633 l -1.403164,16.80457 c -9.815371,0.76373 -25.26749,1.85658 -32.205978,8.18513 -2.184236,3.51431 -2.086087,8.55021 -3.0736,12.86234 l -1.670434,1.06908 z"
           id="path1604"
           inkscape:connector-curvature="0"
           sodipodi:nodetypes="ccccccc" />
        <path
           style="opacity:0.98999999;vector-effect:none;fill:#ffffff;fill-opacity:1;stroke:#ffffff;stroke-width:0.00093637;stroke-linecap:butt;stroke-linejoin:miter;stroke-miterlimit:4;stroke-dasharray:none;stroke-dashoffset:0;stroke-opacity:1"
           d="m 54.071966,216.93606 8.719669,-1.31964 0.05013,5.66277 z"
           id="path1606"
           inkscape:connector-curvature="0"
           sodipodi:nodetypes="cccc" />
        <path
           style="opacity:0.98999999;vector-effect:none;fill:#ffffff;fill-opacity:1;stroke:#ffffff;stroke-width:0.00093637;stroke-linecap:butt;stroke-linejoin:miter;stroke-miterlimit:4;stroke-dasharray:none;stroke-dashoffset:0;stroke-opacity:1"
           d="m 22.654948,229.17688 c 14.932633,-7.98838 24.33623,-5.96758 24.521204,-5.9295 l -0.07087,45.38077 c -11.530095,0.54977 -20.915546,4.14718 -30.090447,8.0438 1.758027,-15.76807 3.367612,-31.32685 5.640113,-47.49507 z"
           id="path1608"
           inkscape:connector-curvature="0"
           sodipodi:nodetypes="ccccc" />
        <path
           style="opacity:0.98999999;vector-effect:none;fill:#ffffff;fill-opacity:1;stroke:#ffffff;stroke-width:0.00093637;stroke-linecap:butt;stroke-linejoin:miter;stroke-miterlimit:4;stroke-dasharray:none;stroke-dashoffset:0;stroke-opacity:1"
           d="m 54.46595,277.56481 -0.002,15.17085 c 3.171498,-2.60365 5.742017,-5.27825 10.215299,-7.96326 -2.735788,-3.36316 -6.053585,-5.98028 -10.213274,-7.20759 z"
           id="path1610"
           inkscape:connector-curvature="0"
           sodipodi:nodetypes="cccc" />
        <path
           style="opacity:0.98999999;vector-effect:none;fill:#ffffff;fill-opacity:1;stroke:#ffffff;stroke-width:0.00093637;stroke-linecap:butt;stroke-linejoin:miter;stroke-miterlimit:4;stroke-dasharray:none;stroke-dashoffset:0;stroke-opacity:1"
           d="m 68.621449,282.69271 -0.827876,-56.28264 c 5.90487,-1.03841 11.844706,-2.39549 20.9065,0.41496 0.465396,1.96545 -0.663987,4.02314 2.012872,5.5542 1.8931,0.57983 3.745152,0.55201 4.541801,-1.20868 l 0.444092,-1.75911 2.021572,1.37252 c 2.50377,17.0607 3.90882,34.12141 5.86323,51.18211 -8.599161,-0.089 -8.819995,-10.34355 -34.962191,0.72664 z"
           id="path1612"
           inkscape:connector-curvature="0"
           sodipodi:nodetypes="ccccccccc" />
        <path
           style="opacity:0.98999999;vector-effect:none;fill:#ffffff;fill-opacity:1;stroke:#ffffff;stroke-width:0.00093637;stroke-linecap:butt;stroke-linejoin:miter;stroke-miterlimit:4;stroke-dasharray:none;stroke-dashoffset:0;stroke-opacity:1"
           d="m 66.182615,185.54859 c 4.437783,-1.54591 9.158434,-3.00923 18.14092,0.60136 l 2.403746,22.16583 c -4.936333,-0.0776 -10.799927,-0.31477 -17.07016,-0.45018 l -0.100227,-16.16981 c -0.02022,-1.63486 -0.532038,-3.45408 -3.374279,-6.1472 z"
           id="path1614"
           inkscape:connector-curvature="0"
           sodipodi:nodetypes="cccccc" />
      </g>
    </g>
  </g>
</svg>
