<?xml version="1.0" encoding="UTF-8" standalone="no"?>
<!-- Created with Inkscape (http://www.inkscape.org/) -->

<svg
   width="1000"
   height="300"
   viewBox="0 0 264.58333 79.375"
   version="1.1"
   id="svg811"
   inkscape:version="1.2.1 (9c6d41e410, 2022-07-14)"
   sodipodi:docname="banner.svg"
   xmlns:inkscape="http://www.inkscape.org/namespaces/inkscape"
   xmlns:sodipodi="http://sodipodi.sourceforge.net/DTD/sodipodi-0.dtd"
   xmlns:xlink="http://www.w3.org/1999/xlink"
   xmlns="http://www.w3.org/2000/svg"
   xmlns:svg="http://www.w3.org/2000/svg">
  <sodipodi:namedview
     id="namedview813"
     pagecolor="#505050"
     bordercolor="#eeeeee"
     borderopacity="1"
     inkscape:showpageshadow="0"
     inkscape:pageopacity="0"
     inkscape:pagecheckerboard="0"
     inkscape:deskcolor="#505050"
     inkscape:document-units="mm"
     showgrid="false"
     inkscape:zoom="2"
     inkscape:cx="495"
     inkscape:cy="132"
     inkscape:window-width="2544"
     inkscape:window-height="1361"
     inkscape:window-x="0"
     inkscape:window-y="0"
     inkscape:window-maximized="1"
     inkscape:current-layer="layer1" />
  <defs
     id="defs808">
    <linearGradient
       inkscape:collect="always"
       xlink:href="#linearGradient5431"
       id="linearGradient5433"
       x1="28.810715"
       y1="485.6218"
       x2="454.17017"
       y2="80.441177"
       gradientUnits="userSpaceOnUse"
       gradientTransform="matrix(0.51679654,0,0,0.15508074,-1.636411,-1.4699455)" />
    <linearGradient
       inkscape:collect="always"
       id="linearGradient5431">
      <stop
         style="stop-color:#ed2c32;stop-opacity:1;"
         offset="0"
         id="stop5427" />
      <stop
         style="stop-color:#11b1ee;stop-opacity:1;"
         offset="1"
         id="stop5429" />
    </linearGradient>
    <filter
       y="-0.47165443"
       height="1.9433089"
       inkscape:menu-tooltip="Darkens the edge with an inner blur and adds a flexible glow"
       inkscape:menu="Shadows and Glows"
       inkscape:label="Dark and Glow"
       style="color-interpolation-filters:sRGB;"
       id="filter13965"
       x="-0.077363911"
       width="1.1547278">
      <feGaussianBlur
         stdDeviation="5"
         result="result6"
         id="feGaussianBlur13955" />
      <feComposite
         result="result8"
         in="SourceGraphic"
         operator="atop"
         in2="result6"
         id="feComposite13957" />
      <feComposite
         result="result9"
         operator="over"
         in2="SourceAlpha"
         in="result8"
         id="feComposite13959" />
      <feColorMatrix
         values="1 0 0 0 0 0 1 0 0 0 0 0 1 0 0 0 0 0 1 0 "
         result="result10"
         id="feColorMatrix13961" />
      <feBlend
         in="result10"
         mode="normal"
         in2="result6"
         id="feBlend13963" />
    </filter>
    <filter
       y="-0.54513212"
       height="2.0902642"
       inkscape:menu-tooltip="Darkens the edge with an inner blur and adds a flexible glow"
       inkscape:menu="Shadows and Glows"
       inkscape:label="Dark and Glow"
       style="color-interpolation-filters:sRGB;"
       id="filter13985"
       x="-0.1242927"
       width="1.2485854">
      <feGaussianBlur
         stdDeviation="5"
         result="result6"
         id="feGaussianBlur13975" />
      <feComposite
         result="result8"
         in="SourceGraphic"
         operator="atop"
         in2="result6"
         id="feComposite13977" />
      <feComposite
         result="result9"
         operator="over"
         in2="SourceAlpha"
         in="result8"
         id="feComposite13979" />
      <feColorMatrix
         values="1 0 0 0 0 0 1 0 0 0 0 0 1 0 0 0 0 0 1 0 "
         result="result10"
         id="feColorMatrix13981" />
      <feBlend
         in="result10"
         mode="normal"
         in2="result6"
         id="feBlend13983" />
    </filter>
  </defs>
  <g
     inkscape:label="Warstwa 1"
     inkscape:groupmode="layer"
     id="layer1">
    <rect
       style="fill:url(#linearGradient5433);fill-opacity:1;fill-rule:evenodd;stroke:#084d83;stroke-width:0;stroke-linecap:round;stroke-linejoin:round;paint-order:stroke fill markers"
       id="rect3089"
       width="264.57645"
       height="79.373604"
       x="-0.0070330678"
       y="0.00038656584" />
    <text
       xml:space="preserve"
       style="font-style:normal;font-variant:normal;font-weight:bold;font-stretch:normal;font-size:11.3935px;line-height:1.25;font-family:Alegreya;-inkscape-font-specification:'Alegreya Bold';text-align:center;letter-spacing:0px;word-spacing:0px;writing-mode:lr-tb;text-anchor:middle;fill:#000000;fill-opacity:0.30000001;stroke-width:0.427257;filter:url(#filter13965)"
       x="141.31349"
       y="18.546606"
       id="text7063"
       transform="scale(0.96301513,1.0384053)"><tspan
         sodipodi:role="line"
         id="tspan7061"
         style="font-style:normal;font-variant:normal;font-weight:bold;font-stretch:normal;font-family:Alegreya;-inkscape-font-specification:'Alegreya Bold';text-align:center;text-anchor:middle;fill:#000000;fill-opacity:0.30000001;stroke-width:0.427257"
         x="141.31349"
         y="18.546606">Kościół Chrześcijan Baptystów</tspan><tspan
         sodipodi:role="line"
         style="font-style:normal;font-variant:normal;font-weight:bold;font-stretch:normal;font-family:Alegreya;-inkscape-font-specification:'Alegreya Bold';text-align:center;text-anchor:middle;fill:#000000;fill-opacity:0.30000001;stroke-width:0.427257"
         x="141.31349"
         y="32.788479"
         id="tspan7065">w Nowym Dworze Mazowieckim</tspan></text>
    <g
       id="g7142"
       transform="matrix(0.20183468,0,0,0.20822307,33.159786,-47.119073)"
       style="fill:#ffffff;fill-opacity:1;stroke:#797979;stroke-opacity:1">
      <path
         style="opacity:1;fill:#ffffff;fill-opacity:1;stroke:#797979;stroke-width:0;stroke-linejoin:round;stroke-miterlimit:4;stroke-dasharray:none;stroke-opacity:1;paint-order:fill markers stroke"
         d="m -38.073142,529.57293 c -0.0094,-0.13882 -0.08886,-13.24541 -0.177329,-29.12578 -0.08845,-15.88038 -0.221896,-29.06875 -0.29659,-29.30747 -0.189111,-0.60447 -0.568198,-0.64792 -6.991021,-0.80105 -8.351511,-0.19911 -14.22096,0.31782 -22.050642,1.94213 -9.121686,1.8923 -19.33089,5.39367 -27.071116,9.28432 -6.13388,3.08324 -13.32651,7.56375 -17.61488,10.97286 -0.91713,0.72908 -1.69003,1.30255 -1.71752,1.27436 -0.0275,-0.0283 0.34442,-3.27164 0.82649,-7.20763 0.48207,-3.93599 1.67791,-13.92548 2.65742,-22.1988 0.97952,-8.27335 2.75076,-23.08357 3.93609,-32.91163 2.35285,-19.50848 4.81555,-40.16358 5.02369,-42.13475 0.24874,-2.35563 -0.13637,-2.55349 -2.45132,-1.25947 -3.8285,2.14008 -10.37114,7.11635 -14.28566,10.86555 -1.70943,1.63722 -1.77417,1.67773 -1.83545,1.14879 -0.0349,-0.30157 0.0742,-0.76382 0.24247,-1.02724 0.45044,-0.70503 0.63813,-1.77867 1.09413,-6.259 0.5139,-5.04911 1.49296,-13.42875 1.87105,-16.01406 0.15733,-1.07586 0.86792,-6.90799 1.57909,-12.9603 1.58712,-13.50708 4.58167,-38.66228 5.52833,-46.43973 1.15583,-9.49584 1.44576,-11.36992 1.81757,-11.74836 0.67864,-0.69077 5.64352,-3.01588 9.587769,-4.49008 1.08284,-0.40473 2.163471,-0.8195 2.401378,-0.92173 0.902,-0.38756 6.372558,-2.02502 9.017708,-2.6992 9.780288,-2.05037 19.220142,-3.7661 27.169542,-3.90686 11.806343,0.24915 23.337405,2.16709 33.66627,5.60329 2.9984,1.00845 4.48386,1.41539 4.90859,1.34471 0.33496,-0.0558 1.98123,-0.73852 3.65838,-1.51728 5.52148,-2.5638 9.3250799,-3.68768 15.1033299,-4.46266 3.44684004,-0.46713 6.93175,-0.57048 9.16974,-0.76112 3.7732901,0.0272 9.4788701,0.54107 12.5646901,1.10566 7.87159,0.88082 14.45426,2.88634 17.89436,4.6862 1.1046,0.57792 0.8305,-1.02944 2.96096,17.36361 1.26984,10.96291 3.70412,30.84859 4.01228,32.77622 0.15674,0.98052 0.4204,1.99471 0.58589,2.25374 0.36001,0.56346 1.45606,0.56992 6.63813,1.71422 7.05011,1.5568 9.30647,2.39512 9.30647,2.39512 0.14958,0.54783 0.56519,5.2963 0.47193,5.39194 -0.0473,0.0485 -2.69287,-0.41706 -5.87907,-1.03456 -3.1862,-0.61749 -6.60244,-1.17469 -7.59163,-1.23819 -1.78431,-0.11457 -1.80126,-0.11122 -2.14241,0.42274 -0.3286,0.51434 -0.32538,0.67455 0.0727,3.61221 0.22909,1.69071 0.64642,4.92683 0.9274,7.1914 0.28097,2.26456 0.58907,4.32833 0.68464,4.58615 0.25739,0.69428 1.47394,1.23851 7.57201,3.38745 5.85397,2.06292 8.22391,3.13179 8.81579,3.97603 0.27022,0.38544 0.45951,1.37706 0.73229,3.83632 0.90624,8.16993 2.24412,19.57319 2.95939,25.22396 0.42873,3.38707 1.0913,8.88412 1.47237,12.21567 0.69511,6.0772 1.64112,14.0382 5.12257,43.10818 1.03073,8.60648 2.18305,18.2377 2.56072,21.40266 0.37765,3.16496 0.87009,6.69367 1.0943,7.84156 0.22421,1.14787 0.37459,2.12093 0.33419,2.16237 -0.0404,0.0414 -0.46784,-0.43148 -0.94982,-1.05097 -1.327,-1.70549 -4.05465,-4.2813 -5.80889,-5.48553 -4.97761,-3.41697 -12.1817,-5.82741 -19.47475,-6.51615 -2.87721,-0.27171 -13.38916,-0.13424 -16.84157,0.22024 -11.90441,1.22235 -27.5594101,6.4544 -39.6165101,13.24029 -8.7819799,4.94259 -15.1851899,9.72138 -21.4864899,16.03564 -4.766219,4.77602 -7.71894,8.47255 -10.203534,12.77393 -0.753726,1.30486 -1.408422,2.37248 -1.454884,2.37248 -0.04646,0 -0.09188,-0.11358 -0.101051,-0.2524 z M -31.01,511.04466 c 0.356387,-0.22283 1.596731,-1.33855 2.756327,-2.47938 8.29479,-8.16059 20.7524199,-16.00015 34.3968199,-21.6459 4.8026301,-1.98725 8.9380401,-3.33632 14.5859701,-4.75833 5.4435,-1.37053 7.87283,-1.82587 12.80309,-2.3997 12.05645,-1.40329 22.43482,-0.55763 31.28141,2.54887 1.40769,0.49432 2.96971,1.04324 3.47115,1.2198 1.08867,0.38339 1.48895,0.26688 1.68032,-0.48913 0.0857,-0.3388 -0.22552,-3.58658 -0.77973,-8.13561 -1.67668,-13.7622 -3.65567,-30.24256 -4.86134,-40.48331 -0.6537,-5.55259 -1.45092,-12.23082 -1.77159,-14.84053 -0.32066,-2.60971 -0.8931,-7.42531 -1.27208,-10.70133 -1.72044,-14.87202 -2.48928,-21.02256 -2.71744,-21.73931 -0.21651,-0.68009 -0.42094,-0.86258 -1.68717,-1.50606 -1.73694,-0.88269 -6.68982,-2.59934 -7.4996,-2.59934 -0.73626,0 -1.19895,0.4704 -1.19895,1.21894 0,0.32141 0.13744,1.5949 0.30541,2.82999 0.20896,1.37765 0.27408,2.74176 0.1868,4.12438 -1.93941,0.58317 -3.48416,0.79873 -5.41422,0.97196 l -0.001,-0.68583 c -0.003,-1.79066 -1.41786,-10.14331 -1.79803,-10.61309 -0.27224,-0.3363 -3.66303,-1.10982 -9.52163,-2.17209 -10.30796,-1.86903 -14.00608,-2.13545 -29.6414901,-2.13545 h -11.18945 l -0.0601,-9.27805 c -0.0443,-6.83237 -0.12189,-9.34134 -0.29441,-9.51812 -0.18102,-0.18549 -1.0539099,-0.16287 -3.8391799,0.0995 -6.46028,0.60844 -16.065613,1.95019 -18.307737,2.55737 -1.03447,0.28015 -1.219675,0.99576 -1.104466,4.26766 0.06751,1.91743 0.167713,2.68304 0.379608,2.90035 0.158327,0.16238 1.990173,0.88676 4.070745,1.60973 9.02733,3.13693 13.14587,5.60016 18.2969999,10.9432 l 2.60868,2.70586 -2.8e-4,53.03826 -2.7e-4,53.03824 -0.97292,-1.65894 c -1.50234,-2.56175 -2.4740299,-3.8371 -4.4470799,-5.83699 -2.19448,-2.2243 -5.39839,-4.4653 -8.65037,-6.05058 -2.68155,-1.30721 -8.373011,-3.2994 -9.885297,-3.46018 l -1.019823,-0.10845 -0.155483,0.78399 c -0.08553,0.43116 -0.158181,9.14309 -0.161484,19.35984 -0.0073,21.00284 -0.08032,20.02184 1.429518,19.07781 z m -72.34154,-31.46959 c 9.690074,-5.62221 21.197397,-10.06213 33.258137,-12.83214 2.494637,-0.57295 10.698905,-1.80791 14.120638,-2.12553 1.245271,-0.11559 5.686327,-0.21045 9.869006,-0.21084 h 7.604869 l 0.150639,-35.48602 c 0.145961,-34.38267 0.0548,-53.71438 -0.260118,-55.17242 -0.283276,-1.3115 -0.294569,-1.31301 -9.784487,-1.30758 -10.520139,0.006 -14.000992,0.3452 -21.813599,2.12554 -10.411577,2.37258 -23.827848,7.41564 -24.681729,9.27765 -0.293829,0.6407 -0.57972,2.75308 -1.940231,14.33573 -0.606556,5.16389 -2.031313,17.11203 -3.166126,26.55141 -4.838659,40.24799 -6.379709,53.40665 -6.379709,54.47479 0,0.748 0.29159,1.75766 0.5076,1.75766 0.0679,0 1.19978,-0.6244 2.51511,-1.38758 z m 90.298807,-50.97976 v -43.88705 c -5.59734,-5.57257 -12.02548,-9.36156 -19.487333,-11.0019 0.465298,30.85185 0.365847,63.3773 -0.01884,91.31327 4.621843,0.40788 13.100003,4.12942 19.372543,7.96342 z m -93.385207,-45.74732 c 2.688,-1.65779 5.13814,-3.28327 5.44475,-3.61216 0.7042,-0.75539 0.79174,-1.17463 1.514488,-7.25232 1.127719,-9.48329 2.202329,-17.72094 2.329132,-17.85449 0.337667,-0.35565 8.36022,-3.89426 11.054042,-4.87575 10.244384,-3.73254 21.015057,-6.19105 29.924286,-6.8305 4.84625,-0.34784 15.666177,-0.1177 19.959115,0.42454 2.592188,0.32741 3.575872,0.38495 3.738012,0.21868 0.349918,-0.35887 0.488202,-5.2348 0.505141,-17.81103 l 0.01573,-11.64356 1.279765,-2.22454 c 0.703867,-1.2235 1.725565,-2.79423 2.270449,-3.49053 2.003447,-2.56012 1.774527,-2.94207 -2.5658,-4.2811 -6.555585,-2.02244 -12.928892,-2.99267 -22.296497,-3.39427 -10.41789,-0.44663 -20.022101,0.28154 -28.695631,2.17562 -8.606181,1.87938 -20.475792,6.00169 -20.952962,7.27696 -0.1961,0.52409 -0.87628,5.7459 -1.98139,15.21123 -0.6029,5.1639 -1.57736,13.29589 -2.16546,18.07111 -0.5881,4.77522 -1.38464,11.49888 -1.77008,14.94148 -0.88916,7.94169 -3.02716,25.1917 -3.25041,26.22528 -0.19218,0.88977 0.0376,1.73952 0.47038,1.73952 0.15715,0 2.48499,-1.35638 5.173,-3.01417 z m 15.529124,-7.99929 c 5.688973,-2.54046 18.430672,-6.22587 24.759611,-7.16149 8.114301,-1.19954 12.726405,-1.49174 21.054101,-1.3339 l 6.644729,0.12594 0.01427,-1.36322 c 0.03011,-2.88361 0.334448,-8.84972 0.467845,-9.17292 0.313508,-0.7596 9.773347,-2.42969 20.387277,-3.5993 5.77057,-0.63589 7.9342899,-0.98264 8.2682799,-1.32505 0.258,-0.2645 0.30352,-2.55666 0.35431,-17.84099 l 0.0582,-17.53749 -2.0270799,-1.67299 c -3.667,-3.02645 -8.18586,-5.84121 -9.37757,-5.84121 -0.9499,0 -4.08282,3.69342 -5.40189,6.36835 l -0.50184,1.01767 -0.0669,17.59194 c -0.0368,9.67557 -0.13267,17.65942 -0.21314,17.74191 -0.0804,0.0825 -0.92212,-0.0933 -1.870361,-0.39049 -5.492528,-1.72178 -16.251647,-2.96748 -22.088374,-2.55742 -7.205749,0.50624 -12.680036,1.19726 -16.914646,2.13512 -8.459668,1.87361 -16.881571,4.60214 -23.453032,7.59829 l -1.0771,0.49108 -0.635298,5.03617 c -0.349418,2.76989 -0.771113,6.03563 -0.937097,7.2572 -0.491587,3.61785 -0.384192,5.35067 0.331593,5.35067 0.09272,0 1.093497,-0.41305 2.223987,-0.91787 z m 131.213473,-1.40746 c 0.28411,-0.35108 0.20613,-1.75032 -0.41054,-7.36644 -0.5871,-5.34682 -0.89769,-7.11882 -1.30075,-7.42108 -0.19057,-0.14291 -0.66676,-0.34828 -1.05819,-0.45638 -4.47922,-1.23695 -37.05890006,-1.68368 -39.3521401,-0.53961 -0.26418,0.1318 -0.5654,0.51221 -0.66939,0.84536 -0.10397,0.33316 -0.19776,2.69553 -0.20836,5.24972 -0.0215,5.17363 0.0779,5.68798 1.1595,5.99941 0.32485,0.0935 4.53318,0.30254 9.35183,0.46447 4.8186701,0.16192 10.0458501,0.39168 11.6159701,0.51055 4.0687,0.30807 12.35194,1.49826 16.04579,2.30558 3.5491,0.77567 4.46628,0.85328 4.82628,0.40842 z m -2.55784,-21.80847 c 0.42847,-0.52948 0.0949,-5.67366 -0.88352,-13.62373 -0.49884,-4.05338 -1.52439,-12.59425 -2.27902,-18.97972 -1.46427,-12.39051 -1.66482,-13.7882 -2.07585,-14.46795 -0.42957,-0.71038 -4.73866,-1.99474 -11.01257,-3.28239 -4.9133,-1.0084 -6.55669,-1.12842 -15.4511601,-1.12842 -9.04444,0 -9.63573,0.0583 -14.52147,1.43154 -2.3526599,0.66127 -5.1805199,1.83686 -5.4352199,2.25952 -0.25961,0.43078 0.17033,0.89794 2.21039,2.40176 2.9014099,2.13877 5.5555099,4.33835 7.3594799,6.09916 l 1.52719,1.49065 v 18.44816 18.44814 l 8.02289,0.003 c 11.1772701,0.004 23.2335801,0.34827 27.7109701,0.79149 4.79039,0.47421 4.53695,0.46848 4.82789,0.10897 z"
         id="path7140"
         inkscape:connector-curvature="0"
         sodipodi:nodetypes="cccscccccssscccccscsccsccccsccccsccsccccccccsccsccccccscccscscccccccccccccscsssccccccsccscccccccccccccccccccscccsccccssssccccccccccccsscccccccsssscscsccccscccsccccsccscccccccsscccscccccccccccccccsccscccccccc" />
    </g>
    <g
       id="g10290"
       transform="matrix(0.15087604,0,0,0.15712646,-15.956682,-6.3695286)">
      <path
         style="fill:#ffffff;fill-opacity:0.857692;fill-rule:evenodd;stroke:none;stroke-width:0.264583"
         d="M 347.05152,321.23831 H 496.87686 V 429.4685 c 0.0259,60.24033 -50.29253,42.13172 -74.69717,69.78597 -19.08519,-27.06925 -75.0951,-9.55093 -75.12711,-69.78597 V 321.23831"
         id="path9069" />
      <path
         style="fill:#fffdfd;fill-rule:evenodd;stroke:none;stroke-width:0.264583"
         d="M 495.04462,424.83406 H 348.88397 V 393.41691 H 495.04462 Z M 348.88294,369.22711 v -46.13035 h 146.16168 v 46.13035 h -3.48721 v -6.79529 h -6.11849 v 6.79529 h -3.18135 l -0.84005,-13.69007 0.15504,-0.25003 4.3098,-6.39974 v -5.73088 h -5.82612 v 5.25357 h -4.96703 v -5.25357 h -7.02071 v 5.25357 h -4.72758 v -5.25357 h -5.9219 v 5.63589 l 4.4016,6.536 -0.78131,13.89883 h -1.63804 v -6.81408 h -6.11848 v 6.81408 h -5.80734 v -6.81408 h -6.11849 v 6.81408 h -2.76384 l -1.60708,-22.07498 6.30872,-8.02137 v -7.01358 h -8.3521 v 6.43996 h -7.5229 v -6.43996 h -10.20101 v 6.43996 h -6.94954 v -6.43996 h -8.60716 v 6.94955 l 6.79847,8.31376 -1.49119,21.84556 h -3.26602 v -6.81408 h -6.11849 v 6.81408 h -5.98726 v -6.81408 h -6.11849 v 6.81408 h -2.22197 l -0.78131,-13.45962 4.39764,-6.77068 v -5.8301 h -5.74146 v 5.20277 h -4.93289 v -5.20277 h -7.13132 v 5.20277 h -4.52995 v -5.20277 h -6.00999 v 5.78565 l 4.3832,6.44922 -0.7524,13.82553 h -3.47885 v -6.75507 h -6.15365 v 6.75507 h -3.62664"
         id="path9071" />
      <path
         style="fill:#11b1ee;fill-rule:evenodd;stroke:none;stroke-width:0.264583"
         d="m 495.04462,424.83406 v 3.71052 c 0.0722,60.60387 -52.60869,42.37672 -72.55484,67.9905 -19.24949,-25.58388 -73.57377,-9.30592 -73.60581,-67.9905 v -3.71052 h 146.16144 z m -72.50721,8.18356 c 10.97174,0 19.92021,8.94821 19.92021,19.92022 0,7.81023 -4.53522,14.47773 -11.10747,17.6702 0.88583,1.46764 2.13942,2.61064 2.64372,2.6199 1.78302,1.61131 2.24896,2.79797 2.83501,4.47013 -1.62454,-1.075 -3.6875,-1.95844 -5.67188,-1.95553 -1.51632,-0.036 -2.7514,-0.22119 -3.22156,-0.72125 -0.8599,-1.27133 -1.88304,-2.23468 -2.62096,-2.58604 -0.90753,0.12409 -1.83357,0.18917 -2.77522,0.18917 -1.39091,0 -2.66224,-0.13943 -3.97378,-0.40719 -0.79163,0.30083 -1.57109,1.53908 -2.85988,2.99112 -0.70776,1.28349 -2.82442,2.18281 -4.36351,2.03279 -1.31762,-0.11457 -2.54449,0.008 -3.73512,0.40428 0.15081,-2.36775 1.10993,-4.32964 2.35638,-5.46444 1.19063,0.16748 2.27595,-0.52705 3.24855,-1.83329 -6.29126,-3.2856 -10.5918,-9.8052 -10.5918,-17.41091 0,-10.97201 8.94848,-19.92022 19.92128,-19.92022 z m 0,7.82373 c 7.88061,0 14.30919,6.42858 14.30919,14.31026 0,7.88167 -6.42752,14.31025 -14.30919,14.31025 -7.88167,0 -14.31026,-6.42752 -14.31026,-14.31025 0,-7.88062 6.42753,-14.31026 14.31026,-14.31026 z m -61.09605,-35.05306 c 1.8624,-1.12871 3.54706,-1.97723 6.28489,-2.15794 1.24952,0.0897 2.19511,0.48049 3.87998,1.06548 2.0121,0.54557 4.1711,0.76491 6.47589,0.65511 -2.71198,1.20015 -5.31225,2.03411 -7.51359,1.5576 -1.22896,-0.20876 -2.22218,-0.4908 -3.46964,-0.92816 -2.2252,-0.42889 -3.8685,-0.34607 -5.6565,-0.19103 z m 34.80096,0 c 1.86135,-1.12871 3.54701,-1.97723 6.28492,-2.15794 1.24936,0.0897 2.19524,0.48049 3.87985,1.06548 2.01215,0.54557 4.17115,0.76491 6.47594,0.65511 -2.71198,1.20015 -5.31231,2.03411 -7.51364,1.5576 -1.22899,-0.20876 -2.22224,-0.4908 -3.46948,-0.92816 -2.22541,-0.42889 -3.86953,-0.34607 -5.65653,-0.19103 z m 34.80091,0 c 1.86135,-1.12871 3.54701,-1.97723 6.28492,-2.15794 1.24962,0.0897 2.19524,0.48049 3.87985,1.06548 2.01242,0.54557 4.17142,0.76491 6.4762,0.65511 -2.71198,1.20015 -5.31257,2.03411 -7.5139,1.5576 -1.22872,-0.20876 -2.22197,-0.4908 -3.46948,-0.92816 -2.22515,-0.42889 -3.86953,-0.34607 -5.65653,-0.19103 z m 34.80091,0 c 1.86135,-1.12871 3.54727,-1.97723 6.28492,-2.15794 1.24962,0.0897 2.19524,0.48049 3.87985,1.06548 2.01242,0.54557 4.17142,0.76491 6.4762,0.65511 -2.71198,1.20015 -5.3123,2.03411 -7.5139,1.5576 -1.22872,-0.20876 -2.22197,-0.4908 -3.46948,-0.92816 -2.22515,-0.42889 -3.86953,-0.34607 -5.65653,-0.19103 z m -15.0831,11.33872 c 1.86135,-1.12844 3.54701,-1.97696 6.28465,-2.15794 1.24963,0.09 2.19631,0.48048 3.87985,1.06442 2.01242,0.54584 4.17142,0.76491 6.47621,0.65537 -2.71198,1.19989 -5.31231,2.03412 -7.51364,1.55761 -1.22899,-0.20876 -2.22224,-0.49107 -3.46975,-0.92816 -2.22514,-0.42889 -3.86847,-0.34634 -5.65652,-0.1913 z m -74.23652,0 c 1.8616,-1.12844 3.54726,-1.97696 6.28491,-2.15794 1.24962,0.09 2.19525,0.48048 3.87985,1.06442 2.01242,0.54584 4.17142,0.76491 6.4762,0.65537 -2.71198,1.19989 -5.3123,2.03412 -7.5139,1.55761 -1.22872,-0.20876 -2.22197,-0.49107 -3.46948,-0.92816 -2.22514,-0.42889 -3.86953,-0.34634 -5.65653,-0.1913 z m 37.11813,0 c 1.8616,-1.12844 3.54726,-1.97696 6.28491,-2.15794 1.24963,0.09 2.1963,0.48048 3.87985,1.06442 2.01242,0.54584 4.17142,0.76491 6.4762,0.65537 -2.71197,1.19989 -5.3123,2.03412 -7.51363,1.55761 -1.22899,-0.20876 -2.22224,-0.49107 -3.46975,-0.92816 -2.22514,-0.42889 -3.86847,-0.34634 -5.65653,-0.1913"
         id="path9073" />
      <path
         style="fill:#fffdfd;fill-rule:evenodd;stroke:none;stroke-width:0.264583"
         d="m 422.53423,433.54467 c 3.21231,0 6.24549,0.79058 8.91514,2.18811 0.12938,0.0836 0.66887,0.58896 0.85698,0.78131 1.56158,1.43351 2.68076,3.30412 3.16151,5.37316 0.0495,0.14896 0.0815,0.27702 0.1188,0.42995 0.009,0.0423 0.0259,0.10557 0.0466,0.1643 0.0103,0.0498 0.0341,0.0953 0.0672,0.1315 0.003,0.004 0.007,0.008 0.0114,0.0122 v 0 c 0.0516,0.0529 0.12488,0.0849 0.20558,0.0849 0.16007,0 0.29157,-0.13044 0.29157,-0.29157 0,-0.0548 -0.0156,-0.10636 -0.0426,-0.15081 -0.063,-0.36063 -0.17251,-0.90752 -0.33999,-1.22476 v 0.007 c -0.15081,-1.27106 -1.25254,-2.68605 -1.9431,-3.72375 -0.0423,-0.059 -0.0857,-0.11774 -0.13017,-0.17462 4.23042,3.03345 7.19455,7.7298 7.92109,13.11963 -0.46514,-0.91996 -1.07791,-1.79123 -1.70444,-2.04735 -0.0423,-0.0249 -0.0918,-0.0384 -0.14552,-0.0384 -0.16034,0 -0.29158,0.13017 -0.29158,0.29157 0,0.14367 0.10531,0.26458 0.24289,0.28733 v 0 l 0.0392,0.007 -0.006,-0.004 c 0,0 0,0 0,0 1.08824,0.78025 1.61238,2.30584 2.032,3.57822 0.004,0.16933 0.006,0.33999 0.006,0.51144 0,7.50967 -4.32435,14.0417 -10.61111,17.23416 -0.004,-0.005 -0.008,-0.0114 -0.0135,-0.0167 v 0 c 0,0 -10e-4,-8e-4 -0.002,-0.002 -0.009,-0.0103 -0.0196,-0.0198 -0.031,-0.0291 -0.1778,-0.16007 -0.40931,-0.29554 -0.64506,-0.41434 0.48578,-0.2966 1.00886,-0.73078 1.42532,-1.05436 0.4826,-0.3855 1.02208,-0.73687 1.43033,-1.20915 0.7194,-0.83079 1.69201,-1.45097 2.35559,-2.35532 1.202,-1.3208 1.34646,-2.05687 2.48338,-3.66077 0.65855,-0.93954 0.89402,-2.1643 1.31154,-3.21522 0.24183,-0.68025 0.39396,-1.39118 0.54477,-2.09603 0.19421,-0.771 0.14156,-1.63513 0.14156,-2.42067 0,-0.16008 -0.13018,-0.29131 -0.29131,-0.29131 -0.16034,0 -0.29157,0.13018 -0.29157,0.29131 v 1.27238 0.16536 c -0.15399,1.51421 -0.66966,3.1078 -1.19777,4.52676 -0.47334,1.2745 -1.28164,2.29764 -1.92035,3.46657 -0.0434,0.0786 -0.47334,0.6313 -0.73686,0.99219 -0.96838,1.30413 -2.22329,2.28203 -3.34671,3.43535 -0.75222,0.56435 -1.63301,1.37874 -2.45031,1.78805 -0.0331,0.0156 -0.0632,0.0373 -0.0878,0.064 -0.6739,-0.32253 -1.27344,-0.41328 -1.89971,-0.45773 5.48693,-2.18916 9.38133,-7.55941 9.38133,-13.81204 0,-0.60167 -0.0362,-1.19486 -0.10636,-1.77774 0.74295,-1.33217 0.499,-3.65363 0.499,-5.07788 0,-0.16007 -0.13017,-0.29131 -0.2913,-0.29131 -0.16034,0 -0.29158,0.13018 -0.29158,0.29131 0,0.002 0,0.004 0,0.007 0,1.18639 0.0622,2.35532 -0.0796,3.53986 -0.0114,0.0857 -0.0257,0.17674 -0.0423,0.26961 -0.8165,-3.90472 -3.175,-7.25646 -6.40477,-9.38345 0.0217,-0.0402 0.0352,-0.0878 0.0352,-0.13732 0,-0.12091 -0.0743,-0.22648 -0.18097,-0.26987 -0.71729,-0.31512 -1.25783,-1.05622 -1.84574,-1.54702 -0.82999,-0.69162 -1.95341,-1.40573 -2.99614,-1.69704 -1.28058,-0.47863 -2.66567,-0.37518 -4.00394,-0.37518 -0.16033,0 -0.29157,0.13018 -0.29157,0.29131 0,0.16033 0.13018,0.29157 0.29157,0.29157 h 0.0683 c 2.56936,-0.1913 5.02496,0.37915 6.89662,2.25001 0.0466,0.0463 0.0939,0.0939 0.14156,0.1405 -1.90262,-0.88874 -4.02352,-1.3851 -6.25687,-1.3851 -2.6707,0 -5.18001,0.71015 -7.3496,1.95237 0.70909,-0.87948 1.69625,-1.40044 2.59107,-2.14657 0.09,-0.0704 0.12832,-0.0786 0.23892,-0.0992 v 0 c 0.14049,-0.0196 0.25003,-0.14155 0.25003,-0.28839 0,-0.16008 -0.13018,-0.29131 -0.29157,-0.29131 -0.036,0 -0.0712,0.006 -0.10425,0.0185 -0.60166,0.1778 -1.62375,1.05728 -2.11772,1.45838 -0.83,0.56119 -1.2536,1.3126 -1.75895,2.10926 -3.81794,2.69452 -6.3201,7.13873 -6.3201,12.1502 0,4.88447 2.37701,9.23052 6.03382,11.9425 -1.71053,-0.90118 -3.43667,-2.04735 -4.78843,-3.39937 l 0.004,-0.002 c -0.15478,-0.23363 -0.4019,-0.35058 -0.58182,-0.57071 -0.69242,-0.83185 -1.1729,-1.76715 -1.74546,-2.67996 -0.49001,-1.10781 -0.53948,-2.43708 -0.53763,-3.63697 0,-0.16007 -0.13018,-0.2913 -0.29131,-0.2913 -0.16033,0 -0.29157,0.13017 -0.29157,0.2913 10e-4,1.11628 0.0291,2.56937 0.46832,3.60389 0.45772,1.02632 1.16072,1.96268 1.78487,2.88872 0.62019,0.74322 1.41579,1.35097 2.14869,1.99179 1.30227,1.04907 2.68393,1.89441 4.17962,2.64054 0.47334,0.31829 1.42319,0.80301 2.19419,1.03875 -0.64797,0.17886 -1.95025,0.64903 -2.70695,1.06971 -4.70244,-2.48867 -8.26506,-6.86276 -9.66867,-12.10363 0.27702,0.0683 1.3499,-1.10172 1.42028,-1.24142 0.52996,-0.60352 0.77602,-2.00501 0.77602,-2.77813 0,-1.42398 -0.0765,-2.75113 -0.33073,-4.1484 -0.41327,-2.17884 -0.30162,-4.377 0.1188,-6.54023 1.86664,-3.18426 4.61989,-5.792 7.91581,-7.47977 -0.37201,0.51488 -0.67072,1.06971 -0.80301,1.75286 -0.005,0.0281 -0.0175,0.054 -0.0267,0.0818 -0.01,0.0288 -0.0145,0.0601 -0.0145,0.0921 0,0.16008 0.13018,0.29131 0.29131,0.29131 0.13044,0 0.24103,-0.0857 0.27807,-0.20452 0.008,-0.0249 0.0199,-0.0498 0.0249,-0.0754 0.14367,-0.98716 0.81042,-1.76133 1.45521,-2.50322 2.32225,-0.99219 4.87522,-1.542 7.55412,-1.542 z m 8.2341,36.90435 c 0.29051,0.30692 0.58182,0.74401 0.87339,1.40864 0.38762,0.84032 1.09961,1.4232 2.13413,1.74652 1.14829,0.7276 1.94098,1.98966 2.57149,3.49329 -1.31869,-0.97975 -2.66251,-1.76503 -4.2291,-1.82827 -0.92605,-0.037 -1.72932,-0.0982 -3.14616,-0.20876 -1.32927,-0.72443 -1.72297,-2.31907 -3.12235,-2.8948 1.202,0.40402 2.1291,1.35996 3.52134,1.35996 0.16007,0 0.2913,-0.13018 0.2913,-0.29131 0,-0.16034 -0.13017,-0.29157 -0.2913,-0.29157 -0.44556,0 -0.81757,-0.0868 -1.22688,-0.25823 -1.04695,-0.59955 -1.95659,-1.2319 -3.19881,-1.27556 -0.17145,-0.55086 -0.3421,-1.10358 -0.16854,-1.65259 0.60987,-0.0929 1.20835,-0.2241 1.79229,-0.38947 l 0.2884,0.0278 h 0.42994 c 1.084,-0.002 2.62414,0.3122 3.47874,1.05621 z m -6.22485,1.62348 c -0.41751,0.0434 -0.83926,0.0736 -1.26524,0.09 -0.0381,-0.14472 -0.0889,-0.29448 -0.11668,-0.41857 -0.23257,-0.7866 -0.11165,-1.23296 0.10134,-1.83753 0.29977,-0.0145 0.59848,-0.0384 0.89296,-0.0704 -0.13652,0.77417 0.22622,1.4605 0.38656,2.23652 z m -1.86055,0.10451 c -0.0495,0 -0.0992,0 -0.1487,0 -0.2151,0 -0.42889,-0.003 -0.64293,-0.0103 -0.0466,-0.0601 -0.0992,-0.11378 -0.15505,-0.17172 -0.42571,-0.44344 -0.39793,-1.42319 -0.19209,-2.10317 0.32756,0.0206 0.65829,0.0331 0.99219,0.0331 0.037,0 0.0743,0 0.11271,0 -0.20055,0.61807 -0.29686,1.14935 -0.054,1.94628 0.0177,0.0804 0.0569,0.1942 0.091,0.30585 z m -1.57612,-0.0526 c -0.30586,-0.0228 -0.61172,-0.0519 -0.91361,-0.0889 -0.0775,-0.75671 -0.15716,-1.54728 -0.0185,-2.2987 0.25638,0.0413 0.51567,0.0754 0.77708,0.10345 -0.19844,0.7419 -0.20452,1.67323 0.15505,2.28415 z m -1.51501,-0.17277 c -0.1262,-0.0185 -0.25109,-0.0392 -0.37624,-0.0609 -0.10345,-0.79375 -0.20452,-1.52665 -0.0796,-2.32754 0.0206,-0.005 0.0413,-0.0114 0.0622,-0.0167 0.13415,0.0312 0.27067,0.0601 0.4072,0.0878 -0.10954,0.63976 -0.0889,1.31074 -0.0839,1.95051 0.0124,0.11774 0.0445,0.24262 0.0704,0.36777 z m -0.97975,-0.17674 c -0.0238,-0.005 -0.0487,-0.009 -0.0736,-0.0154 0.12726,-0.0228 -0.91652,0.24474 -1.45521,1.01891 -0.78423,1.15544 -1.73831,2.27277 -2.91148,3.29909 -1.32582,0.69665 -2.5392,0.712 -3.73618,0.6305 -0.77602,-0.0683 -1.55231,0.14367 -2.32833,0.33894 0.2458,-1.40468 0.91757,-2.88052 1.94072,-4.41511 1.00277,0.032 1.74678,-0.19341 2.23149,-0.67918 0.65538,-0.71517 1.31154,-1.26603 1.96692,-1.65153 0.68606,-0.37306 2.86808,-1.08426 3.48694,-1.17607 0.16748,0.0566 0.33708,0.11139 0.50747,0.16324 -0.29871,0.127 -0.59637,0.26141 -0.89297,0.37518 -1.24645,0.69559 -2.12698,1.90685 -3.41683,2.55164 v 0 c -0.095,0.0476 -0.16113,0.14685 -0.16113,0.26062 0,0.16007 0.13018,0.29131 0.29131,0.29131 0.0466,0 0.091,-0.0114 0.12938,-0.0299 v 0 c 0.66966,-0.33497 1.26815,-0.82153 1.83647,-1.30837 0.71305,-0.70802 1.55654,-1.28984 2.49291,-1.65999 -0.0651,0.67918 0.004,1.32397 0.09,2.00501 z m -14.88281,-14.49414 c -0.33391,-1.41896 -0.51171,-2.89904 -0.51171,-4.41828 0,-2.90645 0.64797,-5.66684 1.80764,-8.14414 -0.20162,1.79626 -0.16537,3.60495 0.20055,5.38454 0.18495,0.64902 0.15822,1.40255 0.25532,2.15291 l 0.004,-0.003 c 0,0.73792 -0.0299,1.47478 -0.0413,2.20662 l 0.006,-0.008 c -0.1532,0.61489 -0.25427,1.1348 -0.53552,1.71053 l 10e-4,-0.006 c -0.18494,0.30692 -0.71834,1.07394 -1.18639,1.12554"
         id="path9075" />
      <path
         style="fill:#ec2a32;fill-rule:evenodd;stroke:none;stroke-width:0.264583"
         d="m 462.42123,355.44497 h 18.46183 l 2.1127,36.92392 h -22.59515 z m 7.53242,4.5921 h 3.12209 v 8.7249 h -3.12209 z m -9.3173,-7.45384 h 22.107 l -1.55734,2.26854 h -19.00873 l -1.53987,-2.26854 z m -2.55905,-8.91116 h 4.81515 v 5.21308 h 5.65124 v -5.21308 h 6.04943 v 5.21308 h 5.96953 v -5.21308 h 4.73578 v 5.05407 l -2.21192,3.2639 h -22.80259 l -2.20874,-3.2639 v -5.05407 z m -94.59164,11.7729 h 18.46176 l 2.11269,36.92392 h -22.59499 z m 7.5324,4.5921 h 3.1223 v 8.7249 h -3.1223 z m -9.33797,-7.45384 h 22.17524 l -1.50575,2.26854 h -19.09336 l -1.57509,-2.26854 z m -2.53833,-8.91116 h 4.81521 v 5.21308 h 5.65134 v -5.21308 h 6.04917 v 5.21308 h 5.96979 v -5.21308 h 4.73551 v 5.05407 l -2.09603,3.2639 h -22.94736 l -2.17972,-3.2639 v -5.05407 z m 61.40095,9.15828 h 4.5392 v 10.69896 h -4.5392 z m -11.51043,-5.83641 h 27.45158 l 3.24194,45.60858 h -11.99594 v -16.86004 c -2.46724,-3.21416 -7.22339,-3.30518 -9.8351,0 v 16.86004 h -11.9962 z m -3.0644,-3.46739 h 33.23616 l -2.26563,2.92073 h -28.54404 l -2.42543,-2.92073 z m -3.72295,-10.89158 h 7.48374 v 6.57119 h 8.03169 v -6.57119 h 9.12706 v 6.57119 h 8.57938 v -6.57119 h 7.30171 v 6.26745 l -3.19458,4.07617 h -33.98229 l -3.34883,-4.07617 v -6.26745 z m 81.55384,58.10197 h 1.14723 v 2.1725 h -1.00991 z m 2.48258,0 h 9.07521 v 2.1725 h -9.07521 z m 5.30913,-5.20594 h 3.94071 v 3.91504 h -3.94071 z m -8.12244,0 h 6.66829 v 3.91504 h -6.42038 z m 2.81331,-5.20488 h 9.07521 v 3.91504 h -9.07521 z m -3.14404,0 h 1.74969 v 3.91504 h -1.50072 l -0.24791,-3.91504 z m 8.39417,-5.20568 h 4.00077 v 3.91504 h -4.00077 z m -8.7249,0 h 7.30065 v 3.91504 h -7.05168 l -0.24791,-3.91504 z m 3.50467,-5.20488 h 9.07547 v 3.91504 h -9.07547 z m -3.8354,0 h 2.41115 v 3.91504 h -2.16323 z m -42.36244,20.92272 h 2.52387 v 2.17249 h -2.38522 l -0.13759,-2.17249 z m 3.85922,0 h 9.07547 v 2.17249 h -9.07547 z m 10.41082,0 h 5.51498 l -0.12515,2.17249 h -5.38877 v -2.17249 z m -5.10143,-5.20594 h 9.07521 v 3.91504 h -9.07521 z m -9.49933,0 h 8.04518 v 3.91504 h -7.79701 z m 14.65976,-5.20489 h 6.05737 l -0.22621,3.91504 h -5.83116 z m -10.46982,0 h 9.07547 v 3.91504 h -9.07547 z m -4.52067,0 h 3.12658 v 3.91504 h -2.87735 l -0.24818,-3.91504 z m 9.77106,-5.20594 h 9.07547 v 3.91504 h -9.07547 z m -10.10179,0 h 8.67754 v 3.91504 h -8.42831 l -0.24817,-3.91504 z m 15.38102,-5.20462 h 6.60003 l -0.22622,3.91478 h -6.37381 z m -10.49946,0 h 9.07521 v 3.91478 h -9.07521 z m -5.21229,0 h 3.78804 v 3.91478 h -3.5388 l -0.24818,-3.91478 z m -53.9967,20.82139 h 5.5335 v 2.17249 h -5.4147 z m 6.86885,0 h 9.07547 v 2.17249 h -9.07547 z m 10.41083,0 h 3.24432 l -0.15611,2.17249 h -3.08821 z m -17.56596,-5.20594 h 0.48181 v 3.91504 h -0.26564 l -0.21511,-3.91504 z m 12.46452,0 h 8.72094 l -0.28126,3.91504 h -8.43862 v -3.91504 z m -10.52962,0 h 9.07547 v 3.91504 h -9.07547 z m 15.69085,-5.20489 h 3.93488 l -0.28125,3.91504 h -3.65257 v -3.91504 z m -10.47062,0 h 9.07547 v 3.91504 h -9.07547 z m -7.44141,0 h 6.04732 v 3.91504 h -5.83221 z m 12.6918,-5.20594 h 9.07548 v 3.91504 h -9.07548 z m -10.50078,0 h 9.07547 v 3.91504 h -9.07547 z m -2.47729,0 h 1.05436 v 3.91504 h -0.8382 l -0.21511,-3.91504 z m 18.2573,-5.20462 h 4.62413 l -0.28126,3.91478 h -4.34287 z m -10.49946,0 h 9.07521 v 3.91478 h -9.07521 z m -8.04412,0 h 6.61987 v 3.91478 h -6.40371 l -0.21511,-3.91478 z m -34.03918,20.82139 h 9.07542 v 2.17249 h -9.07542 z m 10.41075,0 h 0.68934 l -0.13745,2.17249 h -0.55189 z m -5.10151,-5.20594 h 6.12158 l -0.24805,3.91504 h -5.8725 v -3.91504 z m -5.94175,0 h 4.4886 v 3.91504 h -4.4886 z m 11.10319,-5.20489 h 1.2919 l -0.24804,3.91504 h -1.04283 v -3.91504 z m -10.47068,0 h 9.07542 v 3.91504 h -9.07542 z m 5.25034,-5.20594 h 6.84297 l -0.24804,3.91504 h -6.5939 v -3.91504 z m -5.88285,0 h 4.45865 v 3.91504 H 348.977 Z m 11.16211,-5.20462 h 1.89341 l -0.24805,3.91478 h -1.64536 z m -10.49962,0 h 9.07542 v 3.91478 h -9.07542 z m 92.27653,-6.9805 h 5.00645 v 5.98911 h -5.00645 z m 11.89064,0 h 5.00645 v 5.98911 h -5.00645 z m 32.18524,0 h 5.00645 v 5.98911 h -5.00645 z m -132.94281,0 h 5.00642 v 5.98911 h -5.00642 z m 32.90015,0 h 5.00644 v 5.98911 h -5.00644 z m 12.15972,0 h 5.00618 v 5.98911 h -5.00618 z m 61.71485,22.58457 h 0.36592 l -0.23151,3.91927 h -0.13335 v -3.91927 z m 0,-10.41691 h 0.96864 l -0.24183,3.87562 h -0.72681 v -3.87562"
         id="path9077" />
    </g>
    <text
       xml:space="preserve"
       style="font-size:6.32013px;line-height:1.25;font-family:Alegreya;-inkscape-font-specification:Alegreya;text-align:end;letter-spacing:0px;word-spacing:0px;writing-mode:lr-tb;text-anchor:end;fill:#000000;fill-opacity:0.5;stroke-width:0.237004;filter:url(#filter13985)"
       x="245.30954"
       y="56.187428"
       id="text10967"
       transform="scale(1.0286682,0.97213076)"><tspan
         sodipodi:role="line"
         id="tspan10965"
         style="text-align:end;text-anchor:end;fill:#000000;fill-opacity:0.5;stroke-width:0.237004"
         x="245.30954"
         y="56.187428">Niedzielne spotkanie Kościoła: 11:00</tspan><tspan
         sodipodi:role="line"
         style="text-align:end;text-anchor:end;fill:#000000;fill-opacity:0.5;stroke-width:0.237004"
         x="245.30954"
         y="64.087593"
         id="tspan10969">Sobotnie spotkanie modlitewne: 17:00</tspan><tspan
         sodipodi:role="line"
         style="text-align:end;text-anchor:end;fill:#000000;fill-opacity:0.5;stroke-width:0.237004"
         x="245.30954"
         y="71.987755"
         id="tspan10971">Czwartkowe studium biblijne: 17:30</tspan></text>
    <text
       xml:space="preserve"
       style="font-style:normal;font-variant:normal;font-weight:bold;font-stretch:normal;font-size:11.3935px;line-height:1.25;font-family:Alegreya;-inkscape-font-specification:'Alegreya Bold';text-align:center;letter-spacing:0px;word-spacing:0px;writing-mode:lr-tb;text-anchor:middle;fill:#ffffff;fill-opacity:1;stroke-width:0.427257"
       x="141.26682"
       y="18.46093"
       id="text13953"
       transform="scale(0.96301512,1.0384053)"><tspan
         sodipodi:role="line"
         id="tspan13949"
         style="font-style:normal;font-variant:normal;font-weight:bold;font-stretch:normal;font-family:Alegreya;-inkscape-font-specification:'Alegreya Bold';text-align:center;text-anchor:middle;fill:#ffffff;fill-opacity:1;stroke-width:0.427257"
         x="141.26682"
         y="18.46093">Kościół Chrześcijan Baptystów</tspan><tspan
         sodipodi:role="line"
         style="font-style:normal;font-variant:normal;font-weight:bold;font-stretch:normal;font-family:Alegreya;-inkscape-font-specification:'Alegreya Bold';text-align:center;text-anchor:middle;fill:#ffffff;fill-opacity:1;stroke-width:0.427257"
         x="141.26682"
         y="32.702808"
         id="tspan13951">w Nowym Dworze Mazowieckim</tspan></text>
    <text
       xml:space="preserve"
       style="font-size:6.32013px;line-height:1.25;font-family:Alegreya;-inkscape-font-specification:Alegreya;text-align:end;letter-spacing:0px;word-spacing:0px;writing-mode:lr-tb;text-anchor:end;fill:#ffffff;fill-opacity:1;stroke-width:0.237004"
       x="245.11475"
       y="56.136478"
       id="text13973"
       transform="scale(1.0286682,0.97213076)"><tspan
         sodipodi:role="line"
         id="tspan13967"
         style="text-align:end;text-anchor:end;fill:#ffffff;fill-opacity:1;stroke-width:0.237004"
         x="245.11475"
         y="56.136478">Niedzielne spotkanie Kościoła: 11:00</tspan><tspan
         sodipodi:role="line"
         style="text-align:end;text-anchor:end;fill:#ffffff;fill-opacity:1;stroke-width:0.237004"
         x="245.11475"
         y="64.036636"
         id="tspan13969">Sobotnie spotkanie modlitewne: 17:00</tspan><tspan
         sodipodi:role="line"
         style="text-align:end;text-anchor:end;fill:#ffffff;fill-opacity:1;stroke-width:0.237004"
         x="245.11475"
         y="71.936798"
         id="tspan13971">Czwartkowe studium biblijne: 17:30</tspan></text>
  </g>
</svg>
