<?xml version="1.0" encoding="UTF-8" standalone="no"?>
<svg
   width="1935.1"
   height="1935.1"
   version="1.1"
   viewBox="0 0 512 512"
   xml:space="preserve"
   id="svg170"
   sodipodi:docname="baptysci-logo-2023.svg"
   inkscape:version="1.2.1 (9c6d41e410, 2022-07-14)"
   xmlns:inkscape="http://www.inkscape.org/namespaces/inkscape"
   xmlns:sodipodi="http://sodipodi.sourceforge.net/DTD/sodipodi-0.dtd"
   xmlns:xlink="http://www.w3.org/1999/xlink"
   xmlns="http://www.w3.org/2000/svg"
   xmlns:svg="http://www.w3.org/2000/svg"
   xmlns:rdf="http://www.w3.org/1999/02/22-rdf-syntax-ns#"
   xmlns:cc="http://creativecommons.org/ns#"
   xmlns:dc="http://purl.org/dc/elements/1.1/"><sodipodi:namedview
     id="namedview172"
     pagecolor="#505050"
     bordercolor="#eeeeee"
     borderopacity="1"
     inkscape:showpageshadow="0"
     inkscape:pageopacity="0"
     inkscape:pagecheckerboard="0"
     inkscape:deskcolor="#505050"
     showgrid="false"
     inkscape:zoom="0.620123"
     inkscape:cx="966.7437"
     inkscape:cy="967.54999"
     inkscape:window-width="2560"
     inkscape:window-height="1377"
     inkscape:window-x="2552"
     inkscape:window-y="-8"
     inkscape:window-maximized="1"
     inkscape:current-layer="svg170" /><defs
     id="defs144"><linearGradient
       id="linearGradient1063"><stop
         stop-color="#11b0ee"
         offset="0"
         id="stop132" /><stop
         stop-color="#ed2c32"
         offset="1"
         id="stop134" /></linearGradient><linearGradient
       id="linearGradient5433"
       x1="28.811"
       x2="454.17"
       y1="485.62"
       y2="80.441"
       gradientTransform="matrix(.46228 0 0 .45483 264.75 267.18)"
       gradientUnits="userSpaceOnUse"><stop
         stop-color="#ed2c32"
         offset="0"
         id="stop137" /><stop
         stop-color="#11b1ee"
         offset="1"
         id="stop139" /></linearGradient><linearGradient
       id="linearGradient1065"
       x1="-120.13"
       x2="77.871"
       y1="411.74"
       y2="411.74"
       gradientUnits="userSpaceOnUse"
       xlink:href="#linearGradient1063" /><linearGradient
       id="linearGradient6087"
       x1="76.624"
       x2="-120.01"
       y1="296.29"
       y2="529.85"
       gradientTransform="translate(-.57391 -.28115)"
       gradientUnits="userSpaceOnUse"
       xlink:href="#linearGradient1063" /></defs><metadata
     id="metadata146"><rdf:RDF><cc:Work
         rdf:about=""><dc:format>image/svg+xml</dc:format><dc:type
           rdf:resource="http://purl.org/dc/dcmitype/StillImage" /></cc:Work></rdf:RDF></metadata><path
     style="opacity:0.99;vector-effect:none;fill:#ffffff;fill-opacity:1;stroke:#b70000;stroke-width:0.000936377;stroke-linecap:butt;stroke-linejoin:miter;stroke-miterlimit:4;stroke-dasharray:none;stroke-dashoffset:0;stroke-opacity:1"
     d="m 250.88,66.986666 c -0.57252,-12.346382 96.86476,-12.666183 101.11999,-2.56 L 362.66666,158.72 275.19999,158.29333 273.49333,86.613332 Z"
     id="path2620"
     sodipodi:nodetypes="cccccc" /><path
     style="opacity:0.99;vector-effect:none;fill:#ffffff;fill-opacity:1;stroke:#b70000;stroke-width:0.000936377;stroke-linecap:butt;stroke-linejoin:miter;stroke-miterlimit:4;stroke-dasharray:none;stroke-dashoffset:0;stroke-opacity:1"
     d="m 99.84,208.64 c 38.79576,-15.08476 77.99126,-26.37193 119.04,-20.05334 V 363.52 c -50.40263,-10.73014 -94.58746,10.87231 -139.52,28.58667 z"
     id="path2618"
     sodipodi:nodetypes="ccccc" /><path
     style="opacity:0.99;vector-effect:none;fill:#ffffff;fill-opacity:1;stroke:#b70000;stroke-width:0.000936377;stroke-linecap:butt;stroke-linejoin:miter;stroke-miterlimit:4;stroke-dasharray:none;stroke-dashoffset:0;stroke-opacity:1"
     d="m 218.88,166.4 56.31999,-5.97333 2.56,31.99999 c 39.02565,-2.06317 79.44824,6.35066 120.74667,21.33334 L 409.6,288.42666 273.06666,415.14667 221.01333,450.56 l -2.56,-85.76001 48.21334,14.93333 L 265.38666,212.48 c -12.0039,-18.55177 -29.32484,-19.82317 -45.65333,-24.32 z"
     id="path2616"
     sodipodi:nodetypes="cccccccccccc" /><path
     style="opacity:0.99;vector-effect:none;fill:#038ed8;fill-opacity:1;stroke:#b70000;stroke-width:0.000936377;stroke-linecap:butt;stroke-linejoin:miter;stroke-miterlimit:4;stroke-dasharray:none;stroke-dashoffset:0;stroke-opacity:1"
     d="m 219.73333,187.73333 c 17.36064,3.80187 32.66312,15.83641 47.78666,28.58667 l -2.56,164.26666 c -14.28021,-6.80872 -26.88334,-14.9591 -46.50666,-17.49333 z"
     id="path2614"
     sodipodi:nodetypes="ccccc" /><path
     style="opacity:0.99;vector-effect:none;fill:#bb311f;fill-opacity:1;stroke:#b70000;stroke-width:0.000936377;stroke-linecap:butt;stroke-linejoin:miter;stroke-miterlimit:4;stroke-dasharray:none;stroke-dashoffset:0;stroke-opacity:1"
     d="m 277.75999,161.28 87.89334,1.70667 2.13333,36.69333 c -29.13822,-8.06961 -60.46831,-8.83302 -93.01332,-5.54667 z"
     id="path1886"
     sodipodi:nodetypes="ccccc" /><path
     style="opacity:0.99;vector-effect:none;fill:#dfc808;fill-opacity:1;stroke:#b70000;stroke-width:0.000936377;stroke-linecap:butt;stroke-linejoin:miter;stroke-miterlimit:4;stroke-dasharray:none;stroke-dashoffset:0;stroke-opacity:1"
     d="M 101.97333,204.8 106.24,162.56 c 31.7391,-11.27069 64.63749,-21.83572 122.02666,-17.49333 L 230.4,85.333332 l 15.78666,-15.36 28.16001,20.053334 0.85332,69.546664 -55.46666,6.82667 -0.42667,19.62666 c -43.67618,-2.2202 -81.5825,6.27503 -117.33333,18.77334 z"
     id="path1158"
     sodipodi:nodetypes="cccccccccc" /><path
     style="opacity:0.99;vector-effect:none;fill:#ffffff;fill-opacity:1;stroke:none;stroke-width:0.000936377;stroke-linecap:butt;stroke-linejoin:miter;stroke-miterlimit:4;stroke-dasharray:none;stroke-dashoffset:0;stroke-opacity:1"
     d="M 85.333332,72.96 C 141.41574,47.601344 192.81148,58.564353 244.48,67.413332 L 228.69333,88.32 l 1.28,55.04 c -42.48384,0.0404 -85.7655,-6.30177 -125.01333,19.62667 l -6.4,45.22666 -32,17.06667 z"
     id="path1156"
     sodipodi:nodetypes="cccccccc" /><g
     transform="translate(-2.8856 -9.3421)"
     id="g168"><g
       transform="matrix(1.8909 0 0 1.8057 288.82 -471.17)"
       stroke="#797979"
       stroke-width="0"
       id="g152"><path
         d="m-38.073 529.57c-0.0094-0.13882-0.08886-13.245-0.17733-29.126-0.08845-15.88-0.2219-29.069-0.29659-29.307-0.18911-0.60447-0.5682-0.64792-6.991-0.80105-8.3515-0.19911-14.221 0.31782-22.051 1.9421-9.1217 1.8923-19.331 5.3937-27.071 9.2843-6.1339 3.0832-13.327 7.5638-17.615 10.973-0.91713 0.72908-1.69 1.3026-1.7175 1.2744-0.0275-0.0283 0.34442-3.2716 0.82649-7.2076s1.6779-13.925 2.6574-22.199c0.97952-8.2734 2.7508-23.084 3.9361-32.912 2.3528-19.508 4.8156-40.164 5.0237-42.135 0.24874-2.3556-0.13637-2.5535-2.4513-1.2595-3.8285 2.1401-10.371 7.1164-14.286 10.866-1.7094 1.6372-1.7742 1.6777-1.8354 1.1488-0.0349-0.30157 0.0742-0.76382 0.24247-1.0272 0.45044-0.70503 0.63813-1.7787 1.0941-6.259 0.5139-5.0491 1.493-13.429 1.871-16.014 0.15733-1.0759 0.86792-6.908 1.5791-12.96 1.5871-13.507 4.5817-38.662 5.5283-46.44 1.1558-9.4958 1.4458-11.37 1.8176-11.748 0.67864-0.69077 5.6435-3.0159 9.5878-4.4901 1.0828-0.40473 2.1635-0.8195 2.4014-0.92173 0.902-0.38756 6.3726-2.025 9.0177-2.6992 9.7803-2.0504 19.22-3.7661 27.17-3.9069 11.806 0.24915 23.337 2.1671 33.666 5.6033 2.9984 1.0084 4.4839 1.4154 4.9086 1.3447 0.33496-0.0558 1.9812-0.73852 3.6584-1.5173 5.5215-2.5638 9.3251-3.6877 15.103-4.4627 3.4468-0.46713 6.9318-0.57048 9.1697-0.76112 3.7733 0.0272 9.4789 0.54107 12.565 1.1057 7.8716 0.88082 14.454 2.8863 17.894 4.6862 1.1046 0.57792 0.8305-1.0294 2.961 17.364 1.2698 10.963 3.7041 30.849 4.0123 32.776 0.15674 0.98052 0.4204 1.9947 0.58589 2.2537 0.36001 0.56346 1.4561 0.56992 6.6381 1.7142 7.0501 1.5568 9.3065 2.3951 9.3065 2.3951 0.14958 0.54783 0.56519 5.2963 0.47193 5.3919-0.0473 0.0485-2.6929-0.41706-5.8791-1.0346-3.1862-0.61749-6.6024-1.1747-7.5916-1.2382-1.7843-0.11457-1.8013-0.11122-2.1424 0.42274-0.3286 0.51434-0.32538 0.67455 0.0727 3.6122 0.22909 1.6907 0.64642 4.9268 0.9274 7.1914 0.28097 2.2646 0.58907 4.3283 0.68464 4.5862 0.25739 0.69428 1.4739 1.2385 7.572 3.3874 5.854 2.0629 8.2239 3.1318 8.8158 3.976 0.27022 0.38544 0.45951 1.3771 0.73229 3.8363 0.90624 8.1699 2.2441 19.573 2.9594 25.224 0.42873 3.3871 1.0913 8.8841 1.4724 12.216 0.69511 6.0772 1.6411 14.038 5.1226 43.108 1.0307 8.6065 2.183 18.238 2.5607 21.403 0.37765 3.165 0.87009 6.6937 1.0943 7.8416 0.22421 1.1479 0.37459 2.1209 0.33419 2.1624-0.0404 0.0414-0.46784-0.43148-0.94982-1.051-1.327-1.7055-4.0546-4.2813-5.8089-5.4855-4.9776-3.417-12.182-5.8274-19.475-6.5162-2.8772-0.27171-13.389-0.13424-16.842 0.22024-11.904 1.2224-27.559 6.4544-39.617 13.24-8.782 4.9426-15.185 9.7214-21.486 16.036-4.7662 4.776-7.7189 8.4726-10.204 12.774-0.75373 1.3049-1.4084 2.3725-1.4549 2.3725-0.04646 0-0.09188-0.11358-0.10105-0.2524zm7.0631-18.528c0.35639-0.22283 1.5967-1.3386 2.7563-2.4794 8.2948-8.1606 20.752-16 34.397-21.646 4.8026-1.9872 8.938-3.3363 14.586-4.7583 5.4435-1.3705 7.8728-1.8259 12.803-2.3997 12.056-1.4033 22.435-0.55763 31.281 2.5489 1.4077 0.49432 2.9697 1.0432 3.4712 1.2198 1.0887 0.38339 1.489 0.26688 1.6803-0.48913 0.0857-0.3388-0.22552-3.5866-0.77973-8.1356-1.6767-13.762-3.6557-30.243-4.8613-40.483-0.6537-5.5526-1.4509-12.231-1.7716-14.841-0.32066-2.6097-0.8931-7.4253-1.2721-10.701-1.7204-14.872-2.4893-21.023-2.7174-21.739-0.21651-0.68009-0.42094-0.86258-1.6872-1.5061-1.7369-0.88269-6.6898-2.5993-7.4996-2.5993-0.73626 0-1.199 0.4704-1.199 1.2189 0 0.32141 0.13744 1.5949 0.30541 2.83 0.20896 1.3776 0.27408 2.7418 0.1868 4.1244-1.9394 0.58317-3.4842 0.79873-5.4142 0.97196l-1e-3 -0.68583c-3e-3 -1.7907-1.4179-10.143-1.798-10.613-0.27224-0.3363-3.663-1.1098-9.5216-2.1721-10.308-1.869-14.006-2.1354-29.641-2.1354h-11.189l-0.0601-9.278c-0.0443-6.8324-0.12189-9.3413-0.29441-9.5181-0.18102-0.18549-1.0539-0.16287-3.8392 0.0995-6.4603 0.60844-16.066 1.9502-18.308 2.5574-1.0345 0.28015-1.2197 0.99576-1.1045 4.2677 0.06751 1.9174 0.16771 2.683 0.37961 2.9004 0.15833 0.16238 1.9902 0.88676 4.0707 1.6097 9.0273 3.1369 13.146 5.6002 18.297 10.943l2.6087 2.7059-2.8e-4 53.038-2.7e-4 53.038-0.97292-1.6589c-1.5023-2.5618-2.474-3.8371-4.4471-5.837-2.1945-2.2243-5.3984-4.4653-8.6504-6.0506-2.6816-1.3072-8.373-3.2994-9.8853-3.4602l-1.0198-0.10845-0.15548 0.78399c-0.08553 0.43116-0.15818 9.1431-0.16148 19.36-0.0073 21.003-0.08032 20.022 1.4295 19.078zm-72.342-31.47c9.6901-5.6222 21.197-10.062 33.258-12.832 2.4946-0.57295 10.699-1.8079 14.121-2.1255 1.2453-0.11559 5.6863-0.21045 9.869-0.21084h7.6049l0.15064-35.486c0.14596-34.383 0.0548-53.714-0.26012-55.172-0.28328-1.3115-0.29457-1.313-9.7845-1.3076-10.52 6e-3 -14.001 0.3452-21.814 2.1255-10.412 2.3726-23.828 7.4156-24.682 9.2776-0.29383 0.6407-0.57972 2.7531-1.9402 14.336-0.60656 5.1639-2.0313 17.112-3.1661 26.551-4.8387 40.248-6.3797 53.407-6.3797 54.475 0 0.748 0.29159 1.7577 0.5076 1.7577 0.0679 0 1.1998-0.6244 2.5151-1.3876zm90.299-50.98v-43.887c-5.5973-5.5726-12.025-9.3616-19.487-11.002 0.4653 30.852 0.36585 63.377-0.01884 91.313 4.6218 0.40788 13.1 4.1294 19.373 7.9634zm-93.385-45.747c2.688-1.6578 5.1381-3.2833 5.4448-3.6122 0.7042-0.75539 0.79174-1.1746 1.5145-7.2523 1.1277-9.4833 2.2023-17.721 2.3291-17.854 0.33767-0.35565 8.3602-3.8943 11.054-4.8758 10.244-3.7325 21.015-6.191 29.924-6.8305 4.8462-0.34784 15.666-0.1177 19.959 0.42454 2.5922 0.32741 3.5759 0.38495 3.738 0.21868 0.34992-0.35887 0.4882-5.2348 0.50514-17.811l0.01573-11.644 1.2798-2.2245c0.70387-1.2235 1.7256-2.7942 2.2704-3.4905 2.0034-2.5601 1.7745-2.9421-2.5658-4.2811-6.5556-2.0224-12.929-2.9927-22.296-3.3943-10.418-0.44663-20.022 0.28154-28.696 2.1756-8.6062 1.8794-20.476 6.0017-20.953 7.277-0.1961 0.52409-0.87628 5.7459-1.9814 15.211-0.6029 5.1639-1.5774 13.296-2.1655 18.071s-1.3846 11.499-1.7701 14.941c-0.88916 7.9417-3.0272 25.192-3.2504 26.225-0.19218 0.88977 0.0376 1.7395 0.47038 1.7395 0.15715 0 2.485-1.3564 5.173-3.0142zm15.529-7.9993c5.689-2.5405 18.431-6.2259 24.76-7.1615 8.1143-1.1995 12.726-1.4917 21.054-1.3339l6.6447 0.12594 0.01427-1.3632c0.03011-2.8836 0.33445-8.8497 0.46784-9.1729 0.31351-0.7596 9.7733-2.4297 20.387-3.5993 5.7706-0.63589 7.9343-0.98264 8.2683-1.325 0.258-0.2645 0.30352-2.5567 0.35431-17.841l0.0582-17.537-2.0271-1.673c-3.667-3.0264-8.1859-5.8412-9.3776-5.8412-0.9499 0-4.0828 3.6934-5.4019 6.3684l-0.50184 1.0177-0.0669 17.592c-0.0368 9.6756-0.13267 17.659-0.21314 17.742-0.0804 0.0825-0.92212-0.0933-1.8704-0.39049-5.4925-1.7218-16.252-2.9675-22.088-2.5574-7.2057 0.50624-12.68 1.1973-16.915 2.1351-8.4597 1.8736-16.882 4.6021-23.453 7.5983l-1.0771 0.49108-0.6353 5.0362c-0.34942 2.7699-0.77111 6.0356-0.9371 7.2572-0.49159 3.6178-0.38419 5.3507 0.33159 5.3507 0.09272 0 1.0935-0.41305 2.224-0.91787zm131.21-1.4075c0.28411-0.35108 0.20613-1.7503-0.41054-7.3664-0.5871-5.3468-0.89769-7.1188-1.3008-7.4211-0.19057-0.14291-0.66676-0.34828-1.0582-0.45638-4.4792-1.237-37.059-1.6837-39.352-0.53961-0.26418 0.1318-0.5654 0.51221-0.66939 0.84536-0.10397 0.33316-0.19776 2.6955-0.20836 5.2497-0.0215 5.1736 0.0779 5.688 1.1595 5.9994 0.32485 0.0935 4.5332 0.30254 9.3518 0.46447 4.8187 0.16192 10.046 0.39168 11.616 0.51055 4.0687 0.30807 12.352 1.4983 16.046 2.3056 3.5491 0.77567 4.4663 0.85328 4.8263 0.40842zm-2.5578-21.808c0.42847-0.52948 0.0949-5.6737-0.88352-13.624-0.49884-4.0534-1.5244-12.594-2.279-18.98-1.4643-12.391-1.6648-13.788-2.0758-14.468-0.42957-0.71038-4.7387-1.9947-11.013-3.2824-4.9133-1.0084-6.5567-1.1284-15.451-1.1284-9.0444 0-9.6357 0.0583-14.521 1.4315-2.3527 0.66127-5.1805 1.8369-5.4352 2.2595-0.25961 0.43078 0.17033 0.89794 2.2104 2.4018 2.9014 2.1388 5.5555 4.3384 7.3595 6.0992l1.5272 1.4906v36.896l8.0229 3e-3c11.177 4e-3 23.234 0.34827 27.711 0.79149 4.7904 0.47421 4.537 0.46848 4.8279 0.10897z"
         fill="#010101"
         style="paint-order:fill markers stroke"
         id="path148" /><path
         d="m-38.647 529.29c-9e-3 -0.13882-0.0889-13.245-0.17733-29.126-0.0884-15.88-0.22189-29.069-0.29659-29.307-0.18911-0.60447-0.56819-0.64792-6.991-0.80105-8.3515-0.19911-14.221 0.31782-22.051 1.9421-9.1217 1.8923-19.331 5.3937-27.071 9.2843-6.1339 3.0832-13.327 7.5638-17.615 10.973-0.91713 0.72908-1.69 1.3026-1.7175 1.2744-0.0275-0.0283 0.34442-3.2716 0.82649-7.2076s1.6779-13.925 2.6574-22.199c0.97952-8.2734 2.7508-23.084 3.9361-32.912 2.3528-19.508 4.8156-40.164 5.0237-42.135 0.24874-2.3556-0.13637-2.5535-2.4513-1.2595-3.8285 2.1401-10.371 7.1164-14.286 10.866-1.7094 1.6372-1.7742 1.6777-1.8354 1.1488-0.0349-0.30157 0.0742-0.76382 0.24247-1.0272 0.45044-0.70503 0.63813-1.7787 1.0941-6.259 0.5139-5.0491 1.493-13.429 1.871-16.014 0.15733-1.0759 0.86792-6.908 1.5791-12.96 1.5871-13.507 4.5817-38.662 5.5283-46.44 1.1558-9.4958 1.4458-11.37 1.8176-11.748 0.67864-0.69077 5.6435-3.0159 9.5878-4.4901 1.0828-0.40473 2.1635-0.8195 2.4014-0.92173 0.902-0.38756 6.3726-2.025 9.0177-2.6992 9.7803-2.0504 19.22-3.7661 27.17-3.9069 11.806 0.24915 23.337 2.1671 33.666 5.6033 2.9984 1.0084 4.4839 1.4154 4.9086 1.3447 0.33496-0.0558 1.9812-0.73852 3.6584-1.5173 5.5215-2.5638 9.3251-3.6877 15.103-4.4627 3.4468-0.46713 6.9318-0.57048 9.1697-0.76112 3.7733 0.0272 9.4789 0.54107 12.565 1.1057 7.8716 0.88082 14.454 2.8863 17.894 4.6862 1.1046 0.57792 0.8305-1.0294 2.961 17.364 1.2698 10.963 3.7041 30.849 4.0123 32.776 0.15674 0.98052 0.4204 1.9947 0.58589 2.2537 0.36001 0.56346 1.4561 0.56992 6.6381 1.7142 7.0501 1.5568 9.3065 2.3951 9.3065 2.3951 0.14958 0.54783 0.56519 5.2963 0.47193 5.3919-0.0473 0.0485-2.6929-0.41706-5.8791-1.0346-3.1862-0.61749-6.6024-1.1747-7.5916-1.2382-1.7843-0.11457-1.8013-0.11122-2.1424 0.42274-0.3286 0.51434-0.32538 0.67455 0.0727 3.6122 0.22909 1.6907 0.64642 4.9268 0.9274 7.1914 0.28097 2.2646 0.58907 4.3283 0.68464 4.5862 0.25739 0.69428 1.4739 1.2385 7.572 3.3874 5.854 2.0629 8.2239 3.1318 8.8158 3.976 0.27022 0.38544 0.45951 1.3771 0.73229 3.8363 0.90624 8.1699 2.2441 19.573 2.9594 25.224 0.42873 3.3871 1.0913 8.8841 1.4724 12.216 0.69511 6.0772 1.6411 14.038 5.1226 43.108 1.0307 8.6065 2.183 18.238 2.5607 21.403 0.37765 3.165 0.87009 6.6937 1.0943 7.8416 0.22421 1.1479 0.37459 2.1209 0.33419 2.1624-0.0404 0.0414-0.46784-0.43148-0.94982-1.051-1.327-1.7055-4.0546-4.2813-5.8089-5.4855-4.9776-3.417-12.182-5.8274-19.475-6.5162-2.8772-0.27171-13.389-0.13424-16.842 0.22024-11.904 1.2224-27.559 6.4544-39.617 13.24-8.782 4.9426-15.185 9.7214-21.486 16.036-4.7662 4.776-7.7189 8.4726-10.204 12.774-0.75373 1.3049-1.4084 2.3725-1.4549 2.3725-0.0465 0-0.0919-0.11358-0.10105-0.2524zm7.0631-18.528c0.35639-0.22283 1.5967-1.3386 2.7563-2.4794 8.2948-8.1606 20.752-16 34.397-21.646 4.8026-1.9872 8.938-3.3363 14.586-4.7583 5.4435-1.3705 7.8728-1.8259 12.803-2.3997 12.056-1.4033 22.435-0.55763 31.281 2.5489 1.4077 0.49432 2.9697 1.0432 3.4712 1.2198 1.0887 0.38339 1.489 0.26688 1.6803-0.48913 0.0857-0.3388-0.22552-3.5866-0.77973-8.1356-1.6767-13.762-3.6557-30.243-4.8613-40.483-0.6537-5.5526-1.4509-12.231-1.7716-14.841-0.32066-2.6097-0.8931-7.4253-1.2721-10.701-1.7204-14.872-2.4893-21.023-2.7174-21.739-0.21651-0.68009-0.42094-0.86258-1.6872-1.5061-1.7369-0.88269-6.6898-2.5993-7.4996-2.5993-0.73626 0-1.199 0.4704-1.199 1.2189 0 0.32141 0.13744 1.5949 0.30541 2.83 0.20896 1.3776 0.27408 2.7418 0.1868 4.1244-1.9394 0.58317-3.4842 0.79873-5.4142 0.97196l-1e-3 -0.68583c-3e-3 -1.7907-1.4179-10.143-1.798-10.613-0.27224-0.3363-3.663-1.1098-9.5216-2.1721-10.308-1.869-14.006-2.1354-29.641-2.1354h-11.189l-0.0601-9.278c-0.0443-6.8324-0.12189-9.3413-0.29441-9.5181-0.18102-0.18549-1.0539-0.16287-3.8392 0.0995-6.4603 0.60844-16.066 1.9502-18.308 2.5574-1.0345 0.28015-1.2197 0.99576-1.1045 4.2677 0.0675 1.9174 0.16771 2.683 0.37961 2.9004 0.15832 0.16238 1.9902 0.88676 4.0707 1.6097 9.0273 3.1369 13.146 5.6002 18.297 10.943l2.6087 2.7059-2.8e-4 53.038-2.7e-4 53.038-0.97292-1.6589c-1.5023-2.5618-2.474-3.8371-4.4471-5.837-2.1945-2.2243-5.3984-4.4653-8.6504-6.0506-2.6816-1.3072-8.373-3.2994-9.8853-3.4602l-1.0198-0.10845-0.15548 0.78399c-0.0855 0.43116-0.15818 9.1431-0.16149 19.36-7e-3 21.003-0.0803 20.022 1.4295 19.078zm-72.342-31.47c9.6901-5.6222 21.197-10.062 33.258-12.832 2.4946-0.57295 10.699-1.8079 14.121-2.1255 1.2453-0.11559 5.6863-0.21045 9.869-0.21084h7.6049l0.15064-35.486c0.14596-34.383 0.0548-53.714-0.26011-55.172-0.28328-1.3115-0.29457-1.313-9.7845-1.3076-10.52 6e-3 -14.001 0.3452-21.814 2.1255-10.412 2.3726-23.828 7.4156-24.682 9.2776-0.29383 0.6407-0.57972 2.7531-1.9402 14.336-0.60656 5.1639-2.0313 17.112-3.1661 26.551-4.8387 40.248-6.3797 53.407-6.3797 54.475 0 0.748 0.29159 1.7577 0.5076 1.7577 0.0679 0 1.1998-0.6244 2.5151-1.3876zm90.299-50.98v-43.887c-5.5973-5.5726-12.025-9.3616-19.487-11.002 0.4653 30.852 0.36585 63.377-0.0188 91.313 4.6218 0.40788 13.1 4.1294 19.373 7.9634zm-93.385-45.747c2.688-1.6578 5.1381-3.2833 5.4448-3.6122 0.7042-0.75539 0.79174-1.1746 1.5145-7.2523 1.1277-9.4833 2.2023-17.721 2.3291-17.854 0.33767-0.35565 8.3602-3.8943 11.054-4.8758 10.244-3.7325 21.015-6.191 29.924-6.8305 4.8462-0.34784 15.666-0.1177 19.959 0.42454 2.5922 0.32741 3.5759 0.38495 3.738 0.21868 0.34992-0.35887 0.4882-5.2348 0.50514-17.811l0.0157-11.644 1.2798-2.2245c0.70386-1.2235 1.7256-2.7942 2.2704-3.4905 2.0034-2.5601 1.7745-2.9421-2.5658-4.2811-6.5556-2.0224-12.929-2.9927-22.296-3.3943-10.418-0.44663-20.022 0.28154-28.696 2.1756-8.6062 1.8794-20.476 6.0017-20.953 7.277-0.1961 0.52409-0.87628 5.7459-1.9814 15.211-0.6029 5.1639-1.5774 13.296-2.1655 18.071s-1.3846 11.499-1.7701 14.941c-0.88916 7.9417-3.0272 25.192-3.2504 26.225-0.19218 0.88977 0.0376 1.7395 0.47038 1.7395 0.15715 0 2.485-1.3564 5.173-3.0142zm15.529-7.9993c5.689-2.5405 18.431-6.2259 24.76-7.1615 8.1143-1.1995 12.726-1.4917 21.054-1.3339l6.6447 0.12594 0.0143-1.3632c0.0301-2.8836 0.33445-8.8497 0.46784-9.1729 0.31351-0.7596 9.7734-2.4297 20.387-3.5993 5.7706-0.63589 7.9343-0.98264 8.2683-1.325 0.258-0.2645 0.30352-2.5567 0.35431-17.841l0.0582-17.537-2.0271-1.673c-3.667-3.0264-8.1859-5.8412-9.3776-5.8412-0.9499 0-4.0828 3.6934-5.4019 6.3684l-0.50184 1.0177-0.0669 17.592c-0.0368 9.6756-0.13267 17.659-0.21314 17.742-0.0804 0.0825-0.92212-0.0933-1.8704-0.39049-5.4925-1.7218-16.252-2.9675-22.088-2.5574-7.2058 0.50624-12.68 1.1973-16.915 2.1351-8.4597 1.8736-16.882 4.6021-23.453 7.5983l-1.0771 0.49108-0.6353 5.0362c-0.34942 2.7699-0.77111 6.0356-0.9371 7.2572-0.49158 3.6178-0.38419 5.3507 0.3316 5.3507 0.0927 0 1.0935-0.41305 2.224-0.91787zm131.21-1.4075c0.28411-0.35108 0.20613-1.7503-0.41054-7.3664-0.5871-5.3468-0.89769-7.1188-1.3008-7.4211-0.19057-0.14291-0.66676-0.34828-1.0582-0.45638-4.4792-1.237-37.059-1.6837-39.352-0.53961-0.26418 0.1318-0.5654 0.51221-0.66939 0.84536-0.10397 0.33316-0.19776 2.6955-0.20836 5.2497-0.0215 5.1736 0.0779 5.688 1.1595 5.9994 0.32485 0.0935 4.5332 0.30254 9.3518 0.46447 4.8187 0.16192 10.046 0.39168 11.616 0.51055 4.0687 0.30807 12.352 1.4983 16.046 2.3056 3.5491 0.77567 4.4663 0.85328 4.8263 0.40842zm-2.5578-21.808c0.42847-0.52948 0.0949-5.6737-0.88352-13.624-0.49884-4.0534-1.5244-12.594-2.279-18.98-1.4643-12.391-1.6648-13.788-2.0758-14.468-0.42957-0.71038-4.7387-1.9947-11.013-3.2824-4.9133-1.0084-6.5567-1.1284-15.451-1.1284-9.0444 0-9.6357 0.0583-14.521 1.4315-2.3527 0.66127-5.1805 1.8369-5.4352 2.2595-0.25961 0.43078 0.17033 0.89794 2.2104 2.4018 2.9014 2.1388 5.5555 4.3384 7.3595 6.0992l1.5272 1.4906v36.896l8.0229 3e-3c11.177 4e-3 23.234 0.34827 27.711 0.79149 4.7904 0.47421 4.537 0.46848 4.8279 0.10897z"
         fill="url(#linearGradient6087)"
         style="paint-order:fill markers stroke"
         id="path150" /></g><rect
       x="266.21"
       y="271.5"
       width="236.67"
       height="232.79"
       ry="116.4"
       fill="url(#linearGradient5433)"
       fill-rule="evenodd"
       stroke="#084d83"
       stroke-linecap="round"
       stroke-linejoin="round"
       stroke-width="5"
       style="paint-order:stroke fill markers"
       id="rect154" /><g
       transform="translate(-35.285 -7.4406)"
       fill-rule="evenodd"
       id="g166"><path
         d="m347.05 321.24h149.83v108.23c0.0259 60.24-50.293 42.132-74.697 69.786-19.085-27.069-75.095-9.5509-75.127-69.786v-108.23"
         fill="#fff"
         fill-opacity=".85769"
         id="path156" /><path
         d="m495.04 424.83h-146.16v-31.417h146.16zm-146.16-55.607v-46.13h146.16v46.13h-3.4872v-6.7953h-6.1185v6.7953h-3.1814l-0.84005-13.69 0.15504-0.25003 4.3098-6.3997v-5.7309h-5.8261v5.2536h-4.967v-5.2536h-7.0207v5.2536h-4.7276v-5.2536h-5.9219v5.6359l4.4016 6.536-0.78131 13.899h-1.638v-6.8141h-6.1185v6.8141h-5.8073v-6.8141h-6.1185v6.8141h-2.7638l-1.6071-22.075 6.3087-8.0214v-7.0136h-8.3521v6.44h-7.5229v-6.44h-10.201v6.44h-6.9495v-6.44h-8.6072v6.9496l6.7985 8.3138-1.4912 21.846h-3.266v-6.8141h-6.1185v6.8141h-5.9873v-6.8141h-6.1185v6.8141h-2.222l-0.78131-13.46 4.3976-6.7707v-5.8301h-5.7415v5.2028h-4.9329v-5.2028h-7.1313v5.2028h-4.53v-5.2028h-6.01v5.7856l4.3832 6.4492-0.7524 13.826h-3.4788v-6.7551h-6.1536v6.7551h-3.6266"
         fill="#fffdfd"
         id="path158" /><path
         d="m495.04 424.83v3.7105c0.0722 60.604-52.609 42.377-72.555 67.99-19.249-25.584-73.574-9.3059-73.606-67.99v-3.7105h146.16zm-72.507 8.1836c10.972 0 19.92 8.9482 19.92 19.92 0 7.8102-4.5352 14.478-11.107 17.67 0.88583 1.4676 2.1394 2.6106 2.6437 2.6199 1.783 1.6113 2.249 2.798 2.835 4.4701-1.6245-1.075-3.6875-1.9584-5.6719-1.9555-1.5163-0.036-2.7514-0.22119-3.2216-0.72125-0.8599-1.2713-1.883-2.2347-2.621-2.586-0.90753 0.12409-1.8336 0.18917-2.7752 0.18917-1.3909 0-2.6622-0.13943-3.9738-0.40719-0.79163 0.30083-1.5711 1.5391-2.8599 2.9911-0.70776 1.2835-2.8244 2.1828-4.3635 2.0328-1.3176-0.11457-2.5445 8e-3 -3.7351 0.40428 0.15081-2.3678 1.1099-4.3296 2.3564-5.4644 1.1906 0.16748 2.276-0.52705 3.2486-1.8333-6.2913-3.2856-10.592-9.8052-10.592-17.411 0-10.972 8.9485-19.92 19.921-19.92zm0 7.8237c7.8806 0 14.309 6.4286 14.309 14.31 0 7.8817-6.4275 14.31-14.309 14.31s-14.31-6.4275-14.31-14.31c0-7.8806 6.4275-14.31 14.31-14.31zm-61.096-35.053c1.8624-1.1287 3.5471-1.9772 6.2849-2.1579 1.2495 0.0897 2.1951 0.48049 3.88 1.0655 2.0121 0.54557 4.1711 0.76491 6.4759 0.65511-2.712 1.2002-5.3122 2.0341-7.5136 1.5576-1.229-0.20876-2.2222-0.4908-3.4696-0.92816-2.2252-0.42889-3.8685-0.34607-5.6565-0.19103zm34.801 0c1.8614-1.1287 3.547-1.9772 6.2849-2.1579 1.2494 0.0897 2.1952 0.48049 3.8798 1.0655 2.0122 0.54557 4.1712 0.76491 6.4759 0.65511-2.712 1.2002-5.3123 2.0341-7.5136 1.5576-1.229-0.20876-2.2222-0.4908-3.4695-0.92816-2.2254-0.42889-3.8695-0.34607-5.6565-0.19103zm34.801 0c1.8614-1.1287 3.547-1.9772 6.2849-2.1579 1.2496 0.0897 2.1952 0.48049 3.8798 1.0655 2.0124 0.54557 4.1714 0.76491 6.4762 0.65511-2.712 1.2002-5.3126 2.0341-7.5139 1.5576-1.2287-0.20876-2.222-0.4908-3.4695-0.92816-2.2252-0.42889-3.8695-0.34607-5.6565-0.19103zm34.801 0c1.8614-1.1287 3.5473-1.9772 6.2849-2.1579 1.2496 0.0897 2.1952 0.48049 3.8798 1.0655 2.0124 0.54557 4.1714 0.76491 6.4762 0.65511-2.712 1.2002-5.3123 2.0341-7.5139 1.5576-1.2287-0.20876-2.222-0.4908-3.4695-0.92816-2.2252-0.42889-3.8695-0.34607-5.6565-0.19103zm-15.083 11.339c1.8614-1.1284 3.547-1.977 6.2846-2.1579 1.2496 0.09 2.1963 0.48048 3.8798 1.0644 2.0124 0.54584 4.1714 0.76491 6.4762 0.65537-2.712 1.1999-5.3123 2.0341-7.5136 1.5576-1.229-0.20876-2.2222-0.49107-3.4698-0.92816-2.2251-0.42889-3.8685-0.34634-5.6565-0.1913zm-74.237 0c1.8616-1.1284 3.5473-1.977 6.2849-2.1579 1.2496 0.09 2.1952 0.48048 3.8798 1.0644 2.0124 0.54584 4.1714 0.76491 6.4762 0.65537-2.712 1.1999-5.3123 2.0341-7.5139 1.5576-1.2287-0.20876-2.222-0.49107-3.4695-0.92816-2.2251-0.42889-3.8695-0.34634-5.6565-0.1913zm37.118 0c1.8616-1.1284 3.5473-1.977 6.2849-2.1579 1.2496 0.09 2.1963 0.48048 3.8798 1.0644 2.0124 0.54584 4.1714 0.76491 6.4762 0.65537-2.712 1.1999-5.3123 2.0341-7.5136 1.5576-1.229-0.20876-2.2222-0.49107-3.4698-0.92816-2.2251-0.42889-3.8685-0.34634-5.6565-0.1913"
         fill="#11b1ee"
         id="path160" /><path
         d="m422.53 433.54c3.2123 0 6.2455 0.79058 8.9151 2.1881 0.12938 0.0836 0.66887 0.58896 0.85698 0.78131 1.5616 1.4335 2.6808 3.3041 3.1615 5.3732 0.0495 0.14896 0.0815 0.27702 0.1188 0.42995 9e-3 0.0423 0.0259 0.10557 0.0466 0.1643 0.0103 0.0498 0.0341 0.0953 0.0672 0.1315 3e-3 4e-3 7e-3 8e-3 0.0114 0.0122 0.0516 0.0529 0.12488 0.0849 0.20558 0.0849 0.16007 0 0.29157-0.13044 0.29157-0.29157 0-0.0548-0.0156-0.10636-0.0426-0.15081-0.063-0.36063-0.17251-0.90752-0.33999-1.2248v7e-3c-0.15081-1.2711-1.2525-2.686-1.9431-3.7238-0.0423-0.059-0.0857-0.11774-0.13017-0.17462 4.2304 3.0334 7.1946 7.7298 7.9211 13.12-0.46514-0.91996-1.0779-1.7912-1.7044-2.0474-0.0423-0.0249-0.0918-0.0384-0.14552-0.0384-0.16034 0-0.29158 0.13017-0.29158 0.29157 0 0.14367 0.10531 0.26458 0.24289 0.28733l0.0392 7e-3 -6e-3 -4e-3c1.0882 0.78025 1.6124 2.3058 2.032 3.5782 4e-3 0.16933 6e-3 0.33999 6e-3 0.51144 0 7.5097-4.3244 14.042-10.611 17.234-4e-3 -5e-3 -8e-3 -0.0114-0.0135-0.0167 0 0-1e-3 -8e-4 -2e-3 -2e-3 -9e-3 -0.0103-0.0196-0.0198-0.031-0.0291-0.1778-0.16007-0.40931-0.29554-0.64506-0.41434 0.48578-0.2966 1.0089-0.73078 1.4253-1.0544 0.4826-0.3855 1.0221-0.73687 1.4303-1.2092 0.7194-0.83079 1.692-1.451 2.3556-2.3553 1.202-1.3208 1.3465-2.0569 2.4834-3.6608 0.65855-0.93954 0.89402-2.1643 1.3115-3.2152 0.24183-0.68025 0.39396-1.3912 0.54477-2.096 0.19421-0.771 0.14156-1.6351 0.14156-2.4207 0-0.16008-0.13018-0.29131-0.29131-0.29131-0.16034 0-0.29157 0.13018-0.29157 0.29131v1.4377c-0.15399 1.5142-0.66966 3.1078-1.1978 4.5268-0.47334 1.2745-1.2816 2.2976-1.9204 3.4666-0.0434 0.0786-0.47334 0.6313-0.73686 0.99219-0.96838 1.3041-2.2233 2.282-3.3467 3.4354-0.75222 0.56435-1.633 1.3787-2.4503 1.788-0.0331 0.0156-0.0632 0.0373-0.0878 0.064-0.6739-0.32253-1.2734-0.41328-1.8997-0.45773 5.4869-2.1892 9.3813-7.5594 9.3813-13.812 0-0.60167-0.0362-1.1949-0.10636-1.7777 0.74295-1.3322 0.499-3.6536 0.499-5.0779 0-0.16007-0.13017-0.29131-0.2913-0.29131-0.16034 0-0.29158 0.13018-0.29158 0.29131v7e-3c0 1.1864 0.0622 2.3553-0.0796 3.5399-0.0114 0.0857-0.0257 0.17674-0.0423 0.26961-0.8165-3.9047-3.175-7.2565-6.4048-9.3834 0.0217-0.0402 0.0352-0.0878 0.0352-0.13732 0-0.12091-0.0743-0.22648-0.18097-0.26987-0.71729-0.31512-1.2578-1.0562-1.8457-1.547-0.82999-0.69162-1.9534-1.4057-2.9961-1.697-1.2806-0.47863-2.6657-0.37518-4.0039-0.37518-0.16033 0-0.29157 0.13018-0.29157 0.29131 0 0.16033 0.13018 0.29157 0.29157 0.29157h0.0683c2.5694-0.1913 5.025 0.37915 6.8966 2.25 0.0466 0.0463 0.0939 0.0939 0.14156 0.1405-1.9026-0.88874-4.0235-1.3851-6.2569-1.3851-2.6707 0-5.18 0.71015-7.3496 1.9524 0.70909-0.87948 1.6962-1.4004 2.5911-2.1466 0.09-0.0704 0.12832-0.0786 0.23892-0.0992 0.14049-0.0196 0.25003-0.14155 0.25003-0.28839 0-0.16008-0.13018-0.29131-0.29157-0.29131-0.036 0-0.0712 6e-3 -0.10425 0.0185-0.60166 0.1778-1.6238 1.0573-2.1177 1.4584-0.83 0.56119-1.2536 1.3126-1.759 2.1093-3.8179 2.6945-6.3201 7.1387-6.3201 12.15 0 4.8845 2.377 9.2305 6.0338 11.942-1.7105-0.90118-3.4367-2.0474-4.7884-3.3994l4e-3 -2e-3c-0.15478-0.23363-0.4019-0.35058-0.58182-0.57071-0.69242-0.83185-1.1729-1.7672-1.7455-2.68-0.49001-1.1078-0.53948-2.4371-0.53763-3.637 0-0.16007-0.13018-0.2913-0.29131-0.2913-0.16033 0-0.29157 0.13017-0.29157 0.2913 1e-3 1.1163 0.0291 2.5694 0.46832 3.6039 0.45772 1.0263 1.1607 1.9627 1.7849 2.8887 0.62019 0.74322 1.4158 1.351 2.1487 1.9918 1.3023 1.0491 2.6839 1.8944 4.1796 2.6405 0.47334 0.31829 1.4232 0.80301 2.1942 1.0388-0.64797 0.17886-1.9502 0.64903-2.707 1.0697-4.7024-2.4887-8.2651-6.8628-9.6687-12.104 0.27702 0.0683 1.3499-1.1017 1.4203-1.2414 0.52996-0.60352 0.77602-2.005 0.77602-2.7781 0-1.424-0.0765-2.7511-0.33073-4.1484-0.41327-2.1788-0.30162-4.377 0.1188-6.5402 1.8666-3.1843 4.6199-5.792 7.9158-7.4798-0.37201 0.51488-0.67072 1.0697-0.80301 1.7529-5e-3 0.0281-0.0175 0.054-0.0267 0.0818-0.01 0.0288-0.0145 0.0601-0.0145 0.0921 0 0.16008 0.13018 0.29131 0.29131 0.29131 0.13044 0 0.24103-0.0857 0.27807-0.20452 8e-3 -0.0249 0.0199-0.0498 0.0249-0.0754 0.14367-0.98716 0.81042-1.7613 1.4552-2.5032 2.3222-0.99219 4.8752-1.542 7.5541-1.542zm8.2341 36.904c0.29051 0.30692 0.58182 0.74401 0.87339 1.4086 0.38762 0.84032 1.0996 1.4232 2.1341 1.7465 1.1483 0.7276 1.941 1.9897 2.5715 3.4933-1.3187-0.97975-2.6625-1.765-4.2291-1.8283-0.92605-0.037-1.7293-0.0982-3.1462-0.20876-1.3293-0.72443-1.723-2.3191-3.1224-2.8948 1.202 0.40402 2.1291 1.36 3.5213 1.36 0.16007 0 0.2913-0.13018 0.2913-0.29131 0-0.16034-0.13017-0.29157-0.2913-0.29157-0.44556 0-0.81757-0.0868-1.2269-0.25823-1.047-0.59955-1.9566-1.2319-3.1988-1.2756-0.17145-0.55086-0.3421-1.1036-0.16854-1.6526 0.60987-0.0929 1.2084-0.2241 1.7923-0.38947l0.2884 0.0278h0.42994c1.084-2e-3 2.6241 0.3122 3.4787 1.0562zm-6.2248 1.6235c-0.41751 0.0434-0.83926 0.0736-1.2652 0.09-0.0381-0.14472-0.0889-0.29448-0.11668-0.41857-0.23257-0.7866-0.11165-1.233 0.10134-1.8375 0.29977-0.0145 0.59848-0.0384 0.89296-0.0704-0.13652 0.77417 0.22622 1.4605 0.38656 2.2365zm-1.8606 0.10451h-0.1487c-0.2151 0-0.42889-3e-3 -0.64293-0.0103-0.0466-0.0601-0.0992-0.11378-0.15505-0.17172-0.42571-0.44344-0.39793-1.4232-0.19209-2.1032 0.32756 0.0206 0.65829 0.0331 0.99219 0.0331h0.11271c-0.20055 0.61807-0.29686 1.1494-0.054 1.9463 0.0177 0.0804 0.0569 0.1942 0.091 0.30585zm-1.5761-0.0526c-0.30586-0.0228-0.61172-0.0519-0.91361-0.0889-0.0775-0.75671-0.15716-1.5473-0.0185-2.2987 0.25638 0.0413 0.51567 0.0754 0.77708 0.10345-0.19844 0.7419-0.20452 1.6732 0.15505 2.2842zm-1.515-0.17277c-0.1262-0.0185-0.25109-0.0392-0.37624-0.0609-0.10345-0.79375-0.20452-1.5266-0.0796-2.3275 0.0206-5e-3 0.0413-0.0114 0.0622-0.0167 0.13415 0.0312 0.27067 0.0601 0.4072 0.0878-0.10954 0.63976-0.0889 1.3107-0.0839 1.9505 0.0124 0.11774 0.0445 0.24262 0.0704 0.36777zm-0.97975-0.17674c-0.0238-5e-3 -0.0487-9e-3 -0.0736-0.0154 0.12726-0.0228-0.91652 0.24474-1.4552 1.0189-0.78423 1.1554-1.7383 2.2728-2.9115 3.2991-1.3258 0.69665-2.5392 0.712-3.7362 0.6305-0.77602-0.0683-1.5523 0.14367-2.3283 0.33894 0.2458-1.4047 0.91757-2.8805 1.9407-4.4151 1.0028 0.032 1.7468-0.19341 2.2315-0.67918 0.65538-0.71517 1.3115-1.266 1.9669-1.6515 0.68606-0.37306 2.8681-1.0843 3.4869-1.1761 0.16748 0.0566 0.33708 0.11139 0.50747 0.16324-0.29871 0.127-0.59637 0.26141-0.89297 0.37518-1.2464 0.69559-2.127 1.9068-3.4168 2.5516-0.095 0.0476-0.16113 0.14685-0.16113 0.26062 0 0.16007 0.13018 0.29131 0.29131 0.29131 0.0466 0 0.091-0.0114 0.12938-0.0299 0.66966-0.33497 1.2682-0.82153 1.8365-1.3084 0.71305-0.70802 1.5565-1.2898 2.4929-1.66-0.0651 0.67918 4e-3 1.324 0.09 2.005zm-14.883-14.494c-0.33391-1.419-0.51171-2.899-0.51171-4.4183 0-2.9064 0.64797-5.6668 1.8076-8.1441-0.20162 1.7963-0.16537 3.605 0.20055 5.3845 0.18495 0.64902 0.15822 1.4026 0.25532 2.1529l4e-3 -3e-3c0 0.73792-0.0299 1.4748-0.0413 2.2066l6e-3 -8e-3c-0.1532 0.61489-0.25427 1.1348-0.53552 1.7105l1e-3 -6e-3c-0.18494 0.30692-0.71834 1.0739-1.1864 1.1255"
         fill="#fffdfd"
         id="path162" /><path
         d="m462.42 355.44h18.462l2.1127 36.924h-22.595zm7.5324 4.5921h3.1221v8.7249h-3.1221zm-9.3173-7.4538h22.107l-1.5573 2.2685h-19.009l-1.5399-2.2685zm-2.559-8.9112h4.8152v5.2131h5.6512v-5.2131h6.0494v5.2131h5.9695v-5.2131h4.7358v5.0541l-2.2119 3.2639h-22.803l-2.2087-3.2639v-5.0541zm-94.592 11.773h18.462l2.1127 36.924h-22.595zm7.5324 4.5921h3.1223v8.7249h-3.1223zm-9.338-7.4538h22.175l-1.5058 2.2685h-19.093l-1.5751-2.2685zm-2.5383-8.9112h4.8152v5.2131h5.6513v-5.2131h6.0492v5.2131h5.9698v-5.2131h4.7355v5.0541l-2.096 3.2639h-22.947l-2.1797-3.2639v-5.0541zm61.401 9.1583h4.5392v10.699h-4.5392zm-11.51-5.8364h27.452l3.2419 45.609h-11.996v-16.86c-2.4672-3.2142-7.2234-3.3052-9.8351 0v16.86h-11.996zm-3.0644-3.4674h33.236l-2.2656 2.9207h-28.544l-2.4254-2.9207zm-3.723-10.892h7.4837v6.5712h8.0317v-6.5712h9.1271v6.5712h8.5794v-6.5712h7.3017v6.2674l-3.1946 4.0762h-33.982l-3.3488-4.0762v-6.2674zm81.554 58.102h1.1472v2.1725h-1.0099zm2.4826 0h9.0752v2.1725h-9.0752zm5.3091-5.2059h3.9407v3.915h-3.9407zm-8.1224 0h6.6683v3.915h-6.4204zm2.8133-5.2049h9.0752v3.915h-9.0752zm-3.144 0h1.7497v3.915h-1.5007l-0.24791-3.915zm8.3942-5.2057h4.0008v3.915h-4.0008zm-8.7249 0h7.3006v3.915h-7.0517l-0.24791-3.915zm3.5047-5.2049h9.0755v3.915h-9.0755zm-3.8354 0h2.4112v3.915h-2.1632zm-42.362 20.923h2.5239v2.1725h-2.3852l-0.13759-2.1725zm3.8592 0h9.0755v2.1725h-9.0755zm10.411 0h5.515l-0.12515 2.1725h-5.3888v-2.1725zm-5.1014-5.2059h9.0752v3.915h-9.0752zm-9.4993 0h8.0452v3.915h-7.797zm14.66-5.2049h6.0574l-0.22621 3.915h-5.8312zm-10.47 0h9.0755v3.915h-9.0755zm-4.5207 0h3.1266v3.915h-2.8774l-0.24818-3.915zm9.7711-5.2059h9.0755v3.915h-9.0755zm-10.102 0h8.6775v3.915h-8.4283l-0.24817-3.915zm15.381-5.2046h6.6l-0.22622 3.9148h-6.3738zm-10.499 0h9.0752v3.9148h-9.0752zm-5.2123 0h3.788v3.9148h-3.5388l-0.24818-3.9148zm-53.997 20.821h5.5335v2.1725h-5.4147zm6.8688 0h9.0755v2.1725h-9.0755zm10.411 0h3.2443l-0.15611 2.1725h-3.0882zm-17.566-5.2059h0.48181v3.915h-0.26564l-0.21511-3.915zm12.465 0h8.7209l-0.28126 3.915h-8.4386v-3.915zm-10.53 0h9.0755v3.915h-9.0755zm15.691-5.2049h3.9349l-0.28125 3.915h-3.6526v-3.915zm-10.471 0h9.0755v3.915h-9.0755zm-7.4414 0h6.0473v3.915h-5.8322zm12.692-5.2059h9.0755v3.915h-9.0755zm-10.501 0h9.0755v3.915h-9.0755zm-2.4773 0h1.0544v3.915h-0.8382l-0.21511-3.915zm18.257-5.2046h4.6241l-0.28126 3.9148h-4.3429zm-10.499 0h9.0752v3.9148h-9.0752zm-8.0441 0h6.6199v3.9148h-6.4037l-0.21511-3.9148zm-34.039 20.821h9.0754v2.1725h-9.0754zm10.411 0h0.68934l-0.13745 2.1725h-0.55189zm-5.1015-5.2059h6.1216l-0.24805 3.915h-5.8725v-3.915zm-5.9418 0h4.4886v3.915h-4.4886zm11.103-5.2049h1.2919l-0.24804 3.915h-1.0428v-3.915zm-10.471 0h9.0754v3.915h-9.0754zm5.2503-5.2059h6.843l-0.24804 3.915h-6.5939v-3.915zm-5.8828 0h4.4586v3.915h-4.4586zm11.162-5.2046h1.8934l-0.24805 3.9148h-1.6454zm-10.5 0h9.0754v3.9148h-9.0754zm92.277-6.9805h5.0064v5.9891h-5.0064zm11.891 0h5.0064v5.9891h-5.0064zm32.185 0h5.0064v5.9891h-5.0064zm-132.94 0h5.0064v5.9891h-5.0064zm32.9 0h5.0064v5.9891h-5.0064zm12.16 0h5.0062v5.9891h-5.0062zm61.715 22.585h0.36592l-0.23151 3.9193h-0.13335v-3.9193zm0-10.417h0.96864l-0.24183 3.8756h-0.72681v-3.8756"
         fill="#ec2a32"
         id="path164" /></g></g></svg>
