<?xml version="1.0" encoding="UTF-8" standalone="no"?>
<!-- Created with Inkscape (http://www.inkscape.org/) -->

<svg
   width="1935.1mm"
   height="1935.1mm"
   viewBox="0 0 1935.1 1935.1"
   version="1.1"
   id="svg1"
   inkscape:version="1.3.2 (091e20e, 2023-11-25, custom)"
   sodipodi:docname="baptysci-logo-2025-gray-bold.svg"
   inkscape:export-filename="baptysci-logo-2025-gray.png"
   inkscape:export-xdpi="3.3602397"
   inkscape:export-ydpi="3.3602397"
   xmlns:inkscape="http://www.inkscape.org/namespaces/inkscape"
   xmlns:sodipodi="http://sodipodi.sourceforge.net/DTD/sodipodi-0.dtd"
   xmlns="http://www.w3.org/2000/svg"
   xmlns:svg="http://www.w3.org/2000/svg">
  <sodipodi:namedview
     id="namedview1"
     pagecolor="#cccccc"
     bordercolor="#000000"
     borderopacity="0.25"
     inkscape:showpageshadow="2"
     inkscape:pageopacity="0.0"
     inkscape:pagecheckerboard="0"
     inkscape:deskcolor="#d1d1d1"
     inkscape:document-units="mm"
     inkscape:zoom="0.13062132"
     inkscape:cx="3567.5646"
     inkscape:cy="3908.2441"
     inkscape:window-width="2560"
     inkscape:window-height="1369"
     inkscape:window-x="2552"
     inkscape:window-y="-8"
     inkscape:window-maximized="1"
     inkscape:current-layer="layer1" />
  <defs
     id="defs1">
    <linearGradient
       id="linearGradient5433-6"
       x1="28.811001"
       x2="454.17001"
       y1="485.62"
       y2="80.441002"
       gradientTransform="matrix(0.07603294,0,0,0.08662406,180.17069,477.11309)"
       gradientUnits="userSpaceOnUse">
      <stop
         stop-color="#ed2c32"
         offset="0"
         id="stop137"
         style="stop-color:#f8c7c8;stop-opacity:1;" />
      <stop
         stop-color="#11b1ee"
         offset="1"
         id="stop139"
         style="stop-color:#d4f4fb;stop-opacity:1;" />
    </linearGradient>
    <filter
       style="color-interpolation-filters:sRGB;"
       inkscape:label="Greyscale"
       id="filter1"
       x="-0.0032970698"
       y="-0.0028087363"
       width="1.0066342"
       height="1.0073332">
      <feColorMatrix
         values="0.21 0.72 0.072 0 0 0.21 0.72 0.072 0 0 0.21 0.72 0.072 0 0 0 0 0 1 0 "
         id="feColorMatrix1" />
    </filter>
    <filter
       style="color-interpolation-filters:sRGB;"
       inkscape:label="Greyscale"
       id="filter2"
       x="-0.097964466"
       y="-0.08601117"
       width="1.1959289"
       height="1.1720223">
      <feColorMatrix
         values="0.21 0.72 0.072 0 0 0.21 0.72 0.072 0 0 0.21 0.72 0.072 0 0 0 0 0 1 0 "
         id="feColorMatrix2" />
    </filter>
    <filter
       style="color-interpolation-filters:sRGB;"
       inkscape:label="Greyscale"
       id="filter3"
       x="0"
       y="0"
       width="1"
       height="1">
      <feColorMatrix
         values="0.21 0.72 0.072 0 0 0.21 0.72 0.072 0 0 0.21 0.72 0.072 0 0 0 0 0 1 0 "
         id="feColorMatrix3" />
    </filter>
  </defs>
  <g
     inkscape:label="Warstwa 1"
     inkscape:groupmode="layer"
     id="layer1">
    <g
       id="g1">
      <path
         id="rect3089"
         style="fill:#ffffff;fill-rule:evenodd;stroke:#0e86e3;stroke-width:0;stroke-linecap:round;stroke-linejoin:round;paint-order:stroke fill markers;filter:url(#filter3);stroke-opacity:1;fill-opacity:1"
         d="m 402.31338,278.76007 c 184.73539,-22.24835 374.01942,-73.30473 543.5014,1.05187 126.33642,-62.46309 234.36942,-27.30796 345.21042,-7.1286 l 69.2577,428.983 98.7066,58.05139 91.3094,591.94787 c -239.3337,-118.376 -468.5014,2.1483 -697.25168,132.4831 l -0.30432,-268.6944 c -175.38056,-8.9213 -330.23469,39.6314 -478.78757,105.8276 l 70.92053,-586.10905 -112.04917,66.69231 z"
         sodipodi:nodetypes="cccccccccccc" />
      <g
         id="g7142"
         transform="matrix(6.3513002,0,0,5.7166143,1074.0591,-1456.2857)"
         style="fill:#000000;fill-opacity:1;stroke:#797979;stroke-opacity:1">
        <path
           style="opacity:1;fill:#000000;fill-opacity:1;stroke:#000000;stroke-width:4.99535035;stroke-linejoin:round;stroke-miterlimit:4;stroke-dasharray:none;stroke-opacity:1;paint-order:fill markers stroke"
           d="m -38.073142,529.57293 c -0.0094,-0.13882 -0.08886,-13.24541 -0.177329,-29.12578 -0.08845,-15.88038 -0.221896,-29.06875 -0.29659,-29.30747 -0.189111,-0.60447 -0.568198,-0.64792 -6.991021,-0.80105 -8.351511,-0.19911 -14.22096,0.31782 -22.050642,1.94213 -9.121686,1.8923 -19.33089,5.39367 -27.071116,9.28432 -6.13388,3.08324 -13.32651,7.56375 -17.61488,10.97286 -0.91713,0.72908 -1.69003,1.30255 -1.71752,1.27436 -0.0275,-0.0283 0.34442,-3.27164 0.82649,-7.20763 0.48207,-3.93599 1.67791,-13.92548 2.65742,-22.1988 0.97952,-8.27335 2.75076,-23.08357 3.93609,-32.91163 2.35285,-19.50848 4.81555,-40.16358 5.02369,-42.13475 0.24874,-2.35563 -0.13637,-2.55349 -2.45132,-1.25947 -3.8285,2.14008 -10.37114,7.11635 -14.28566,10.86555 -1.70943,1.63722 -1.77417,1.67773 -1.83545,1.14879 -0.0349,-0.30157 0.0742,-0.76382 0.24247,-1.02724 0.45044,-0.70503 0.63813,-1.77867 1.09413,-6.259 0.5139,-5.04911 1.49296,-13.42875 1.87105,-16.01406 0.15733,-1.07586 0.86792,-6.90799 1.57909,-12.9603 1.58712,-13.50708 4.58167,-38.66228 5.52833,-46.43973 1.15583,-9.49584 1.44576,-11.36992 1.81757,-11.74836 0.67864,-0.69077 5.64352,-3.01588 9.587769,-4.49008 1.08284,-0.40473 2.163471,-0.8195 2.401378,-0.92173 0.902,-0.38756 6.372558,-2.02502 9.017708,-2.6992 9.780288,-2.05037 19.220142,-3.7661 27.169542,-3.90686 11.806343,0.24915 23.337405,2.16709 33.66627,5.60329 2.9984,1.00845 4.48386,1.41539 4.90859,1.34471 0.33496,-0.0558 1.98123,-0.73852 3.65838,-1.51728 5.52148,-2.5638 9.3250799,-3.68768 15.1033299,-4.46266 3.44684004,-0.46713 6.93175,-0.57048 9.16974,-0.76112 3.7732901,0.0272 9.4788701,0.54107 12.5646901,1.10566 7.87159,0.88082 14.45426,2.88634 17.89436,4.6862 1.1046,0.57792 0.8305,-1.02944 2.96096,17.36361 1.26984,10.96291 3.70412,30.84859 4.01228,32.77622 0.15674,0.98052 0.4204,1.99471 0.58589,2.25374 0.36001,0.56346 1.45606,0.56992 6.63813,1.71422 7.05011,1.5568 9.30647,2.39512 9.30647,2.39512 0.14958,0.54783 0.56519,5.2963 0.47193,5.39194 -0.0473,0.0485 -2.69287,-0.41706 -5.87907,-1.03456 -3.1862,-0.61749 -6.60244,-1.17469 -7.59163,-1.23819 -1.78431,-0.11457 -1.80126,-0.11122 -2.14241,0.42274 -0.3286,0.51434 -0.32538,0.67455 0.0727,3.61221 0.22909,1.69071 0.64642,4.92683 0.9274,7.1914 0.28097,2.26456 0.58907,4.32833 0.68464,4.58615 0.25739,0.69428 1.47394,1.23851 7.57201,3.38745 5.85397,2.06292 8.22391,3.13179 8.81579,3.97603 0.27022,0.38544 0.45951,1.37706 0.73229,3.83632 0.90624,8.16993 2.24412,19.57319 2.95939,25.22396 0.42873,3.38707 1.0913,8.88412 1.47237,12.21567 0.69511,6.0772 1.64112,14.0382 5.12257,43.10818 1.03073,8.60648 2.18305,18.2377 2.56072,21.40266 0.37765,3.16496 0.87009,6.69367 1.0943,7.84156 0.22421,1.14787 0.37459,2.12093 0.33419,2.16237 -0.0404,0.0414 -0.46784,-0.43148 -0.94982,-1.05097 -1.327,-1.70549 -4.05465,-4.2813 -5.80889,-5.48553 -4.97761,-3.41697 -12.1817,-5.82741 -19.47475,-6.51615 -2.87721,-0.27171 -13.38916,-0.13424 -16.84157,0.22024 -11.90441,1.22235 -27.5594101,6.4544 -39.6165101,13.24029 -8.7819799,4.94259 -15.1851899,9.72138 -21.4864899,16.03564 -4.766219,4.77602 -7.71894,8.47255 -10.203534,12.77393 -0.753726,1.30486 -1.408422,2.37248 -1.454884,2.37248 -0.04646,0 -0.09188,-0.11358 -0.101051,-0.2524 z M -31.01,511.04466 c 0.356387,-0.22283 1.596731,-1.33855 2.756327,-2.47938 8.29479,-8.16059 20.7524199,-16.00015 34.3968199,-21.6459 4.8026301,-1.98725 8.9380401,-3.33632 14.5859701,-4.75833 5.4435,-1.37053 7.87283,-1.82587 12.80309,-2.3997 12.05645,-1.40329 22.43482,-0.55763 31.28141,2.54887 1.40769,0.49432 2.96971,1.04324 3.47115,1.2198 1.08867,0.38339 1.48895,0.26688 1.68032,-0.48913 0.0857,-0.3388 -0.22552,-3.58658 -0.77973,-8.13561 -1.67668,-13.7622 -3.65567,-30.24256 -4.86134,-40.48331 -0.6537,-5.55259 -1.45092,-12.23082 -1.77159,-14.84053 -0.32066,-2.60971 -0.8931,-7.42531 -1.27208,-10.70133 -1.72044,-14.87202 -2.48928,-21.02256 -2.71744,-21.73931 -0.21651,-0.68009 -0.42094,-0.86258 -1.68717,-1.50606 -1.73694,-0.88269 -6.68982,-2.59934 -7.4996,-2.59934 -0.73626,0 -1.19895,0.4704 -1.19895,1.21894 0,0.32141 0.13744,1.5949 0.30541,2.82999 0.20896,1.37765 0.27408,2.74176 0.1868,4.12438 -1.93941,0.58317 -3.48416,0.79873 -5.41422,0.97196 l -0.001,-0.68583 c -0.003,-1.79066 -1.41786,-10.14331 -1.79803,-10.61309 -0.27224,-0.3363 -3.66303,-1.10982 -9.52163,-2.17209 -10.30796,-1.86903 -14.00608,-2.13545 -29.6414901,-2.13545 h -11.18945 l -0.0601,-9.27805 c -0.0443,-6.83237 -0.12189,-9.34134 -0.29441,-9.51812 -0.18102,-0.18549 -1.0539099,-0.16287 -3.8391799,0.0995 -6.46028,0.60844 -16.065613,1.95019 -18.307737,2.55737 -1.03447,0.28015 -1.219675,0.99576 -1.104466,4.26766 0.06751,1.91743 0.167713,2.68304 0.379608,2.90035 0.158327,0.16238 1.990173,0.88676 4.070745,1.60973 9.02733,3.13693 13.14587,5.60016 18.2969999,10.9432 l 2.60868,2.70586 -2.8e-4,53.03826 -2.7e-4,53.03824 -0.97292,-1.65894 c -1.50234,-2.56175 -2.4740299,-3.8371 -4.4470799,-5.83699 -2.19448,-2.2243 -5.39839,-4.4653 -8.65037,-6.05058 -2.68155,-1.30721 -8.373011,-3.2994 -9.885297,-3.46018 l -1.019823,-0.10845 -0.155483,0.78399 c -0.08553,0.43116 -0.158181,9.14309 -0.161484,19.35984 -0.0073,21.00284 -0.08032,20.02184 1.429518,19.07781 z m -72.34154,-31.46959 c 9.690074,-5.62221 21.197397,-10.06213 33.258137,-12.83214 2.494637,-0.57295 10.698905,-1.80791 14.120638,-2.12553 1.245271,-0.11559 5.686327,-0.21045 9.869006,-0.21084 h 7.604869 l 0.150639,-35.48602 c 0.145961,-34.38267 0.0548,-53.71438 -0.260118,-55.17242 -0.283276,-1.3115 -0.294569,-1.31301 -9.784487,-1.30758 -10.520139,0.006 -14.000992,0.3452 -21.813599,2.12554 -10.411577,2.37258 -23.827848,7.41564 -24.681729,9.27765 -0.293829,0.6407 -0.57972,2.75308 -1.940231,14.33573 -0.606556,5.16389 -2.031313,17.11203 -3.166126,26.55141 -4.838659,40.24799 -6.379709,53.40665 -6.379709,54.47479 0,0.748 0.29159,1.75766 0.5076,1.75766 0.0679,0 1.19978,-0.6244 2.51511,-1.38758 z m 90.298807,-50.97976 v -43.88705 c -5.59734,-5.57257 -12.02548,-9.36156 -19.487333,-11.0019 0.465298,30.85185 0.365847,63.3773 -0.01884,91.31327 4.621843,0.40788 13.100003,4.12942 19.372543,7.96342 z m -93.385207,-45.74732 c 2.688,-1.65779 5.13814,-3.28327 5.44475,-3.61216 0.7042,-0.75539 0.79174,-1.17463 1.514488,-7.25232 1.127719,-9.48329 2.202329,-17.72094 2.329132,-17.85449 0.337667,-0.35565 8.36022,-3.89426 11.054042,-4.87575 10.244384,-3.73254 21.015057,-6.19105 29.924286,-6.8305 4.84625,-0.34784 15.666177,-0.1177 19.959115,0.42454 2.592188,0.32741 3.575872,0.38495 3.738012,0.21868 0.349918,-0.35887 0.488202,-5.2348 0.505141,-17.81103 l 0.01573,-11.64356 1.279765,-2.22454 c 0.703867,-1.2235 1.725565,-2.79423 2.270449,-3.49053 2.003447,-2.56012 1.774527,-2.94207 -2.5658,-4.2811 -6.555585,-2.02244 -12.928892,-2.99267 -22.296497,-3.39427 -10.41789,-0.44663 -20.022101,0.28154 -28.695631,2.17562 -8.606181,1.87938 -20.475792,6.00169 -20.952962,7.27696 -0.1961,0.52409 -0.87628,5.7459 -1.98139,15.21123 -0.6029,5.1639 -1.57736,13.29589 -2.16546,18.07111 -0.5881,4.77522 -1.38464,11.49888 -1.77008,14.94148 -0.88916,7.94169 -3.02716,25.1917 -3.25041,26.22528 -0.19218,0.88977 0.0376,1.73952 0.47038,1.73952 0.15715,0 2.48499,-1.35638 5.173,-3.01417 z m 15.529124,-7.99929 c 5.688973,-2.54046 18.430672,-6.22587 24.759611,-7.16149 8.114301,-1.19954 12.726405,-1.49174 21.054101,-1.3339 l 6.644729,0.12594 0.01427,-1.36322 c 0.03011,-2.88361 0.334448,-8.84972 0.467845,-9.17292 0.313508,-0.7596 9.773347,-2.42969 20.387277,-3.5993 5.77057,-0.63589 7.9342899,-0.98264 8.2682799,-1.32505 0.258,-0.2645 0.30352,-2.55666 0.35431,-17.84099 l 0.0582,-17.53749 -2.0270799,-1.67299 c -3.667,-3.02645 -8.18586,-5.84121 -9.37757,-5.84121 -0.9499,0 -4.08282,3.69342 -5.40189,6.36835 l -0.50184,1.01767 -0.0669,17.59194 c -0.0368,9.67557 -0.13267,17.65942 -0.21314,17.74191 -0.0804,0.0825 -0.92212,-0.0933 -1.870361,-0.39049 -5.492528,-1.72178 -16.251647,-2.96748 -22.088374,-2.55742 -7.205749,0.50624 -12.680036,1.19726 -16.914646,2.13512 -8.459668,1.87361 -16.881571,4.60214 -23.453032,7.59829 l -1.0771,0.49108 -0.635298,5.03617 c -0.349418,2.76989 -0.771113,6.03563 -0.937097,7.2572 -0.491587,3.61785 -0.384192,5.35067 0.331593,5.35067 0.09272,0 1.093497,-0.41305 2.223987,-0.91787 z m 131.213473,-1.40746 c 0.28411,-0.35108 0.20613,-1.75032 -0.41054,-7.36644 -0.5871,-5.34682 -0.89769,-7.11882 -1.30075,-7.42108 -0.19057,-0.14291 -0.66676,-0.34828 -1.05819,-0.45638 -4.47922,-1.23695 -37.05890006,-1.68368 -39.3521401,-0.53961 -0.26418,0.1318 -0.5654,0.51221 -0.66939,0.84536 -0.10397,0.33316 -0.19776,2.69553 -0.20836,5.24972 -0.0215,5.17363 0.0779,5.68798 1.1595,5.99941 0.32485,0.0935 4.53318,0.30254 9.35183,0.46447 4.8186701,0.16192 10.0458501,0.39168 11.6159701,0.51055 4.0687,0.30807 12.35194,1.49826 16.04579,2.30558 3.5491,0.77567 4.46628,0.85328 4.82628,0.40842 z m -2.55784,-21.80847 c 0.42847,-0.52948 0.0949,-5.67366 -0.88352,-13.62373 -0.49884,-4.05338 -1.52439,-12.59425 -2.27902,-18.97972 -1.46427,-12.39051 -1.66482,-13.7882 -2.07585,-14.46795 -0.42957,-0.71038 -4.73866,-1.99474 -11.01257,-3.28239 -4.9133,-1.0084 -6.55669,-1.12842 -15.4511601,-1.12842 -9.04444,0 -9.63573,0.0583 -14.52147,1.43154 -2.3526599,0.66127 -5.1805199,1.83686 -5.4352199,2.25952 -0.25961,0.43078 0.17033,0.89794 2.21039,2.40176 2.9014099,2.13877 5.5555099,4.33835 7.3594799,6.09916 l 1.52719,1.49065 v 18.44816 18.44814 l 8.02289,0.003 c 11.1772701,0.004 23.2335801,0.34827 27.7109701,0.79149 4.79039,0.47421 4.53695,0.46848 4.82789,0.10897 z"
           id="path7140"
           inkscape:connector-curvature="0"
           sodipodi:nodetypes="cccscccccssscccccscsccsccccsccccsccsccccccccsccsccccccscccscscccccccccccccscsssccccccsccscccccccccccccccccccscccsccccssssccccccccccccsscccccccsssscscsccccscccsccccsccscccccccsscccscccccccccccccccsccscccccccc" />
        <rect
           x="180.41081"
           y="477.93588"
           width="38.926014"
           height="44.335709"
           ry="22.16881"
           fill="url(#linearGradient5433)"
           fill-rule="evenodd"
           stroke="#084d83"
           stroke-linecap="round"
           stroke-linejoin="round"
           stroke-width="0.829784"
           style="fill:#ffffff;stroke:#000000;stroke-width:7.62673255;stroke-dasharray:none;stroke-opacity:1;paint-order:stroke fill markers;filter:url(#filter2);fill-opacity:1"
           id="rect154"
           transform="matrix(2.4001661,0,0,2.3664144,-424.91843,-690.306)" />
        <g
           transform="matrix(0.37789799,0,0,0.41394994,-104.36065,327.43218)"
           fill-rule="evenodd"
           id="g166"
           style="filter:url(#filter1)">
          <path
             d="m 347.05,321.24 h 149.83 v 108.23 c 0.0259,60.24 -50.293,42.132 -74.697,69.786 -19.085,-27.069 -75.095,-9.5509 -75.127,-69.786 V 321.24"
             fill="#ffffff"
             fill-opacity="0.85769"
             id="path156" />
          <path
             d="M 495.04,424.83 H 348.88 V 393.413 H 495.04 Z M 348.88,369.223 v -46.13 h 146.16 v 46.13 h -3.4872 v -6.7953 h -6.1185 v 6.7953 h -3.1814 l -0.84005,-13.69 0.15504,-0.25003 4.3098,-6.3997 v -5.7309 h -5.8261 v 5.2536 h -4.967 v -5.2536 h -7.0207 v 5.2536 h -4.7276 v -5.2536 h -5.9219 v 5.6359 l 4.4016,6.536 -0.78131,13.899 h -1.638 v -6.8141 h -6.1185 v 6.8141 h -5.8073 v -6.8141 h -6.1185 v 6.8141 h -2.7638 l -1.6071,-22.075 6.3087,-8.0214 v -7.0136 h -8.3521 v 6.44 h -7.5229 v -6.44 h -10.201 v 6.44 h -6.9495 v -6.44 h -8.6072 v 6.9496 l 6.7985,8.3138 -1.4912,21.846 h -3.266 v -6.8141 h -6.1185 v 6.8141 h -5.9873 v -6.8141 h -6.1185 v 6.8141 h -2.222 l -0.78131,-13.46 4.3976,-6.7707 v -5.8301 h -5.7415 v 5.2028 h -4.9329 v -5.2028 h -7.1313 v 5.2028 h -4.53 v -5.2028 h -6.01 v 5.7856 l 4.3832,6.4492 -0.7524,13.826 h -3.4788 v -6.7551 h -6.1536 v 6.7551 h -3.6266"
             fill="#fffdfd"
             id="path158" />
          <path
             d="m 495.04,424.83 v 3.7105 c 0.0722,60.604 -52.609,42.377 -72.555,67.99 -19.249,-25.584 -73.574,-9.3059 -73.606,-67.99 V 424.83 h 146.16 z m -72.507,8.1836 c 10.972,0 19.92,8.9482 19.92,19.92 0,7.8102 -4.5352,14.478 -11.107,17.67 0.88583,1.4676 2.1394,2.6106 2.6437,2.6199 1.783,1.6113 2.249,2.798 2.835,4.4701 -1.6245,-1.075 -3.6875,-1.9584 -5.6719,-1.9555 -1.5163,-0.036 -2.7514,-0.22119 -3.2216,-0.72125 -0.8599,-1.2713 -1.883,-2.2347 -2.621,-2.586 -0.90753,0.12409 -1.8336,0.18917 -2.7752,0.18917 -1.3909,0 -2.6622,-0.13943 -3.9738,-0.40719 -0.79163,0.30083 -1.5711,1.5391 -2.8599,2.9911 -0.70776,1.2835 -2.8244,2.1828 -4.3635,2.0328 -1.3176,-0.11457 -2.5445,0.008 -3.7351,0.40428 0.15081,-2.3678 1.1099,-4.3296 2.3564,-5.4644 1.1906,0.16748 2.276,-0.52705 3.2486,-1.8333 -6.2913,-3.2856 -10.592,-9.8052 -10.592,-17.411 0,-10.972 8.9485,-19.92 19.921,-19.92 z m 0,7.8237 c 7.8806,0 14.309,6.4286 14.309,14.31 0,7.8817 -6.4275,14.31 -14.309,14.31 -7.8815,0 -14.31,-6.4275 -14.31,-14.31 0,-7.8806 6.4275,-14.31 14.31,-14.31 z m -61.096,-35.053 c 1.8624,-1.1287 3.5471,-1.9772 6.2849,-2.1579 1.2495,0.0897 2.1951,0.48049 3.88,1.0655 2.0121,0.54557 4.1711,0.76491 6.4759,0.65511 -2.712,1.2002 -5.3122,2.0341 -7.5136,1.5576 -1.229,-0.20876 -2.2222,-0.4908 -3.4696,-0.92816 -2.2252,-0.42889 -3.8685,-0.34607 -5.6565,-0.19103 z m 34.801,0 c 1.8614,-1.1287 3.547,-1.9772 6.2849,-2.1579 1.2494,0.0897 2.1952,0.48049 3.8798,1.0655 2.0122,0.54557 4.1712,0.76491 6.4759,0.65511 -2.712,1.2002 -5.3123,2.0341 -7.5136,1.5576 -1.229,-0.20876 -2.2222,-0.4908 -3.4695,-0.92816 -2.2254,-0.42889 -3.8695,-0.34607 -5.6565,-0.19103 z m 34.801,0 c 1.8614,-1.1287 3.547,-1.9772 6.2849,-2.1579 1.2496,0.0897 2.1952,0.48049 3.8798,1.0655 2.0124,0.54557 4.1714,0.76491 6.4762,0.65511 -2.712,1.2002 -5.3126,2.0341 -7.5139,1.5576 -1.2287,-0.20876 -2.222,-0.4908 -3.4695,-0.92816 -2.2252,-0.42889 -3.8695,-0.34607 -5.6565,-0.19103 z m 34.801,0 c 1.8614,-1.1287 3.5473,-1.9772 6.2849,-2.1579 1.2496,0.0897 2.1952,0.48049 3.8798,1.0655 2.0124,0.54557 4.1714,0.76491 6.4762,0.65511 -2.712,1.2002 -5.3123,2.0341 -7.5139,1.5576 -1.2287,-0.20876 -2.222,-0.4908 -3.4695,-0.92816 -2.2252,-0.42889 -3.8695,-0.34607 -5.6565,-0.19103 z m -15.083,11.339 c 1.8614,-1.1284 3.547,-1.977 6.2846,-2.1579 1.2496,0.09 2.1963,0.48048 3.8798,1.0644 2.0124,0.54584 4.1714,0.76491 6.4762,0.65537 -2.712,1.1999 -5.3123,2.0341 -7.5136,1.5576 -1.229,-0.20876 -2.2222,-0.49107 -3.4698,-0.92816 -2.2251,-0.42889 -3.8685,-0.34634 -5.6565,-0.1913 z m -74.237,0 c 1.8616,-1.1284 3.5473,-1.977 6.2849,-2.1579 1.2496,0.09 2.1952,0.48048 3.8798,1.0644 2.0124,0.54584 4.1714,0.76491 6.4762,0.65537 -2.712,1.1999 -5.3123,2.0341 -7.5139,1.5576 -1.2287,-0.20876 -2.222,-0.49107 -3.4695,-0.92816 -2.2251,-0.42889 -3.8695,-0.34634 -5.6565,-0.1913 z m 37.118,0 c 1.8616,-1.1284 3.5473,-1.977 6.2849,-2.1579 1.2496,0.09 2.1963,0.48048 3.8798,1.0644 2.0124,0.54584 4.1714,0.76491 6.4762,0.65537 -2.712,1.1999 -5.3123,2.0341 -7.5136,1.5576 -1.229,-0.20876 -2.2222,-0.49107 -3.4698,-0.92816 -2.2251,-0.42889 -3.8685,-0.34634 -5.6565,-0.1913"
             fill="#11b1ee"
             id="path160"
             style="fill:#1a1a1a" />
          <path
             d="m 422.53,433.54 c 3.2123,0 6.2455,0.79058 8.9151,2.1881 0.12938,0.0836 0.66887,0.58896 0.85698,0.78131 1.5616,1.4335 2.6808,3.3041 3.1615,5.3732 0.0495,0.14896 0.0815,0.27702 0.1188,0.42995 0.009,0.0423 0.0259,0.10557 0.0466,0.1643 0.0103,0.0498 0.0341,0.0953 0.0672,0.1315 0.003,0.004 0.007,0.008 0.0114,0.0122 0.0516,0.0529 0.12488,0.0849 0.20558,0.0849 0.16007,0 0.29157,-0.13044 0.29157,-0.29157 0,-0.0548 -0.0156,-0.10636 -0.0426,-0.15081 -0.063,-0.36063 -0.17251,-0.90752 -0.33999,-1.2248 v 0.007 c -0.15081,-1.2711 -1.2525,-2.686 -1.9431,-3.7238 -0.0423,-0.059 -0.0857,-0.11774 -0.13017,-0.17462 4.2304,3.0334 7.1946,7.7298 7.9211,13.12 -0.46514,-0.91996 -1.0779,-1.7912 -1.7044,-2.0474 -0.0423,-0.0249 -0.0918,-0.0384 -0.14552,-0.0384 -0.16034,0 -0.29158,0.13017 -0.29158,0.29157 0,0.14367 0.10531,0.26458 0.24289,0.28733 l 0.0392,0.007 -0.006,-0.004 c 1.0882,0.78025 1.6124,2.3058 2.032,3.5782 0.004,0.16933 0.006,0.33999 0.006,0.51144 0,7.5097 -4.3244,14.042 -10.611,17.234 -0.004,-0.005 -0.008,-0.0114 -0.0135,-0.0167 0,0 -10e-4,-8e-4 -0.002,-0.002 -0.009,-0.0103 -0.0196,-0.0198 -0.031,-0.0291 -0.1778,-0.16007 -0.40931,-0.29554 -0.64506,-0.41434 0.48578,-0.2966 1.0089,-0.73078 1.4253,-1.0544 0.4826,-0.3855 1.0221,-0.73687 1.4303,-1.2092 0.7194,-0.83079 1.692,-1.451 2.3556,-2.3553 1.202,-1.3208 1.3465,-2.0569 2.4834,-3.6608 0.65855,-0.93954 0.89402,-2.1643 1.3115,-3.2152 0.24183,-0.68025 0.39396,-1.3912 0.54477,-2.096 0.19421,-0.771 0.14156,-1.6351 0.14156,-2.4207 0,-0.16008 -0.13018,-0.29131 -0.29131,-0.29131 -0.16034,0 -0.29157,0.13018 -0.29157,0.29131 v 1.4377 c -0.15399,1.5142 -0.66966,3.1078 -1.1978,4.5268 -0.47334,1.2745 -1.2816,2.2976 -1.9204,3.4666 -0.0434,0.0786 -0.47334,0.6313 -0.73686,0.99219 -0.96838,1.3041 -2.2233,2.282 -3.3467,3.4354 -0.75222,0.56435 -1.633,1.3787 -2.4503,1.788 -0.0331,0.0156 -0.0632,0.0373 -0.0878,0.064 -0.6739,-0.32253 -1.2734,-0.41328 -1.8997,-0.45773 5.4869,-2.1892 9.3813,-7.5594 9.3813,-13.812 0,-0.60167 -0.0362,-1.1949 -0.10636,-1.7777 0.74295,-1.3322 0.499,-3.6536 0.499,-5.0779 0,-0.16007 -0.13017,-0.29131 -0.2913,-0.29131 -0.16034,0 -0.29158,0.13018 -0.29158,0.29131 v 0.007 c 0,1.1864 0.0622,2.3553 -0.0796,3.5399 -0.0114,0.0857 -0.0257,0.17674 -0.0423,0.26961 -0.8165,-3.9047 -3.175,-7.2565 -6.4048,-9.3834 0.0217,-0.0402 0.0352,-0.0878 0.0352,-0.13732 0,-0.12091 -0.0743,-0.22648 -0.18097,-0.26987 -0.71729,-0.31512 -1.2578,-1.0562 -1.8457,-1.547 -0.82999,-0.69162 -1.9534,-1.4057 -2.9961,-1.697 -1.2806,-0.47863 -2.6657,-0.37518 -4.0039,-0.37518 -0.16033,0 -0.29157,0.13018 -0.29157,0.29131 0,0.16033 0.13018,0.29157 0.29157,0.29157 h 0.0683 c 2.5694,-0.1913 5.025,0.37915 6.8966,2.25 0.0466,0.0463 0.0939,0.0939 0.14156,0.1405 -1.9026,-0.88874 -4.0235,-1.3851 -6.2569,-1.3851 -2.6707,0 -5.18,0.71015 -7.3496,1.9524 0.70909,-0.87948 1.6962,-1.4004 2.5911,-2.1466 0.09,-0.0704 0.12832,-0.0786 0.23892,-0.0992 0.14049,-0.0196 0.25003,-0.14155 0.25003,-0.28839 0,-0.16008 -0.13018,-0.29131 -0.29157,-0.29131 -0.036,0 -0.0712,0.006 -0.10425,0.0185 -0.60166,0.1778 -1.6238,1.0573 -2.1177,1.4584 -0.83,0.56119 -1.2536,1.3126 -1.759,2.1093 -3.8179,2.6945 -6.3201,7.1387 -6.3201,12.15 0,4.8845 2.377,9.2305 6.0338,11.942 -1.7105,-0.90118 -3.4367,-2.0474 -4.7884,-3.3994 l 0.004,-0.002 c -0.15478,-0.23363 -0.4019,-0.35058 -0.58182,-0.57071 -0.69242,-0.83185 -1.1729,-1.7672 -1.7455,-2.68 -0.49001,-1.1078 -0.53948,-2.4371 -0.53763,-3.637 0,-0.16007 -0.13018,-0.2913 -0.29131,-0.2913 -0.16033,0 -0.29157,0.13017 -0.29157,0.2913 0.001,1.1163 0.0291,2.5694 0.46832,3.6039 0.45772,1.0263 1.1607,1.9627 1.7849,2.8887 0.62019,0.74322 1.4158,1.351 2.1487,1.9918 1.3023,1.0491 2.6839,1.8944 4.1796,2.6405 0.47334,0.31829 1.4232,0.80301 2.1942,1.0388 -0.64797,0.17886 -1.9502,0.64903 -2.707,1.0697 -4.7024,-2.4887 -8.2651,-6.8628 -9.6687,-12.104 0.27702,0.0683 1.3499,-1.1017 1.4203,-1.2414 0.52996,-0.60352 0.77602,-2.005 0.77602,-2.7781 0,-1.424 -0.0765,-2.7511 -0.33073,-4.1484 -0.41327,-2.1788 -0.30162,-4.377 0.1188,-6.5402 1.8666,-3.1843 4.6199,-5.792 7.9158,-7.4798 -0.37201,0.51488 -0.67072,1.0697 -0.80301,1.7529 -0.005,0.0281 -0.0175,0.054 -0.0267,0.0818 -0.01,0.0288 -0.0145,0.0601 -0.0145,0.0921 0,0.16008 0.13018,0.29131 0.29131,0.29131 0.13044,0 0.24103,-0.0857 0.27807,-0.20452 0.008,-0.0249 0.0199,-0.0498 0.0249,-0.0754 0.14367,-0.98716 0.81042,-1.7613 1.4552,-2.5032 2.3222,-0.99219 4.8752,-1.542 7.5541,-1.542 z m 8.2341,36.904 c 0.29051,0.30692 0.58182,0.74401 0.87339,1.4086 0.38762,0.84032 1.0996,1.4232 2.1341,1.7465 1.1483,0.7276 1.941,1.9897 2.5715,3.4933 -1.3187,-0.97975 -2.6625,-1.765 -4.2291,-1.8283 -0.92605,-0.037 -1.7293,-0.0982 -3.1462,-0.20876 -1.3293,-0.72443 -1.723,-2.3191 -3.1224,-2.8948 1.202,0.40402 2.1291,1.36 3.5213,1.36 0.16007,0 0.2913,-0.13018 0.2913,-0.29131 0,-0.16034 -0.13017,-0.29157 -0.2913,-0.29157 -0.44556,0 -0.81757,-0.0868 -1.2269,-0.25823 -1.047,-0.59955 -1.9566,-1.2319 -3.1988,-1.2756 -0.17145,-0.55086 -0.3421,-1.1036 -0.16854,-1.6526 0.60987,-0.0929 1.2084,-0.2241 1.7923,-0.38947 l 0.2884,0.0278 h 0.42994 c 1.084,-0.002 2.6241,0.3122 3.4787,1.0562 z m -6.2248,1.6235 c -0.41751,0.0434 -0.83926,0.0736 -1.2652,0.09 -0.0381,-0.14472 -0.0889,-0.29448 -0.11668,-0.41857 -0.23257,-0.7866 -0.11165,-1.233 0.10134,-1.8375 0.29977,-0.0145 0.59848,-0.0384 0.89296,-0.0704 -0.13652,0.77417 0.22622,1.4605 0.38656,2.2365 z m -1.8606,0.10451 H 422.53 c -0.2151,0 -0.42889,-0.003 -0.64293,-0.0103 -0.0466,-0.0601 -0.0992,-0.11378 -0.15505,-0.17172 -0.42571,-0.44344 -0.39793,-1.4232 -0.19209,-2.1032 0.32756,0.0206 0.65829,0.0331 0.99219,0.0331 h 0.11271 c -0.20055,0.61807 -0.29686,1.1494 -0.054,1.9463 0.0177,0.0804 0.0569,0.1942 0.091,0.30585 z m -1.5761,-0.0526 c -0.30586,-0.0228 -0.61172,-0.0519 -0.91361,-0.0889 -0.0775,-0.75671 -0.15716,-1.5473 -0.0185,-2.2987 0.25638,0.0413 0.51567,0.0754 0.77708,0.10345 -0.19844,0.7419 -0.20452,1.6732 0.15505,2.2842 z m -1.515,-0.17277 c -0.1262,-0.0185 -0.25109,-0.0392 -0.37624,-0.0609 -0.10345,-0.79375 -0.20452,-1.5266 -0.0796,-2.3275 0.0206,-0.005 0.0413,-0.0114 0.0622,-0.0167 0.13415,0.0312 0.27067,0.0601 0.4072,0.0878 -0.10954,0.63976 -0.0889,1.3107 -0.0839,1.9505 0.0124,0.11774 0.0445,0.24262 0.0704,0.36777 z m -0.97975,-0.17674 c -0.0238,-0.005 -0.0487,-0.009 -0.0736,-0.0154 0.12726,-0.0228 -0.91652,0.24474 -1.4552,1.0189 -0.78423,1.1554 -1.7383,2.2728 -2.9115,3.2991 -1.3258,0.69665 -2.5392,0.712 -3.7362,0.6305 -0.77602,-0.0683 -1.5523,0.14367 -2.3283,0.33894 0.2458,-1.4047 0.91757,-2.8805 1.9407,-4.4151 1.0028,0.032 1.7468,-0.19341 2.2315,-0.67918 0.65538,-0.71517 1.3115,-1.266 1.9669,-1.6515 0.68606,-0.37306 2.8681,-1.0843 3.4869,-1.1761 0.16748,0.0566 0.33708,0.11139 0.50747,0.16324 -0.29871,0.127 -0.59637,0.26141 -0.89297,0.37518 -1.2464,0.69559 -2.127,1.9068 -3.4168,2.5516 -0.095,0.0476 -0.16113,0.14685 -0.16113,0.26062 0,0.16007 0.13018,0.29131 0.29131,0.29131 0.0466,0 0.091,-0.0114 0.12938,-0.0299 0.66966,-0.33497 1.2682,-0.82153 1.8365,-1.3084 0.71305,-0.70802 1.5565,-1.2898 2.4929,-1.66 -0.0651,0.67918 0.004,1.324 0.09,2.005 z m -14.883,-14.494 c -0.33391,-1.419 -0.51171,-2.899 -0.51171,-4.4183 0,-2.9064 0.64797,-5.6668 1.8076,-8.1441 -0.20162,1.7963 -0.16537,3.605 0.20055,5.3845 0.18495,0.64902 0.15822,1.4026 0.25532,2.1529 l 0.004,-0.003 c 0,0.73792 -0.0299,1.4748 -0.0413,2.2066 l 0.006,-0.008 c -0.1532,0.61489 -0.25427,1.1348 -0.53552,1.7105 l 0.001,-0.006 c -0.18494,0.30692 -0.71834,1.0739 -1.1864,1.1255"
             fill="#fffdfd"
             id="path162" />
          <path
             d="m 462.42,355.44 h 18.462 l 2.1127,36.924 h -22.595 z m 7.5324,4.5921 h 3.1221 v 8.7249 h -3.1221 z m -9.3173,-7.4538 h 22.107 l -1.5573,2.2685 h -19.009 l -1.5399,-2.2685 z m -2.559,-8.9112 h 4.8152 v 5.2131 h 5.6512 v -5.2131 h 6.0494 v 5.2131 h 5.9695 v -5.2131 h 4.7358 v 5.0541 l -2.2119,3.2639 h -22.803 l -2.2087,-3.2639 v -5.0541 z m -94.592,11.773 h 18.462 l 2.1127,36.924 h -22.595 z m 7.5324,4.5921 h 3.1223 v 8.7249 h -3.1223 z m -9.338,-7.4538 h 22.175 l -1.5058,2.2685 h -19.093 l -1.5751,-2.2685 z m -2.5383,-8.9112 h 4.8152 v 5.2131 h 5.6513 v -5.2131 h 6.0492 v 5.2131 h 5.9698 v -5.2131 h 4.7355 v 5.0541 l -2.096,3.2639 h -22.947 l -2.1797,-3.2639 v -5.0541 z m 61.401,9.1583 h 4.5392 v 10.699 h -4.5392 z m -11.51,-5.8364 h 27.452 l 3.2419,45.609 h -11.996 v -16.86 c -2.4672,-3.2142 -7.2234,-3.3052 -9.8351,0 v 16.86 h -11.996 z m -3.0644,-3.4674 h 33.236 l -2.2656,2.9207 h -28.544 l -2.4254,-2.9207 z m -3.723,-10.892 h 7.4837 v 6.5712 h 8.0317 v -6.5712 h 9.1271 v 6.5712 h 8.5794 v -6.5712 h 7.3017 v 6.2674 l -3.1946,4.0762 h -33.982 l -3.3488,-4.0762 v -6.2674 z m 81.554,58.102 h 1.1472 v 2.1725 h -1.0099 z m 2.4826,0 h 9.0752 v 2.1725 h -9.0752 z m 5.3091,-5.2059 h 3.9407 v 3.915 h -3.9407 z m -8.1224,0 h 6.6683 v 3.915 h -6.4204 z m 2.8133,-5.2049 h 9.0752 v 3.915 h -9.0752 z m -3.144,0 h 1.7497 v 3.915 h -1.5007 l -0.24791,-3.915 z m 8.3942,-5.2057 h 4.0008 v 3.915 h -4.0008 z m -8.7249,0 h 7.3006 v 3.915 h -7.0517 l -0.24791,-3.915 z m 3.5047,-5.2049 h 9.0755 v 3.915 h -9.0755 z m -3.8354,0 h 2.4112 v 3.915 h -2.1632 z m -42.362,20.923 h 2.5239 v 2.1725 h -2.3852 l -0.13759,-2.1725 z m 3.8592,0 h 9.0755 v 2.1725 h -9.0755 z m 10.411,0 h 5.515 l -0.12515,2.1725 h -5.3888 v -2.1725 z m -5.1014,-5.2059 h 9.0752 v 3.915 h -9.0752 z m -9.4993,0 h 8.0452 v 3.915 h -7.797 z m 14.66,-5.2049 h 6.0574 l -0.22621,3.915 h -5.8312 z m -10.47,0 h 9.0755 v 3.915 h -9.0755 z m -4.5207,0 h 3.1266 v 3.915 h -2.8774 l -0.24818,-3.915 z m 9.7711,-5.2059 h 9.0755 v 3.915 h -9.0755 z m -10.102,0 h 8.6775 v 3.915 h -8.4283 l -0.24817,-3.915 z m 15.381,-5.2046 h 6.6 l -0.22622,3.9148 h -6.3738 z m -10.499,0 h 9.0752 v 3.9148 h -9.0752 z m -5.2123,0 h 3.788 v 3.9148 h -3.5388 l -0.24818,-3.9148 z m -53.997,20.821 h 5.5335 v 2.1725 h -5.4147 z m 6.8688,0 h 9.0755 v 2.1725 h -9.0755 z m 10.411,0 h 3.2443 l -0.15611,2.1725 h -3.0882 z m -17.566,-5.2059 h 0.48181 v 3.915 h -0.26564 l -0.21511,-3.915 z m 12.465,0 h 8.7209 l -0.28126,3.915 h -8.4386 v -3.915 z m -10.53,0 h 9.0755 v 3.915 h -9.0755 z m 15.691,-5.2049 h 3.9349 l -0.28125,3.915 h -3.6526 v -3.915 z m -10.471,0 h 9.0755 v 3.915 h -9.0755 z m -7.4414,0 h 6.0473 v 3.915 h -5.8322 z m 12.692,-5.2059 h 9.0755 v 3.915 h -9.0755 z m -10.501,0 h 9.0755 v 3.915 h -9.0755 z m -2.4773,0 h 1.0544 v 3.915 h -0.8382 l -0.21511,-3.915 z m 18.257,-5.2046 h 4.6241 l -0.28126,3.9148 h -4.3429 z m -10.499,0 h 9.0752 v 3.9148 h -9.0752 z m -8.0441,0 h 6.6199 v 3.9148 h -6.4037 l -0.21511,-3.9148 z m -34.039,20.821 h 9.0754 v 2.1725 h -9.0754 z m 10.411,0 h 0.68934 l -0.13745,2.1725 h -0.55189 z m -5.1015,-5.2059 h 6.1216 l -0.24805,3.915 h -5.8725 v -3.915 z m -5.9418,0 h 4.4886 v 3.915 h -4.4886 z m 11.103,-5.2049 h 1.2919 l -0.24804,3.915 h -1.0428 v -3.915 z m -10.471,0 h 9.0754 v 3.915 h -9.0754 z m 5.2503,-5.2059 h 6.843 l -0.24804,3.915 h -6.5939 v -3.915 z m -5.8828,0 h 4.4586 v 3.915 h -4.4586 z m 11.162,-5.2046 h 1.8934 l -0.24805,3.9148 h -1.6454 z m -10.5,0 h 9.0754 v 3.9148 h -9.0754 z m 92.277,-6.9805 h 5.0064 v 5.9891 h -5.0064 z m 11.891,0 h 5.0064 v 5.9891 h -5.0064 z m 32.185,0 h 5.0064 v 5.9891 h -5.0064 z m -132.94,0 h 5.0064 v 5.9891 h -5.0064 z m 32.9,0 h 5.0064 v 5.9891 h -5.0064 z m 12.16,0 h 5.0062 v 5.9891 h -5.0062 z m 61.715,22.585 h 0.36592 l -0.23151,3.9193 h -0.13335 v -3.9193 z m 0,-10.417 h 0.96864 l -0.24183,3.8756 h -0.72681 v -3.8756"
             fill="#ec2a32"
             id="path164"
             style="fill:#000000" />
        </g>
      </g>
    </g>
  </g>
</svg>
