<?xml version="1.0" encoding="UTF-8"?>
<svg width="512" height="512" version="1.1" viewBox="0 0 135.47 135.47" xmlns="http://www.w3.org/2000/svg" xmlns:xlink="http://www.w3.org/1999/xlink">
 <defs>
  <linearGradient id="linearGradient5433" x1="28.811" x2="454.17" y1="485.62" y2="80.441" gradientTransform="matrix(.24242 0 0 .31078 5.1498 5.1325)" gradientUnits="userSpaceOnUse" xlink:href="#linearGradient5433">
   <stop stop-color="#ed2c32" offset="0"/>
   <stop stop-color="#11b1ee" offset="1"/>
  </linearGradient>
 </defs>
 <path d="m37.347 8.079h61.242c17.414 0 31.429 14.369 31.433 32.218l0.0187 95.172c-59.191 0.0519-60.137 0.28179-124.14-6e-3l0.018698-95.166c0.0035068-17.849 14.019-32.218 31.433-32.218z" fill="url(#linearGradient5433)" fill-rule="evenodd" stroke-width="0" style="paint-order:stroke fill markers"/>
 <g transform="matrix(.38616 0 0 .40075 76.997 -90.068)" fill="#d8d8d8" stroke="#797979">
  <path d="m-38.073 529.57c-0.0094-0.13882-0.08886-13.245-0.17733-29.126-0.08845-15.88-0.2219-29.069-0.29659-29.307-0.18911-0.60447-0.5682-0.64792-6.991-0.80105-8.3515-0.19911-14.221 0.31782-22.051 1.9421-9.1217 1.8923-19.331 5.3937-27.071 9.2843-6.1339 3.0832-13.327 7.5638-17.615 10.973-0.91713 0.72908-1.69 1.3026-1.7175 1.2744-0.0275-0.0283 0.34442-3.2716 0.82649-7.2076s1.6779-13.925 2.6574-22.199c0.97952-8.2734 2.7508-23.084 3.9361-32.912 2.3528-19.508 4.8156-40.164 5.0237-42.135 0.24874-2.3556-0.13637-2.5535-2.4513-1.2595-3.8285 2.1401-10.371 7.1164-14.286 10.866-1.7094 1.6372-1.7742 1.6777-1.8354 1.1488-0.0349-0.30157 0.0742-0.76382 0.24247-1.0272 0.45044-0.70503 0.63813-1.7787 1.0941-6.259 0.5139-5.0491 1.493-13.429 1.871-16.014 0.15733-1.0759 0.86792-6.908 1.5791-12.96 1.5871-13.507 4.5817-38.662 5.5283-46.44 1.1558-9.4958 1.4458-11.37 1.8176-11.748 0.67864-0.69077 5.6435-3.0159 9.5878-4.4901 1.0828-0.40473 2.1635-0.8195 2.4014-0.92173 0.902-0.38756 6.3726-2.025 9.0177-2.6992 9.7803-2.0504 19.22-3.7661 27.17-3.9069 11.806 0.24915 23.337 2.1671 33.666 5.6033 2.9984 1.0084 4.4839 1.4154 4.9086 1.3447 0.33496-0.0558 1.9812-0.73852 3.6584-1.5173 5.5215-2.5638 9.3251-3.6877 15.103-4.4627 3.4468-0.46713 6.9318-0.57048 9.1697-0.76112 3.7733 0.0272 9.4789 0.54107 12.565 1.1057 7.8716 0.88082 14.454 2.8863 17.894 4.6862 1.1046 0.57792 0.8305-1.0294 2.961 17.364 1.2698 10.963 3.7041 30.849 4.0123 32.776 0.15674 0.98052 0.4204 1.9947 0.58589 2.2537 0.36001 0.56346 1.4561 0.56992 6.6381 1.7142 7.0501 1.5568 9.3065 2.3951 9.3065 2.3951 0.14958 0.54783 0.56519 5.2963 0.47193 5.3919-0.0473 0.0485-2.6929-0.41706-5.8791-1.0346-3.1862-0.61749-6.6024-1.1747-7.5916-1.2382-1.7843-0.11457-1.8013-0.11122-2.1424 0.42274-0.3286 0.51434-0.32538 0.67455 0.0727 3.6122 0.22909 1.6907 0.64642 4.9268 0.9274 7.1914 0.28097 2.2646 0.58907 4.3283 0.68464 4.5862 0.25739 0.69428 1.4739 1.2385 7.572 3.3874 5.854 2.0629 8.2239 3.1318 8.8158 3.976 0.27022 0.38544 0.45951 1.3771 0.73229 3.8363 0.90624 8.1699 2.2441 19.573 2.9594 25.224 0.42873 3.3871 1.0913 8.8841 1.4724 12.216 0.69511 6.0772 1.6411 14.038 5.1226 43.108 1.0307 8.6065 2.183 18.238 2.5607 21.403 0.37765 3.165 0.87009 6.6937 1.0943 7.8416s0.37459 2.1209 0.33419 2.1624c-0.0404 0.0414-0.46784-0.43148-0.94982-1.051-1.327-1.7055-4.0546-4.2813-5.8089-5.4855-4.9776-3.417-12.182-5.8274-19.475-6.5162-2.8772-0.27171-13.389-0.13424-16.842 0.22024-11.904 1.2224-27.559 6.4544-39.617 13.24-8.782 4.9426-15.185 9.7214-21.486 16.036-4.7662 4.776-7.7189 8.4726-10.204 12.774-0.75373 1.3049-1.4084 2.3725-1.4549 2.3725-0.04646 0-0.09188-0.11358-0.10105-0.2524zm7.0631-18.528c0.35639-0.22283 1.5967-1.3386 2.7563-2.4794 8.2948-8.1606 20.752-16 34.397-21.646 4.8026-1.9872 8.938-3.3363 14.586-4.7583 5.4435-1.3705 7.8728-1.8259 12.803-2.3997 12.056-1.4033 22.435-0.55763 31.281 2.5489 1.4077 0.49432 2.9697 1.0432 3.4712 1.2198 1.0887 0.38339 1.489 0.26688 1.6803-0.48913 0.0857-0.3388-0.22552-3.5866-0.77973-8.1356-1.6767-13.762-3.6557-30.243-4.8613-40.483-0.6537-5.5526-1.4509-12.231-1.7716-14.841-0.32066-2.6097-0.8931-7.4253-1.2721-10.701-1.7204-14.872-2.4893-21.023-2.7174-21.739-0.21651-0.68009-0.42094-0.86258-1.6872-1.5061-1.7369-0.88269-6.6898-2.5993-7.4996-2.5993-0.73626 0-1.199 0.4704-1.199 1.2189 0 0.32141 0.13744 1.5949 0.30541 2.83 0.20896 1.3776 0.27408 2.7418 0.1868 4.1244-1.9394 0.58317-3.4842 0.79873-5.4142 0.97196l-1e-3 -0.68583c-3e-3 -1.7907-1.4179-10.143-1.798-10.613-0.27224-0.3363-3.663-1.1098-9.5216-2.1721-10.308-1.869-14.006-2.1354-29.641-2.1354h-11.189l-0.0601-9.278c-0.0443-6.8324-0.12189-9.3413-0.29441-9.5181-0.18102-0.18549-1.0539-0.16287-3.8392 0.0995-6.4603 0.60844-16.066 1.9502-18.308 2.5574-1.0345 0.28015-1.2197 0.99576-1.1045 4.2677 0.06751 1.9174 0.16771 2.683 0.37961 2.9004 0.15833 0.16238 1.9902 0.88676 4.0707 1.6097 9.0273 3.1369 13.146 5.6002 18.297 10.943l2.6087 2.7059-2.8e-4 53.038-2.7e-4 53.038-0.97292-1.6589c-1.5023-2.5618-2.474-3.8371-4.4471-5.837-2.1945-2.2243-5.3984-4.4653-8.6504-6.0506-2.6816-1.3072-8.373-3.2994-9.8853-3.4602l-1.0198-0.10845-0.15548 0.78399c-0.08553 0.43116-0.15818 9.1431-0.16148 19.36-0.0073 21.003-0.08032 20.022 1.4295 19.078zm-72.342-31.47c9.6901-5.6222 21.197-10.062 33.258-12.832 2.4946-0.57295 10.699-1.8079 14.121-2.1255 1.2453-0.11559 5.6863-0.21045 9.869-0.21084h7.6049l0.15064-35.486c0.14596-34.383 0.0548-53.714-0.26012-55.172-0.28328-1.3115-0.29457-1.313-9.7845-1.3076-10.52 6e-3 -14.001 0.3452-21.814 2.1255-10.412 2.3726-23.828 7.4156-24.682 9.2776-0.29383 0.6407-0.57972 2.7531-1.9402 14.336-0.60656 5.1639-2.0313 17.112-3.1661 26.551-4.8387 40.248-6.3797 53.407-6.3797 54.475 0 0.748 0.29159 1.7577 0.5076 1.7577 0.0679 0 1.1998-0.6244 2.5151-1.3876zm90.299-50.98v-43.887c-5.5973-5.5726-12.025-9.3616-19.487-11.002 0.4653 30.852 0.36585 63.377-0.01884 91.313 4.6218 0.40788 13.1 4.1294 19.373 7.9634zm-93.385-45.747c2.688-1.6578 5.1381-3.2833 5.4448-3.6122 0.7042-0.75539 0.79174-1.1746 1.5145-7.2523 1.1277-9.4833 2.2023-17.721 2.3291-17.854 0.33767-0.35565 8.3602-3.8943 11.054-4.8758 10.244-3.7325 21.015-6.191 29.924-6.8305 4.8462-0.34784 15.666-0.1177 19.959 0.42454 2.5922 0.32741 3.5759 0.38495 3.738 0.21868 0.34992-0.35887 0.4882-5.2348 0.50514-17.811l0.01573-11.644 1.2798-2.2245c0.70387-1.2235 1.7256-2.7942 2.2704-3.4905 2.0034-2.5601 1.7745-2.9421-2.5658-4.2811-6.5556-2.0224-12.929-2.9927-22.296-3.3943-10.418-0.44663-20.022 0.28154-28.696 2.1756-8.6062 1.8794-20.476 6.0017-20.953 7.277-0.1961 0.52409-0.87628 5.7459-1.9814 15.211-0.6029 5.1639-1.5774 13.296-2.1655 18.071s-1.3846 11.499-1.7701 14.941c-0.88916 7.9417-3.0272 25.192-3.2504 26.225-0.19218 0.88977 0.0376 1.7395 0.47038 1.7395 0.15715 0 2.485-1.3564 5.173-3.0142zm15.529-7.9993c5.689-2.5405 18.431-6.2259 24.76-7.1615 8.1143-1.1995 12.726-1.4917 21.054-1.3339l6.6447 0.12594 0.01427-1.3632c0.03011-2.8836 0.33445-8.8497 0.46784-9.1729 0.31351-0.7596 9.7733-2.4297 20.387-3.5993 5.7706-0.63589 7.9343-0.98264 8.2683-1.325 0.258-0.2645 0.30352-2.5567 0.35431-17.841l0.0582-17.537-2.0271-1.673c-3.667-3.0264-8.1859-5.8412-9.3776-5.8412-0.9499 0-4.0828 3.6934-5.4019 6.3684l-0.50184 1.0177-0.0669 17.592c-0.0368 9.6756-0.13267 17.659-0.21314 17.742-0.0804 0.0825-0.92212-0.0933-1.8704-0.39049-5.4925-1.7218-16.252-2.9675-22.088-2.5574-7.2057 0.50624-12.68 1.1973-16.915 2.1351-8.4597 1.8736-16.882 4.6021-23.453 7.5983l-1.0771 0.49108-0.6353 5.0362c-0.34942 2.7699-0.77111 6.0356-0.9371 7.2572-0.49159 3.6178-0.38419 5.3507 0.33159 5.3507 0.09272 0 1.0935-0.41305 2.224-0.91787zm131.21-1.4075c0.28411-0.35108 0.20613-1.7503-0.41054-7.3664-0.5871-5.3468-0.89769-7.1188-1.3008-7.4211-0.19057-0.14291-0.66676-0.34828-1.0582-0.45638-4.4792-1.237-37.059-1.6837-39.352-0.53961-0.26418 0.1318-0.5654 0.51221-0.66939 0.84536-0.10397 0.33316-0.19776 2.6955-0.20836 5.2497-0.0215 5.1736 0.0779 5.688 1.1595 5.9994 0.32485 0.0935 4.5332 0.30254 9.3518 0.46447 4.8187 0.16192 10.046 0.39168 11.616 0.51055 4.0687 0.30807 12.352 1.4983 16.046 2.3056 3.5491 0.77567 4.4663 0.85328 4.8263 0.40842zm-2.5578-21.808c0.42847-0.52948 0.0949-5.6737-0.88352-13.624-0.49884-4.0534-1.5244-12.594-2.279-18.98-1.4643-12.391-1.6648-13.788-2.0758-14.468-0.42957-0.71038-4.7387-1.9947-11.013-3.2824-4.9133-1.0084-6.5567-1.1284-15.451-1.1284-9.0444 0-9.6357 0.0583-14.521 1.4315-2.3527 0.66127-5.1805 1.8369-5.4352 2.2595-0.25961 0.43078 0.17033 0.89794 2.2104 2.4018 2.9014 2.1388 5.5555 4.3384 7.3595 6.0992l1.5272 1.4906v36.896l8.0229 3e-3c11.177 4e-3 23.234 0.34827 27.711 0.79149 4.7904 0.47421 4.537 0.46848 4.8279 0.10897z" fill="#d8d8d8" stroke-width="0" style="paint-order:fill markers stroke"/>
 </g>
</svg>
